{
.appVersion = "3523";
.formatVersion = 3;
DisplayStrings = (
"0123456789 #%&?
ABCDEFGHIJKLMNOPQRSTUVWXYZ
abcdefghijklmnopqrstuvwxyz

+×=&?*#%

"
);
axes = (
{
name = Weight;
tag = wght;
}
);
customParameters = (
{
name = "Enforce Compatibility Check";
value = 1;
},
{
name = fsType;
value = (
);
}
);
date = "2025-02-03 07:01:27 +0000";
familyName = "M PLUS 3";
featurePrefixes = (
{
automatic = 1;
code = "languagesystem DFLT dflt;
";
name = Languagesystems;
},
{
code = "table BASE {
  HorizAxis.BaseTagList     icfb  icft  ideo  romn;
  HorizAxis.BaseScriptList  
                DFLT  ideo   -70   830  -120     0,
                hani  ideo   -70   830  -120     0,
                kana  ideo   -70   830  -120     0,
                latn  romn   -70   830  -120     0,
                cyrl  romn   -70   830  -120     0,
                grek  romn   -70   830  -120     0;

  VertAxis.BaseTagList      icfb  icft  ideo  romn;
  VertAxis.BaseScriptList 
                DFLT  ideo    46   954     0   120,
                hani  ideo    46   954     0   120,
                kana  ideo    46   954     0   120,
                latn  romn    46   954     0   120,
                cyrl  romn    46   954     0   120,
                grek  romn    46   954     0   120;
} BASE;";
name = BASE;
}
);
features = (
{
automatic = 1;
code = "feature sups;
feature frac;
feature pnum;
feature tnum;
feature fwid;
feature vert;
feature vkna;
feature vrt2;
";
tag = aalt;
},
{
automatic = 1;
code = "sub zero by zerosuperior;
sub one by onesuperior;
sub two by twosuperior;
sub three by threesuperior;
sub four by foursuperior;
";
tag = sups;
},
{
automatic = 1;
code = "sub one slash four by onequarter;
sub one slash two by onehalf;
sub three slash four by threequarters;
";
tag = frac;
},
{
automatic = 1;
code = "sub zero by zero.lf;
sub one by one.lf;
sub two by two.lf;
sub three by three.lf;
sub four by four.lf;
sub five by five.lf;
sub six by six.lf;
sub seven by seven.lf;
sub eight by eight.lf;

glyphs = (
{
glyphname = A;
kernLeft = A;
kernRight = A;
lastChange = "2026-06-03 04:42:01 +0000";
layers = (
{
anchors = (
{
name = bottom;
pos = (318,0);
},
{
name = ogonek;
pos = (618,0);
},
{
name = top;
pos = (318,730);
},
{
name = top_ring;
pos = (318,640);
}
);
layerId = "D65C9A1E-0FCA-4B2D-8EDF-9F36CA9182A1";
metricLeft = "=H*.2";
shapes = (
{
closed = 1;
nodes = (
(40,0,l),
(317,709,l),
(319,709,l),
(596,0,l),
(618,0,l),
(332,730,l),
(304,730,l),
(18,0,l)
);
},
{
closed = 1;
nodes = (
(513,237,l),
(513,257,l),
(123,257,l),
(123,237,l)
);
}
);
width = 636;
},
{
anchors = (
{
name = bottom;
pos = (351,0);
},
{
name = ogonek;
pos = (662,0);
},
{
name = top;
pos = (351,730);
},
{
name = top_ring;
pos = (351,610);
}
);
background = {
anchors = (
{
name = bottom;
pos = (342,0);
},
{
name = ogonek;
pos = (682,0);
},
{
name = top;
pos = (342,730);
},
{
name = top_ring;
pos = (342,613);
}
);
};
layerId = "9527F797-22C1-480E-A1FE-2CDBEBE1FD4C";
shapes = (
{
closed = 1;
nodes = (
(133,0,l),
(341,635,l),
(343,635,l),
(551,0,l),
(672,0,l),
(417,730,l),
(268,730,l),
(12,0,l)
);
},
{
closed = 1;
nodes = (
(545,183,l),
(545,283,l),
(140,283,l),
(140,183,l)
);
}
);
width = 684;
},
{
anchors = (
{
name = bottom;
pos = (367,0);
},
{
name = ogonek;
pos = (707,0);
},
{
name = top;
pos = (367,730);
},
{
name = top_ring;
pos = (367,585);
}
);
layerId = "9E6B41AB-2970-4C41-8B35-4DBE0D296A43";
metricLeft = "=H*.1";
shapes = (
{
closed = 1;
nodes = (
(227,0,l),
(366,560,l),
(368,560,l),
(507,0,l),
(727,0,l),
(502,730,l),
(232,730,l),
(7,0,l)
);
},
{
closed = 1;
nodes = (
(562,135,l),
(562,300,l),
(172,300,l),
(172,135,l)
);
}
);
width = 734;
}
);
metricLeft = "=H*.15";
metricRight = "=|";
unicode = 65;
},
{
glyphname = AE;
kernLeft = A;
kernRight = E;
lastChange = "2026-06-02 03:16:44 +0000";
layers = (
{
anchors = (
{
name = bottom;
pos = (487,0);
},
{
name = top;
pos = (487,730);
}
);
layerId = "D65C9A1E-0FCA-4B2D-8EDF-9F36CA9182A1";
shapes = (
{
closed = 1;
nodes = (
(41,0,l),
(456,710,l),
(468,710,l),
(468,0,l),
(828,0,l),
(828,20,l),
(488,20,l),
(488,380,l),
(805,380,l),
(805,400,l),
(488,400,l),
(488,710,l),
(828,710,l),
(828,730,l),
(445,730,l),
(18,0,l)
);
},
{
closed = 1;
nodes = (
(478,237,l),
(478,257,l),
(174,257,l),
(174,237,l)
);
}
);
width = 873;
},
{
anchors = (
{
name = bottom;
pos = (483,0);
},
{
name = top;
pos = (483,730);
}
);
layerId = "9527F797-22C1-480E-A1FE-2CDBEBE1FD4C";
shapes = (
{
closed = 1;
nodes = (
(134,0,l),
(416,640,l),
(437,640,l),
(437,0,l),
(842,0,l),
(842,98,l),
(547,98,l),
(547,334,l),
(821,334,l),
(821,430,l),
(547,430,l),
(547,632,l),
(842,632,l),
(842,730,l),
(346,730,l),
(12,0,l)
);
},
{
closed = 1;
nodes = (
(497,183,l),
(497,283,l),
(168,283,l),
(168,183,l)
);
}
);
width = 898;
},
{
anchors = (
{
name = bottom;
pos = (480,0);
},
{
name = top;
pos = (480,730);
}
);
layerId = "9E6B41AB-2970-4C41-8B35-4DBE0D296A43";
shapes = (
{
closed = 1;
nodes = (
(227,0,l),
(377,570,l),
(407,570,l),
(407,0,l),
(857,0,l),
(857,160,l),
(607,160,l),
(607,292,l),
(837,292,l),
(837,446,l),
(607,446,l),
(607,570,l),
(857,570,l),
(857,730,l),
(247,730,l),
(7,0,l)
);
},
{
closed = 1;
nodes = (
(517,135,l),
(517,300,l),
(162,300,l),
(162,135,l)
);
}
);
width = 920;
}
);
metricLeft = "=A";
metricRight = "=E";
unicode = 198;
},
{
glyphname = B;
kernLeft = H;
kernRight = B;
lastChange = "2026-06-02 03:02:04 +0000";
layers = (
{
layerId = "9527F797-22C1-480E-A1FE-2CDBEBE1FD4C";
shapes = (
{
closed = 1;
nodes = (
(510,-10,o),
(620,60,o),
(620,201,cs),
(620,303,o),
(563,364,o),
(453,380,c),
(453,381,l),
(541,399,o),
(590,458,o),
(590,547,cs),
(590,675,o),
(487,740,o),
(285,740,cs),
(228,740,o),
(156,735,o),
(80,726,c),
(80,4,l),
(143,-4,o),
(227,-10,o),
(290,-10,cs)
);
},
{
closed = 1;
nodes = (
(190,35,l),
(190,695,l),
(153,632,l),
(236,640,o),
(265,642,o),
(295,642,cs),
(420,642,o),
(480,606,o),
(480,530,cs),
(480,457,o),
(423,422,o),
(305,422,cs),
(135,422,l),
(135,327,l),
(305,327,ls),
(449,327,o),
(508,294,o),
(508,213,cs),
(508,127,o),
(441,88,o),
(295,88,cs),
(249,88,o),
(192,92,o),
(154,98,c)
);
}
);
width = 660;
},
{
layerId = "9E6B41AB-2970-4C41-8B35-4DBE0D296A43";
shapes = (
{
closed = 1;
nodes = (
(541,-10,o),
(660,67,o),
(660,210,cs),
(660,307,o),
(602,364,o),
(490,378,c),
(490,379,l),
(584,394,o),
(640,458,o),
(640,550,cs),
(640,675,o),
(527,740,o),
(310,740,cs),
(244,740,o),
(147,734,o),
(70,726,c),
(70,4,l),
(164,-5,o),
(263,-10,o),
(320,-10,cs)
);
},
{
closed = 1;
nodes = (
(270,59,l),
(270,671,l),
(214,577,l),
(256,582,o),
(299,585,o),
(330,585,cs),
(409,585,o),
(440,565,o),
(440,514,cs),
(440,462,o),
(412,444,o),
(330,444,cs),
(170,444,l),
(170,294,l),
(330,294,ls),
(418,294,o),
(455,273,o),
(455,223,cs),
(455,170,o),
(415,145,o),
(330,145,cs),
(301,145,o),
(249,148,o),
(214,153,c)
);
}
);
width = 695;
},
{
layerId = "D65C9A1E-0FCA-4B2D-8EDF-9F36CA9182A1";
shapes = (
{
closed = 1;
nodes = (
(475,-10,o),
(580,53,o),
(580,194,cs),
(580,300,o),
(518,360,o),
(392,381,c),
(392,382,l),
(490,405,o),
(540,458,o),
(540,549,cs),
(540,678,o),
(444,740,o),
(260,740,cs),
(219,740,o),
(181,737,o),
(90,726,c),
(90,4,l),
(158,-6,o),
(207,-10,o),
(260,-10,cs)
);
},
{
closed = 1;
nodes = (
(110,10,l),
(110,720,l),
(92,706,l),
(182,717,o),
(220,720,o),
(260,720,cs),
(435,720,o),
(520,664,o),
(520,549,cs),
(520,441,o),
(443,390,o),
(280,390,cs),
(100,390,l),
(100,370,l),
(280,370,ls),
(473,370,o),
(560,315,o),
(560,194,cs),
(560,67,o),
(467,10,o),
(260,10,cs),
(205,10,o),
(160,14,o),
(93,24,c)
);
}
);
width = 625;
}
);
metricLeft = "=H";
metricRight = "=|*.5";
unicode = 66;
},
{
glyphname = C;
kernLeft = O;
kernRight = C;
lastChange = "2026-05-25 06:25:24 +0000";
layers = (
{
anchors = (
{
name = bottom;
pos = (412,0);
},
{
name = cedi;
pos = (350,0);
},
{
name = top;
pos = (412,730);
}
);
layerId = "D65C9A1E-0FCA-4B2D-8EDF-9F36CA9182A1";
shapes = (
{
closed = 1;
nodes = (
(497,-10,o),
(566,4,o),
(634,32,c),
(626,50,l),
(560,23,o),
(495,10,o),
(422,10,cs),
(199,10,o),
(74,137,o),
(74,365,cs),
(74,593,o),
(199,720,o),
(422,720,cs),
(495,720,o),
(560,707,o),
(626,680,c),
(634,698,l),
(566,726,o),
(497,740,o),
(422,740,cs),
(188,740,o),
(54,604,o),
(54,365,cs),
(54,126,o),
(188,-10,o),
(422,-10,cs)
);
}
);
width = 688;
},
{
anchors = (
{
name = bottom;
pos = (410,0);
},
{
name = cedi;
pos = (336,0);
},
{
name = top;
pos = (410,730);
}
);
background = {
anchors = (
{
name = bottom;
pos = (410,0);
},
{
name = cedi;
pos = (336,0);
},
{
name = top;
pos = (410,730);
}
);
};
layerId = "9527F797-22C1-480E-A1FE-2CDBEBE1FD4C";
shapes = (
{
closed = 1;
nodes = (
(510,-10,o),
(586,6,o),
(658,39,c),
(632,133,l),
(562,104,o),
(496,90,o),
(431,90,cs),
(259,90,o),
(162,189,o),
(162,365,cs),
(162,541,o),
(259,640,o),
(431,640,cs),
(496,640,o),
(562,626,o),
(632,597,c),
(658,691,l),
(587,724,o),
(511,740,o),
(427,740,cs),
(185,740,o),
(48,605,o),
(48,365,cs),
(48,125,o),
(185,-10,o),
(427,-10,cs)
);
}
);
width = 706;
},
{
anchors = (
{
name = bottom;
pos = (408,0);
},
{
name = cedi;
pos = (323,0);
},
{
name = top;
pos = (408,730);
}
);
layerId = "9E6B41AB-2970-4C41-8B35-4DBE0D296A43";
shapes = (
{
closed = 1;
nodes = (
(526,-10,o),
(609,8,o),
(682,46,c),
(639,216,l),
(567,178,o),
(501,160,o),
(441,160,cs),
(319,160,o),
(250,234,o),
(250,365,cs),
(250,496,o),
(319,570,o),
(441,570,cs),
(501,570,o),
(567,552,o),
(639,514,c),
(682,684,l),
(609,722,o),
(526,740,o),
(433,740,cs),
(182,740,o),
(42,606,o),
(42,365,cs),
(42,124,o),
(182,-10,o),
(433,-10,cs)
);
}
);
width = 724;
}
);
metricLeft = "=O";
metricRight = "=H*.6";
unicode = 67;
},
{
glyphname = D;
kernLeft = H;
kernRight = O;
lastChange = "2026-05-25 06:24:41 +0000";
layers = (
{
anchors = (
{
name = bottom;
pos = (315,0);
},
{
name = center;
pos = (315,365);
},
{
name = top;
pos = (315,730);
}
);
layerId = "D65C9A1E-0FCA-4B2D-8EDF-9F36CA9182A1";
shapes = (
{
closed = 1;
nodes = (
(494,-10,o),
(630,121,o),
(630,365,cs),
(630,609,o),
(494,740,o),
(240,740,cs),
(195,740,o),
(150,736,o),
(90,726,c),
(90,4,l),
(150,-6,o),
(195,-10,o),
(240,-10,cs)
);
},
{
closed = 1;
nodes = (
(195,10,o),
(150,14,o),
(93,24,c),
(110,14,l),
(110,716,l),
(93,706,l),
(150,716,o),
(195,720,o),
(240,720,cs),
(483,720,o),
(610,598,o),
(610,365,cs),
(610,132,o),
(483,10,o),
(240,10,cs)
);
}
);
width = 684;
},
{
anchors = (
{
name = bottom;
pos = (330,0);
},
{
name = center;
pos = (330,365);
},
{
name = top;
pos = (330,730);
}
);
layerId = "9527F797-22C1-480E-A1FE-2CDBEBE1FD4C";
shapes = (
{
closed = 1;
nodes = (
(542,-10,o),
(660,107,o),
(660,365,cs),
(660,623,o),
(542,740,o),
(280,740,cs),
(226,740,o),
(152,735,o),
(80,726,c),
(80,4,l),
(152,-5,o),
(226,-10,o),
(280,-10,cs)
);
},
{
closed = 1;
nodes = (
(245,90,o),
(193,94,o),
(137,101,c),
(190,42,l),
(190,688,l),
(137,629,l),
(193,636,o),
(245,640,o),
(287,640,cs),
(473,640,o),
(548,561,o),
(548,365,cs),
(548,169,o),
(473,90,o),
(287,90,cs)
);
}
);
width = 708;
},
{
anchors = (
{
name = bottom;
pos = (345,0);
},
{
name = center;
pos = (345,365);
},
{
name = top;
pos = (345,730);
}
);
layerId = "9E6B41AB-2970-4C41-8B35-4DBE0D296A43";
shapes = (
{
closed = 1;
nodes = (
(589,-10,o),
(690,93,o),
(690,365,cs),
(690,637,o),
(589,740,o),
(320,740,cs),
(255,740,o),
(156,734,o),
(70,726,c),
(70,4,l),
(156,-4,o),
(255,-10,o),
(320,-10,cs)
);
},
{
closed = 1;
nodes = (
(305,150,o),
(261,152,o),
(180,158,c),
(270,70,l),
(270,660,l),
(180,572,l),
(261,578,o),
(305,580,o),
(333,580,cs),
(457,580,o),
(485,540,o),
(485,365,cs),
(485,190,o),
(457,150,o),
(333,150,cs)
);
}
);
width = 732;
}
);
metricLeft = "=H";
metricRight = "=O";
unicode = 68;
},
{
glyphname = Eth;
kernLeft = f;
kernRight = O;
lastChange = "2026-05-25 06:25:52 +0000";
layers = (
{
anchors = (
{
name = bottom;
pos = (383,0);
},
{
name = center;
pos = (383,365);
},
{
name = top;
pos = (383,730);
}
);
layerId = "D65C9A1E-0FCA-4B2D-8EDF-9F36CA9182A1";
shapes = (
{
closed = 1;
nodes = (
(442,355,l),
(442,375,l),
(32,375,l),
(32,355,l)
);
},
{
pos = (47,0);
ref = D;
}
);
width = 731;
},
{
anchors = (
{
name = bottom;
pos = (400,0);
},
{
name = center;
pos = (400,365);
},
{
name = top;
pos = (400,730);
}
);
layerId = "9527F797-22C1-480E-A1FE-2CDBEBE1FD4C";
shapes = (
{
closed = 1;
nodes = (
(447,320,l),
(447,410,l),
(29,410,l),
(29,320,l)
);
},
{
alignment = -1;
pos = (57,0);
ref = D;
}
);
width = 765;
},
{
anchors = (
{
name = bottom;
pos = (414,0);
},
{
name = center;
pos = (414,365);
},
{
name = top;
pos = (414,730);
}
);
layerId = "9E6B41AB-2970-4C41-8B35-4DBE0D296A43";
shapes = (
{
closed = 1;
nodes = (
(451,295,l),
(451,435,l),
(25,435,l),
(25,295,l)
);
},
{
pos = (65,0);
ref = D;
}
);
width = 797;
}
);
metricLeft = "=f*1.2";
metricRight = "=O";
unicode = 208;
},
{
glyphname = E;
kernLeft = H;
kernRight = E;
lastChange = "2026-06-02 03:16:26 +0000";
layers = (
{
anchors = (
{
name = bottom;
pos = (305,0);
},
{
name = ogonek;
pos = (520,0);
},
{
name = top;
pos = (305,730);
},
{
name = topleft;
pos = (-32,730);
}
);
layerId = "D65C9A1E-0FCA-4B2D-8EDF-9F36CA9182A1";
metricRight = "=H*.5";
shapes = (
{
closed = 1;
nodes = (
(520,0,l),
(520,20,l),
(110,20,l),
(110,370,l),
(500,370,l),
(500,390,l),
(110,390,l),
(110,710,l),
(520,710,l),
(520,730,l),
(90,730,l),
(90,0,l)
);
}
);
width = 565;
},
{
anchors = (
{
name = bottom;
pos = (320,0);
},
{
name = ogonek;
pos = (560,0);
},
{
name = top;
pos = (320,730);
},
{
name = topleft;
pos = (-6,730);
}
);
background = {
anchors = (
{
name = bottom;
pos = (320,0);
},
{
name = ogonek;
pos = (560,0);
},
{
name = top;
pos = (320,730);
},
{
name = topleft;
pos = (-6,730);
}
);
};
layerId = "9527F797-22C1-480E-A1FE-2CDBEBE1FD4C";
metricRight = "=H*.7";
shapes = (
{
closed = 1;
nodes = (
(560,0,l),
(560,98,l),
(190,98,l),
(190,327,l),
(540,327,l),
(540,423,l),
(190,423,l),
(190,632,l),
(560,632,l),
(560,730,l),
(80,730,l),
(80,0,l)
);
}
);
width = 616;
},
{
anchors = (
{
name = bottom;
pos = (345,0);
},
{
name = ogonek;
pos = (600,0);
},
{
name = top;
pos = (345,730);
},
{
name = topleft;
pos = (20,730);
}
);
layerId = "9E6B41AB-2970-4C41-8B35-4DBE0D296A43";
metricRight = "=H*.9";
shapes = (
{
closed = 1;
nodes = (
(600,0,l),
(600,160,l),
(270,160,l),
(270,292,l),
(580,292,l),
(580,446,l),
(270,446,l),
(270,570,l),
(600,570,l),
(600,730,l),
(70,730,l),
(70,0,l)
);
}
);
width = 663;
}
);
metricLeft = "=H";
metricRight = "=H*.85";
unicode = 69;
},
{
glyphname = Schwa;
kernLeft = O;
kernRight = O;
lastChange = "2026-05-25 06:25:24 +0000";
layers = (
{
layerId = "D65C9A1E-0FCA-4B2D-8EDF-9F36CA9182A1";
shapes = (
{
closed = 1;
nodes = (
(256,740,o),
(158,716,o),
(82,676,c),
(91,658,l),
(166,698,o),
(261,720,o),
(352,720,cs),
(572,720,o),
(692,596,o),
(692,365,c),
(692,365,l),
(692,139,o),
(578,10,o),
(382,10,cs),
(186,10,o),
(72,139,o),
(72,365,c),
(56,348,l),
(702,348,l),
(702,368,l),
(51,368,l),
(51,366,o),
(51,366,o),
(51,365,cs),
(51,129,o),
(174,-10,o),
(382,-10,cs),
(590,-10,o),
(712,129,o),
(712,365,cs),
(712,606,o),
(584,740,o),
(352,740,cs)
);
}
);
width = 766;
},
{
layerId = "9527F797-22C1-480E-A1FE-2CDBEBE1FD4C";
shapes = (
{
closed = 1;
nodes = (
(250,740,o),
(156,720,o),
(87,688,c),
(112,588,l),
(186,622,o),
(268,640,o),
(348,640,cs),
(529,640,o),
(616,559,o),
(616,396,c),
(616,354,l),
(616,180,o),
(536,90,o),
(386,90,cs),
(236,90,o),
(156,180,o),
(156,354,c),
(115,314,l),
(648,314,l),
(648,413,l),
(49,413,l),
(47,403,o),
(46,377,o),
(46,358,cs),
(46,126,o),
(171,-10,o),
(383,-10,cs),
(598,-10,o),
(726,130,o),
(726,365,cs),
(726,606,o),
(589,740,o),
(341,740,cs)
);
}
);
width = 774;
},
{
layerId = "9E6B41AB-2970-4C41-8B35-4DBE0D296A43";
shapes = (
{
closed = 1;
nodes = (
(243,740,o),
(153,725,o),
(92,701,c),
(127,536,l),
(198,559,o),
(268,570,o),
(343,570,cs),
(485,570,o),
(540,531,o),
(540,430,cs),
(540,343,ls),
(540,215,o),
(494,160,o),
(390,160,cs),
(286,160,o),
(240,215,o),
(240,343,c),
(173,290,l),
(594,290,l),
(594,448,l),
(45,448,l),
(42,433,o),
(40,384,o),
(40,351,cs),
(40,123,o),
(167,-10,o),
(383,-10,cs),
(605,-10,o),
(740,131,o),
(740,365,cs),
(740,606,o),
(593,740,o),
(330,740,cs)
);
}
);
width = 782;
}
);
metricLeft = "=O*.95";
metricRight = "=O";
unicode = 399;
},
{
glyphname = F;
kernLeft = H;
kernRight = F;
lastChange = "2026-05-25 06:25:24 +0000";
layers = (
{
layerId = "D65C9A1E-0FCA-4B2D-8EDF-9F36CA9182A1";
metricRight = "=H*.3";
shapes = (
{
closed = 1;
nodes = (
(110,0,l),
(110,355,l),
(530,355,l),
(530,375,l),
(110,375,l),
(110,710,l),
(550,710,l),
(550,730,l),
(90,730,l),
(90,0,l)
);
}
);
width = 577;
},
{
layerId = "9527F797-22C1-480E-A1FE-2CDBEBE1FD4C";
metricRight = "=H*.4";
shapes = (
{
closed = 1;
nodes = (
(190,0,l),
(190,309,l),
(560,309,l),
(560,407,l),
(190,407,l),
(190,630,l),
(580,630,l),
(580,730,l),
(80,730,l),
(80,0,l)
);
}
);
width = 612;
},
{
layerId = "9E6B41AB-2970-4C41-8B35-4DBE0D296A43";
metricRight = "=H*.5";
shapes = (
{
closed = 1;
nodes = (
(270,0,l),
(270,270,l),
(590,270,l),
(590,430,l),
(270,430,l),
(270,565,l),
(610,565,l),
(610,730,l),
(70,730,l),
(70,0,l)
);
}
);
width = 645;
}
);
metricLeft = "=H";
metricRight = "=H*.75";
unicode = 70;
},
{
glyphname = G;
kernLeft = O;
kernRight = G;
lastChange = "2026-05-25 06:25:24 +0000";
layers = (
{
anchors = (
{
name = bottom;
pos = (388,0);
},
{
name = top;
pos = (388,730);
}
);
background = {
anchors = (
{
name = bottom;
pos = (391,0);
},
{
name = top;
pos = (391,730);
}
);
};
layerId = "9527F797-22C1-480E-A1FE-2CDBEBE1FD4C";
metricRight = "=H*.8";
shapes = (
{
closed = 1;
nodes = (
(542,-10,o),
(637,10,o),
(708,47,c),
(708,423,l),
(353,423,l),
(353,327,l),
(598,327,l),
(598,88,l),
(615,120,l),
(566,101,o),
(507,90,o),
(446,90,cs),
(264,90,o),
(166,186,o),
(166,365,cs),
(166,543,o),
(263,640,o),
(440,640,cs),
(507,640,o),
(585,626,o),
(646,602,c),
(670,691,l),
(600,724,o),
(524,740,o),
(440,740,cs),
(192,740,o),
(48,602,o),
(48,365,cs),
(48,127,o),
(194,-10,o),
(446,-10,cs)
);
}
);
width = 772;
},
{
anchors = (
{
name = bottom;
pos = (412,0);
},
{
name = top;
pos = (412,730);
}
);
layerId = "9E6B41AB-2970-4C41-8B35-4DBE0D296A43";
metricRight = "=H*.9";
shapes = (
{
closed = 1;
nodes = (
(550,-10,o),
(649,11,o),
(722,50,c),
(722,446,l),
(362,446,l),
(362,292,l),
(522,292,l),
(522,131,l),
(545,177,l),
(514,161,o),
(489,155,o),
(450,155,cs),
(318,155,o),
(252,225,o),
(252,365,cs),
(252,503,o),
(317,575,o),
(439,575,cs),
(505,575,o),
(583,554,o),
(633,524,c),
(675,684,l),
(611,721,o),
(531,740,o),
(439,740,cs),
(190,740,o),
(42,600,o),
(42,365,cs),
(42,128,o),
(193,-10,o),
(450,-10,cs)
);
}
);
width = 785;
},
{
anchors = (
{
name = bottom;
pos = (385,0);
},
{
name = top;
pos = (385,730);
}
);
background = {
anchors = (
{
name = bottom;
pos = (392,0);
},
{
name = top;
pos = (392,730);
}
);
shapes = (
{
closed = 1;
nodes = (
(526,-10,o),
(626,11,o),
(694,44,c),
(694,390,l),
(344,390,l),
(344,370,l),
(674,370,l),
(674,45,l),
(685,62,l),
(620,30,o),
(523,10,o),
(436,10,cs),
(211,10,o),
(74,145,o),
(74,365,cs),
(74,585,o),
(211,720,o),
(436,720,cs),
(521,720,o),
(594,701,o),
(656,663,c),
(666,680,l),
(601,720,o),
(524,740,o),
(436,740,cs),
(200,740,o),
(54,596,o),
(54,365,cs),
(54,134,o),
(200,-10,o),
(436,-10,cs)
);
}
);
};
layerId = "D65C9A1E-0FCA-4B2D-8EDF-9F36CA9182A1";
metricRight = "=H*.7";
name = Thin;
shapes = (
{
closed = 1;
nodes = (
(537,-10,o),
(627,10,o),
(694,44,c),
(694,390,l),
(344,390,l),
(344,370,l),
(674,370,l),
(674,45,l),
(685,62,l),
(620,29,o),
(535,10,o),
(442,10,cs),
(206,10,o),
(74,137,o),
(74,365,cs),
(74,593,o),
(206,720,o),
(442,720,cs),
(516,720,o),
(585,707,o),
(659,679,c),
(666,698,l),
(590,727,o),
(518,740,o),
(442,740,cs),
(195,740,o),
(54,604,o),
(54,365,cs),
(54,126,o),
(195,-10,o),
(442,-10,cs)
);
}
);
width = 757;
}
);
metricLeft = "=O";
metricRight = "=H*.9";
unicode = 71;
},
{
glyphname = H;
kernLeft = H;
kernRight = H;
lastChange = "2026-05-25 06:21:36 +0000";
layers = (
{
anchors = (
{
name = bottom;
pos = (345,0);
},
{
name = center;
pos = (345,365);
},
{
name = top;
pos = (345,730);
},
{
name = topleft;
pos = (-5,730);
}
);
layerId = "D65C9A1E-0FCA-4B2D-8EDF-9F36CA9182A1";
shapes = (
{
closed = 1;
nodes = (
(600,0,l),
(600,730,l),
(580,730,l),
(580,0,l)
);
},
{
closed = 1;
nodes = (
(110,0,l),
(110,730,l),
(90,730,l),
(90,0,l)
);
},
{
closed = 1;
nodes = (
(590,370,l),
(590,390,l),
(100,390,l),
(100,370,l)
);
}
);
width = 690;
},
{
anchors = (
{
name = bottom;
pos = (360,0);
},
{
name = center;
pos = (360,365);
},
{
name = top;
pos = (360,730);
},
{
name = topleft;
pos = (5,730);
}
);
background = {
anchors = (
{
name = bottom;
pos = (360,0);
},
{
name = center;
pos = (360,365);
},
{
name = top;
pos = (360,730);
},
{
name = topleft;
pos = (5,730);
}
);
};
layerId = "9527F797-22C1-480E-A1FE-2CDBEBE1FD4C";
shapes = (
{
closed = 1;
nodes = (
(640,0,l),
(640,730,l),
(530,730,l),
(530,0,l)
);
},
{
closed = 1;
nodes = (
(190,0,l),
(190,730,l),
(80,730,l),
(80,0,l)
);
},
{
closed = 1;
nodes = (
(585,325,l),
(585,425,l),
(135,425,l),
(135,325,l)
);
}
);
width = 720;
},
{
anchors = (
{
name = bottom;
pos = (375,0);
},
{
name = center;
pos = (375,365);
},
{
name = top;
pos = (375,730);
},
{
name = topleft;
pos = (15,730);
}
);
layerId = "9E6B41AB-2970-4C41-8B35-4DBE0D296A43";
shapes = (
{
closed = 1;
nodes = (
(680,0,l),
(680,730,l),
(480,730,l),
(480,0,l)
);
},
{
closed = 1;
nodes = (
(270,0,l),
(270,730,l),
(70,730,l),
(70,0,l)
);
},
{
closed = 1;
nodes = (
(580,284,l),
(580,454,l),
(170,454,l),
(170,284,l)
);
}
);
width = 750;
}
);
metricRight = "=|";
unicode = 72;
},
{
glyphname = Hbar;
kernLeft = W;
kernRight = W;
lastChange = "2026-05-25 06:26:05 +0000";
layers = (
{
layerId = "D65C9A1E-0FCA-4B2D-8EDF-9F36CA9182A1";
shapes = (
{
closed = 1;
nodes = (
(758,586,l),
(758,606,l),
(18,606,l),
(18,586,l)
);
},
{
pos = (43,0);
ref = H;
}
);
width = 776;
},
{
layerId = "9527F797-22C1-480E-A1FE-2CDBEBE1FD4C";
shapes = (
{
closed = 1;
nodes = (
(798,551,l),
(798,641,l),
(24,641,l),
(24,551,l)
);
},
{
alignment = -1;
pos = (61,0);
ref = H;
}
);
width = 822;
},
{
layerId = "9E6B41AB-2970-4C41-8B35-4DBE0D296A43";
shapes = (
{
closed = 1;
nodes = (
(831,526,l),
(831,666,l),
(21,666,l),
(21,526,l)
);
},
{
pos = (61,0);
ref = H;
}
);
width = 852;
}
);
metricLeft = "=W";
metricRight = "=|";
unicode = 294;
},
{
glyphname = I;
kernLeft = I;
kernRight = I;
lastChange = "2026-05-25 06:22:09 +0000";
layers = (
{
anchors = (
{
name = bottom;
pos = (109,0);
},
{
name = ogonek;
pos = (119,0);
},
{
name = top;
pos = (109,730);
},
{
name = topleft;
pos = (14,730);
}
);
layerId = "D65C9A1E-0FCA-4B2D-8EDF-9F36CA9182A1";
shapes = (
{
closed = 1;
nodes = (
(119,0,l),
(119,730,l),
(99,730,l),
(99,0,l)
);
}
);
width = 218;
},
{
anchors = (
{
name = bottom;
pos = (145,0);
},
{
name = ogonek;
pos = (202,0);
},
{
name = top;
pos = (145,730);
},
{
name = topleft;
pos = (20,730);
}
);
layerId = "9527F797-22C1-480E-A1FE-2CDBEBE1FD4C";
shapes = (
{
closed = 1;
nodes = (
(202,0,l),
(202,730,l),
(88,730,l),
(88,0,l)
);
}
);
width = 290;
},
{
anchors = (
{
name = bottom;
pos = (182,0);
},
{
name = ogonek;
pos = (287,0);
},
{
name = top;
pos = (182,730);
},
{
name = topleft;
pos = (25,730);
}
);
layerId = "9E6B41AB-2970-4C41-8B35-4DBE0D296A43";
shapes = (
{
closed = 1;
nodes = (
(287,0,l),
(287,730,l),
(77,730,l),
(77,0,l)
);
}
);
width = 364;
}
);
metricLeft = "=H*1.1";
metricRight = "=|";
unicode = 73;
},
{
glyphname = J;
kernLeft = I;
kernRight = I;
lastChange = "2026-06-02 03:26:13 +0000";
layers = (
{
anchors = (
{
name = bottom;
pos = (169,0);
},
{
name = top;
pos = (156,730);
}
);
background = {
anchors = (
{
name = bottom;
pos = (171,0);
},
{
name = top;
pos = (171,730);
}
);
shapes = (
{
closed = 1;
nodes = (
(147,-92,o),
(238,22,o),
(238,290,cs),
(238,730,l),
(126,730,l),
(126,311,ls),
(126,75,o),
(68,-4,o),
(-132,-37,c),
(-102,-133,l)
);
}
);
};
layerId = "9527F797-22C1-480E-A1FE-2CDBEBE1FD4C";
metricLeft = "=I-220";
shapes = (
{
closed = 1;
nodes = (
(140,-171,o),
(223,-65,o),
(223,198,cs),
(223,730,l),
(111,730,l),
(111,198,ls),
(111,-14,o),
(58,-84,o),
(-132,-122,c),
(-102,-218,l)
);
}
);
width = 311;
},
{
anchors = (
{
name = bottom;
pos = (208,0);
},
{
name = top;
pos = (182,730);
}
);
layerId = "9E6B41AB-2970-4C41-8B35-4DBE0D296A43";
metricLeft = "=I-190";
shapes = (
{
closed = 1;
nodes = (
(208,-166,o),
(297,-56,o),
(297,217,cs),
(297,730,l),
(92,730,l),
(92,217,ls),
(92,32,o),
(59,-11,o),
(-113,-48,c),
(-55,-218,l)
);
}
);
width = 374;
},
{
anchors = (
{
name = bottom;
pos = (129,0);
},
{
name = top;
pos = (129,730);
}
);
layerId = "D65C9A1E-0FCA-4B2D-8EDF-9F36CA9182A1";
metricLeft = "=I-250";
shapes = (
{
closed = 1;
nodes = (
(72,-177,o),
(149,-71,o),
(149,178,cs),
(149,730,l),
(129,730,l),
(129,178,ls),
(129,-62,o),
(57,-159,o),
(-151,-198,c),
(-147,-218,l)
);
}
);
width = 248;
}
);
metricLeft = "=I";
metricRight = "=I";
unicode = 74;
},
{
glyphname = K;
kernLeft = H;
kernRight = K;
lastChange = "2026-05-25 06:25:24 +0000";
layers = (
{
anchors = (
{
name = bottom;
pos = (330,0);
},
{
name = top;
pos = (330,730);
}
);
background = {
shapes = (
{
closed = 1;
nodes = (
(103,324,l),
(620,730,l),
(588,730,l),
(92,341,l)
);
},
{
closed = 1;
nodes = (
(110,0,l),
(110,730,l),
(90,730,l),
(90,0,l)
);
},
{
closed = 1;
nodes = (
(630,0,l),
(173,400,l),
(161,384,l),
(600,0,l)
);
}
);
};
layerId = "D65C9A1E-0FCA-4B2D-8EDF-9F36CA9182A1";
shapes = (
{
closed = 1;
nodes = (
(110,0,l),
(110,329,l),
(170,376,l),
(170,376,l),
(600,0,l),
(630,0,l),
(186,389,l),
(620,730,l),
(588,730,l),
(112,356,l),
(110,356,l),
(110,730,l),
(90,730,l),
(90,0,l)
);
}
);
width = 639;
},
{
anchors = (
{
name = bottom;
pos = (360,0);
},
{
name = top;
pos = (360,730);
}
);
background = {
anchors = (
{
name = bottom;
pos = (360,0);
},
{
name = top;
pos = (360,730);
}
);
};
layerId = "9527F797-22C1-480E-A1FE-2CDBEBE1FD4C";
shapes = (
{
closed = 1;
nodes = (
(190,0,l),
(190,267,l),
(241,319,l),
(241,319,l),
(544,0,l),
(680,0,l),
(324,392,l),
(670,730,l),
(534,730,l),
(192,408,l),
(190,408,l),
(190,730,l),
(80,730,l),
(80,0,l)
);
}
);
width = 688;
},
{
anchors = (
{
name = bottom;
pos = (380,0);
},
{
name = top;
pos = (380,730);
}
);
background = {
shapes = (
{
closed = 1;
nodes = (
(375,281,l),
(720,730,l),
(490,730,l),
(203,365,l),
(197,109,l),
(343,299,l)
);
},
{
closed = 1;
nodes = (
(270,730,l),
(70,730,l),
(70,0,l),
(270,0,l)
);
},
{
closed = 1;
nodes = (
(222,408,l),
(500,0,l),
(730,0,l),
(452,408,l)
);
}
);
};
layerId = "9E6B41AB-2970-4C41-8B35-4DBE0D296A43";
shapes = (
{
closed = 1;
nodes = (
(270,0,l),
(270,204,l),
(318,267,l),
(320,267,l),
(500,0,l),
(730,0,l),
(462,394,l),
(720,730,l),
(490,730,l),
(272,450,l),
(270,450,l),
(270,730,l),
(70,730,l),
(70,0,l)
);
}
);
width = 737;
}
);
metricLeft = "=H";
metricRight = "=H*.1";
unicode = 75;
},
{
glyphname = L;
kernLeft = H;
kernRight = L;
lastChange = "2026-05-25 06:25:24 +0000";
layers = (
{
anchors = (
{
name = bottom;
pos = (315,0);
},
{
name = center;
pos = (302,375);
},
{
name = pdcenter;
pos = (530,375);
},
{
name = top;
pos = (260,730);
},
{
name = topright;
pos = (573,730);
}
);
layerId = "D65C9A1E-0FCA-4B2D-8EDF-9F36CA9182A1";
shapes = (
{
closed = 1;
nodes = (
(560,0,l),
(560,20,l),
(110,20,l),
(110,730,l),
(90,730,l),
(90,0,l)
);
}
);
width = 596;
},
{
anchors = (
{
name = bottom;
pos = (325,0);
},
{
name = center;
pos = (313,375);
},
{
name = pdcenter;
pos = (530,375);
},
{
name = top;
pos = (295,730);
},
{
name = topright;
pos = (606,730);
}
);
layerId = "9527F797-22C1-480E-A1FE-2CDBEBE1FD4C";
shapes = (
{
closed = 1;
nodes = (
(590,0,l),
(590,100,l),
(193,100,l),
(193,730,l),
(80,730,l),
(80,0,l)
);
}
);
width = 622;
},
{
anchors = (
{
name = bottom;
pos = (335,0);
},
{
name = center;
pos = (326,375);
},
{
name = pdcenter;
pos = (530,375);
},
{
name = top;
pos = (320,730);
},
{
name = topright;
pos = (621,730);
}
);
layerId = "9E6B41AB-2970-4C41-8B35-4DBE0D296A43";
shapes = (
{
closed = 1;
nodes = (
(620,0,l),
(620,170,l),
(275,170,l),
(275,730,l),
(70,730,l),
(70,0,l)
);
}
);
width = 648;
}
);
metricLeft = "=H";
metricRight = "=H*.4";
unicode = 76;
},
{
glyphname = LJ;
kernLeft = H;
kernRight = U;
lastChange = "2026-05-25 06:25:24 +0000";
layers = (
{
anchors = (
{
name = bottom;
pos = (302,0);
},
{
name = center;
pos = (302,375);
},
{
name = pdcenter;
pos = (530,375);
},
{
name = top;
pos = (302,730);
},
{
name = topright;
pos = (573,730);
}
);
layerId = "D65C9A1E-0FCA-4B2D-8EDF-9F36CA9182A1";
shapes = (
{
closed = 1;
nodes = (
(360,0,l),
(360,20,l),
(110,20,l),
(110,730,l),
(90,730,l),
(90,0,l)
);
},
{
pos = (356,0);
ref = J;
}
);
width = 604;
},
{
anchors = (
{
name = bottom;
pos = (314,0);
},
{
name = center;
pos = (314,375);
},
{
name = pdcenter;
pos = (530,375);
},
{
name = top;
pos = (314,730);
},
{
name = topright;
pos = (597,730);
}
);
layerId = "9527F797-22C1-480E-A1FE-2CDBEBE1FD4C";
shapes = (
{
closed = 1;
nodes = (
(400,0,l),
(400,100,l),
(193,100,l),
(193,730,l),
(80,730,l),
(80,0,l)
);
},
{
pos = (400,0);
ref = J;
}
);
width = 711;
},
{
anchors = (
{
name = bottom;
pos = (326,0);
},
{
name = center;
pos = (326,375);
},
{
name = pdcenter;
pos = (530,375);
},
{
name = top;
pos = (326,730);
},
{
name = topright;
pos = (621,730);
}
);
layerId = "9E6B41AB-2970-4C41-8B35-4DBE0D296A43";
name = Black;
shapes = (
{
closed = 1;
nodes = (
(440,0,l),
(440,170,l),
(275,170,l),
(275,730,l),
(70,730,l),
(70,0,l)
);
},
{
pos = (444,0);
ref = J;
}
);
width = 818;
},
{
associatedMasterId = "9E6B41AB-2970-4C41-8B35-4DBE0D296A43";
layerId = "8C0C6916-A712-4D80-BA15-D9AC41425293";
name = "Apr 14, 26 at 16:01";
shapes = (
{
ref = L;
},
{
pos = (654,0);
ref = J;
}
);
width = 1006;
},
{
associatedMasterId = "D65C9A1E-0FCA-4B2D-8EDF-9F36CA9182A1";
layerId = "2DC086B4-9C92-4DC4-8653-38BD219805BB";
name = "Apr 14, 26 at 16:02";
shapes = (
{
ref = L;
},
{
pos = (596,0);
ref = J;
}
);
width = 844;
},
{
associatedMasterId = "9527F797-22C1-480E-A1FE-2CDBEBE1FD4C";
layerId = "63531BA3-F63E-4656-AA7D-A57F195CA568";
name = "Apr 14, 26 at 16:02";
shapes = (
{
ref = L;
},
{
pos = (618,0);
ref = J;
}
);
width = 907;
}
);
metricLeft = "=H";
metricRight = "=J";
unicode = 455;
},
{
glyphname = Lj;
kernLeft = H;
kernRight = g;
lastChange = "2026-05-25 06:26:05 +0000";
layers = (
{
anchors = (
{
name = bottom;
pos = (302,0);
},
{
name = center;
pos = (302,375);
},
{
name = pdcenter;
pos = (530,375);
},
{
name = top;
pos = (302,730);
},
{
name = topright;
pos = (573,730);
}
);
layerId = "D65C9A1E-0FCA-4B2D-8EDF-9F36CA9182A1";
shapes = (
{
closed = 1;
nodes = (
(360,0,l),
(360,20,l),
(110,20,l),
(110,730,l),
(90,730,l),
(90,0,l)
);
},
{
pos = (296,0);
ref = j;
}
);
width = 586;
},
{
anchors = (
{
name = bottom;
pos = (313,0);
},
{
name = center;
pos = (313,375);
},
{
name = pdcenter;
pos = (530,375);
},
{
name = top;
pos = (313,730);
},
{
name = topright;
pos = (606,730);
}
);
layerId = "9527F797-22C1-480E-A1FE-2CDBEBE1FD4C";
shapes = (
{
closed = 1;
nodes = (
(400,0,l),
(400,100,l),
(193,100,l),
(193,730,l),
(80,730,l),
(80,0,l)
);
},
{
alignment = -1;
pos = (355,0);
ref = j;
}
);
width = 695;
},
{
anchors = (
{
name = bottom;
pos = (326,0);
},
{
name = center;
pos = (326,375);
},
{
name = pdcenter;
pos = (530,375);
},
{
name = top;
pos = (326,730);
},
{
name = topright;
pos = (621,730);
}
);
layerId = "9E6B41AB-2970-4C41-8B35-4DBE0D296A43";
shapes = (
{
closed = 1;
nodes = (
(440,0,l),
(440,170,l),
(275,170,l),
(275,730,l),
(70,730,l),
(70,0,l)
);
},
{
pos = (404,0);
ref = j;
}
);
width = 783;
},
{
associatedMasterId = "9E6B41AB-2970-4C41-8B35-4DBE0D296A43";
layerId = "989522DA-539B-4617-9CBC-CF498C6AB23B";
name = "Apr 14, 26 at 16:05";
shapes = (
{
alignment = -1;
ref = L;
},
{
alignment = -1;
pos = (634,0);
ref = j;
}
);
width = 922;
},
{
associatedMasterId = "D65C9A1E-0FCA-4B2D-8EDF-9F36CA9182A1";
layerId = "EFFA3D9B-FEB8-4D1E-8D90-22C4479270D9";
name = "Apr 14, 26 at 16:10";
shapes = (
{
ref = L;
},
{
pos = (596,0);
ref = j;
}
);
width = 886;
},
{
associatedMasterId = "9527F797-22C1-480E-A1FE-2CDBEBE1FD4C";
layerId = "885C68DC-23BD-4714-B32A-37FF9C4C442B";
name = "Apr 14, 26 at 16:11";
shapes = (
{
alignment = -1;
ref = L;
},
{
alignment = -1;
pos = (633,0);
ref = j;
}
);
width = 933;
}
);
metricLeft = "=H";
metricRight = "=j";
unicode = 456;
},
{
glyphname = Lslash;
kernLeft = t;
kernRight = L;
lastChange = "2026-05-25 06:25:39 +0000";
layers = (
{
layerId = "D65C9A1E-0FCA-4B2D-8EDF-9F36CA9182A1";
metricLeft = "=f*.9";
shapes = (
{
closed = 1;
nodes = (
(362,431,l),
(354,449,l),
(24,299,l),
(32,281,l)
);
},
{
pos = (68,0);
ref = L;
}
);
width = 664;
},
{
layerId = "9527F797-22C1-480E-A1FE-2CDBEBE1FD4C";
metricLeft = "=f*.5";
shapes = (
{
closed = 1;
nodes = (
(448,407,l),
(412,491,l),
(12,323,l),
(48,239,l)
);
},
{
pos = (82,0);
ref = L;
}
);
width = 704;
},
{
layerId = "9E6B41AB-2970-4C41-8B35-4DBE0D296A43";
metricLeft = "=f*.1";
shapes = (
{
closed = 1;
nodes = (
(526,393,l),
(471,523,l),
(2,337,l),
(57,207,l)
);
},
{
pos = (94,0);
ref = L;
}
);
width = 742;
}
);
metricLeft = "=t*.5";
metricRight = "=L";
unicode = 321;
},
{
glyphname = M;
kernLeft = M;
kernRight = M;
lastChange = "2026-06-04 06:37:49 +0000";
layers = (
{
background = {
shapes = (
{
closed = 1;
nodes = (
(92,0,l),
(157,707,l),
(159,707,l),
(218,487,o),
(309,293,o),
(437,108,c),
(453,120,l),
(322,309,o),
(234,503,o),
(175,730,c),
(140,730,l),
(72,0,l)
);
},
{
closed = 1;
nodes = (
(406,0,l),
(705,707,l),
(707,707,l),
(772,0,l),
(792,0,l),
(724,730,l),
(694,730,l),
(384,0,l)
);
}
);
};
layerId = "D65C9A1E-0FCA-4B2D-8EDF-9F36CA9182A1";
metricLeft = "=A*4.0";
shapes = (
{
closed = 1;
nodes = (
(92,0,l),
(157,707,l),
(159,707,l),
(209,490,o),
(289,280,o),
(410,51,c),
(428,60,l),
(303,296,o),
(223,508,o),
(175,730,c),
(140,730,l),
(72,0,l)
);
},
{
closed = 1;
nodes = (
(406,0,l),
(705,707,l),
(707,707,l),
(772,0,l),
(792,0,l),
(724,730,l),
(694,730,l),
(384,0,l)
);
}
);
width = 864;
},
{
background = {
shapes = (
{
closed = 1;
nodes = (
(170,0,l),
(217,589,l),
(219,589,l),
(260,386,o),
(314,226,o),
(401,38,c),
(469,81,l),
(372,310,o),
(310,523,o),
(276,730,c),
(128,730,l),
(60,0,l)
);
},
{
closed = 1;
nodes = (
(475,0,l),
(671,589,l),
(673,589,l),
(720,0,l),
(830,0,l),
(762,730,l),
(617,730,l),
(370,0,l)
);
}
);
};
layerId = "9527F797-22C1-480E-A1FE-2CDBEBE1FD4C";
metricLeft = "=A*5";
shapes = (
{
closed = 1;
nodes = (
(172,0,l),
(216,587,l),
(218,587,l),
(259,380,o),
(312,219,o),
(399,38,c),
(485,85,l),
(392,301,o),
(328,516,o),
(293,730,c),
(128,730,l),
(60,0,l)
);
},
{
closed = 1;
nodes = (
(478,0,l),
(672,587,l),
(674,587,l),
(718,0,l),
(830,0,l),
(762,730,l),
(617,730,l),
(366,0,l)
);
}
);
width = 890;
},
{
background = {
shapes = (
{
closed = 1;
nodes = (
(242,0,l),
(270,471,l),
(272,471,l),
(308,292,o),
(342,178,o),
(405,24,c),
(524,102,l),
(446,322,o),
(393,538,o),
(370,730,c),
(110,730,l),
(42,0,l)
);
},
{
closed = 1;
nodes = (
(537,0,l),
(631,471,l),
(633,471,l),
(662,0,l),
(862,0,l),
(794,730,l),
(534,730,l),
(349,0,l)
);
}
);
};
layerId = "9E6B41AB-2970-4C41-8B35-4DBE0D296A43";
metricLeft = "=A*6.0";
name = Black;
shapes = (
{
closed = 1;
nodes = (
(242,0,l),
(270,471,l),
(272,471,l),
(305,282,o),
(333,171,o),
(385,24,c),
(504,102,l),
(436,322,o),
(390,538,o),
(370,730,c),
(110,730,l),
(42,0,l)
);
},
{
closed = 1;
nodes = (
(537,0,l),
(631,471,l),
(633,471,l),
(662,0,l),
(862,0,l),
(794,730,l),
(534,730,l),
(349,0,l)
);
}
);
width = 904;
}
);
metricLeft = "=H";
metricRight = "=|";
unicode = 77;
},
{
glyphname = N;
kernLeft = H;
kernRight = H;
lastChange = "2026-05-25 06:25:24 +0000";
layers = (
{
anchors = (
{
name = bottom;
pos = (360,0);
},
{
name = top;
pos = (360,730);
}
);
layerId = "D65C9A1E-0FCA-4B2D-8EDF-9F36CA9182A1";
shapes = (
{
closed = 1;
nodes = (
(110,0,l),
(110,709,l),
(112,709,l),
(599,0,l),
(630,0,l),
(630,730,l),
(610,730,l),
(610,21,l),
(608,21,l),
(121,730,l),
(90,730,l),
(90,0,l)
);
}
);
width = 720;
},
{
anchors = (
{
name = bottom;
pos = (370,0);
},
{
name = top;
pos = (370,730);
}
);
layerId = "9527F797-22C1-480E-A1FE-2CDBEBE1FD4C";
shapes = (
{
closed = 1;
nodes = (
(190,0,l),
(190,550,l),
(192,550,l),
(540,0,l),
(660,0,l),
(660,730,l),
(550,730,l),
(550,180,l),
(548,180,l),
(200,730,l),
(80,730,l),
(80,0,l)
);
}
);
width = 740;
},
{
anchors = (
{
name = bottom;
pos = (380,0);
},
{
name = top;
pos = (380,730);
}
);
layerId = "9E6B41AB-2970-4C41-8B35-4DBE0D296A43";
shapes = (
{
closed = 1;
nodes = (
(270,0,l),
(270,390,l),
(272,390,l),
(490,0,l),
(690,0,l),
(690,730,l),
(490,730,l),
(490,340,l),
(488,340,l),
(270,730,l),
(70,730,l),
(70,0,l)
);
}
);
width = 760;
}
);
metricLeft = "=H";
metricRight = "=|";
unicode = 78;
},
{
glyphname = Eng;
kernLeft = H;
kernRight = H;
lastChange = "2026-05-25 06:25:39 +0000";
layers = (
{
anchors = (
{
name = bottom;
pos = (360,0);
},
{
name = top;
pos = (360,730);
}
);
background = {
shapes = (
{
ref = N;
}
);
};
layerId = "D65C9A1E-0FCA-4B2D-8EDF-9F36CA9182A1";
shapes = (
{
closed = 1;
nodes = (
(587,-211,o),
(630,-164,o),
(630,-61,cs),
(630,730,l),
(610,730,l),
(610,21,l),
(608,21,l),
(121,730,l),
(90,730,l),
(90,0,l),
(110,0,l),
(110,709,l),
(112,709,l),
(621,-32,l),
(610,0,l),
(610,-61,ls),
(610,-153,o),
(575,-191,o),
(490,-191,cs),
(465,-191,o),
(439,-186,o),
(417,-177,c),
(410,-196,l),
(434,-205,o),
(463,-211,o),
(490,-211,cs)
);
}
);
width = 720;
},
{
anchors = (
{
name = bottom;
pos = (370,0);
},
{
name = top;
pos = (370,730);
}
);
background = {
shapes = (
{
pos = (10,0);
ref = N;
}
);
};
layerId = "9527F797-22C1-480E-A1FE-2CDBEBE1FD4C";
shapes = (
{
closed = 1;
nodes = (
(608,-221,o),
(660,-163,o),
(660,-26,cs),
(660,730,l),
(550,730,l),
(550,180,l),
(548,180,l),
(200,730,l),
(80,730,l),
(80,0,l),
(190,0,l),
(190,550,l),
(192,550,l),
(566,-41,l),
(552,9,l),
(552,-26,ls),
(552,-97,o),
(526,-126,o),
(462,-126,cs),
(437,-126,o),
(411,-122,o),
(387,-114,c),
(370,-205,l),
(408,-216,o),
(446,-221,o),
(484,-221,cs)
);
}
);
width = 740;
},
{
anchors = (
{
name = bottom;
pos = (380,0);
},
{
name = top;
pos = (380,730);
}
);
background = {
shapes = (
{
pos = (10,0);
ref = N;
}
);
};
layerId = "9E6B41AB-2970-4C41-8B35-4DBE0D296A43";
shapes = (
{
closed = 1;
nodes = (
(635,-229,o),
(690,-169,o),
(690,0,cs),
(690,730,l),
(490,730,l),
(490,340,l),
(488,340,l),
(270,730,l),
(70,730,l),
(70,0,l),
(270,0,l),
(270,390,l),
(272,390,l),
(534,-79,l),
(490,90,l),
(490,0,l),
(490,-55,o),
(478,-70,o),
(435,-70,cs),
(414,-70,o),
(380,-66,o),
(352,-59,c),
(332,-214,l),
(380,-223,o),
(430,-229,o),
(478,-229,cs)
);
}
);
width = 760;
}
);
metricLeft = "=N";
metricRight = "=N";
unicode = 330;
},
{
glyphname = O;
kernLeft = O;
kernRight = O;
lastChange = "2026-06-02 03:13:58 +0000";
layers = (
{
anchors = (
{
name = bottom;
pos = (394,0);
},
{
name = center;
pos = (394,365);
},
{
name = ogonek;
pos = (454,0);
},
{
name = top;
pos = (394,730);
},
{
name = topleft;
pos = (26,730);
},
{
name = topright;
pos = (591,640);
}
);
layerId = "D65C9A1E-0FCA-4B2D-8EDF-9F36CA9182A1";
shapes = (
{
closed = 1;
nodes = (
(611,-10,o),
(734,126,o),
(734,365,cs),
(734,604,o),
(611,740,o),
(394,740,cs),
(177,740,o),
(54,604,o),
(54,365,cs),
(54,126,o),
(177,-10,o),
(394,-10,cs)
);
},
{
closed = 1;
nodes = (
(189,10,o),
(74,137,o),
(74,365,cs),
(74,593,o),
(189,720,o),
(394,720,cs),
(599,720,o),
(714,593,o),
(714,365,cs),
(714,137,o),
(599,10,o),
(394,10,cs)
);
}
);
width = 788;
},
{
anchors = (
{
name = bottom;
pos = (403,0);
},
{
name = center;
pos = (403,365);
},
{
name = ogonek;
pos = (471,0);
},
{
name = top;
pos = (403,730);
},
{
name = topleft;
pos = (33,730);
},
{
name = topright;
pos = (608,645);
}
);
layerId = "9527F797-22C1-480E-A1FE-2CDBEBE1FD4C";
shapes = (
{
closed = 1;
nodes = (
(630,-10,o),
(758,125,o),
(758,365,cs),
(758,605,o),
(630,740,o),
(403,740,cs),
(176,740,o),
(48,605,o),
(48,365,cs),
(48,125,o),
(176,-10,o),
(403,-10,cs)
);
},
{
closed = 1;
nodes = (
(248,90,o),
(161,189,o),
(161,365,cs),
(161,541,o),
(248,640,o),
(403,640,cs),
(558,640,o),
(645,541,o),
(645,365,cs),
(645,189,o),
(558,90,o),
(403,90,cs)
);
}
);
width = 806;
},
{
anchors = (
{
name = bottom;
pos = (412,0);
},
{
name = center;
pos = (412,365);
},
{
name = ogonek;
pos = (489,0);
},
{
name = top;
pos = (412,730);
},
{
name = topleft;
pos = (40,730);
},
{
name = topright;
pos = (585,650);
}
);
layerId = "9E6B41AB-2970-4C41-8B35-4DBE0D296A43";
shapes = (
{
closed = 1;
nodes = (
(650,-10,o),
(782,124,o),
(782,365,cs),
(782,606,o),
(650,740,o),
(412,740,cs),
(174,740,o),
(42,606,o),
(42,365,cs),
(42,124,o),
(174,-10,o),
(412,-10,cs)
);
},
{
closed = 1;
nodes = (
(306,160,o),
(247,233,o),
(247,365,cs),
(247,497,o),
(306,570,o),
(412,570,cs),
(518,570,o),
(577,497,o),
(577,365,cs),
(577,233,o),
(518,160,o),
(412,160,cs)
);
}
);
width = 824;
}
);
metricLeft = "=H*.6";
metricRight = "=|";
unicode = 79;
},
{
glyphname = Oogonek;
kernLeft = O;
kernRight = O;
lastChange = "2026-05-25 06:25:24 +0000";
layers = (
{
layerId = "D65C9A1E-0FCA-4B2D-8EDF-9F36CA9182A1";
shapes = (
{
closed = 1;
nodes = (
(410,-220,o),
(432,-214,o),
(450,-203,c),
(442,-185,l),
(423,-195,o),
(404,-200,o),
(386,-200,cs),
(338,-200,o),
(313,-178,o),
(313,-135,cs),
(313,-91,o),
(349,-26,o),
(475,-1,c),
(465,16,l),
(333,-13,o),
(293,-82,o),
(293,-135,cs),
(293,-191,o),
(325,-220,o),
(386,-220,cs)
);
},
{
ref = O;
}
);
width = 788;
},
{
layerId = "9527F797-22C1-480E-A1FE-2CDBEBE1FD4C";
shapes = (
{
closed = 1;
nodes = (
(433,-217,o),
(459,-213,o),
(482,-205,c),
(465,-120,l),
(452,-127,o),
(438,-130,o),
(423,-130,cs),
(398,-130,o),
(385,-117,o),
(385,-93,cs),
(385,-67,o),
(420,-19,o),
(480,-2,c),
(373,26,l),
(314,-10,o),
(283,-62,o),
(283,-107,cs),
(283,-177,o),
(327,-217,o),
(404,-217,cs)
);
},
{
ref = O;
}
);
width = 806;
},
{
layerId = "9E6B41AB-2970-4C41-8B35-4DBE0D296A43";
shapes = (
{
closed = 1;
nodes = (
(494,-220,o),
(518,-217,o),
(541,-210,c),
(526,-75,l),
(511,-81,o),
(492,-85,o),
(478,-85,cs),
(450,-85,o),
(437,-75,o),
(437,-53,cs),
(437,-32,o),
(453,-16,o),
(489,-3,c),
(353,46,l),
(289,1,o),
(261,-36,o),
(261,-82,cs),
(261,-170,o),
(334,-220,o),
(466,-220,cs)
);
},
{
ref = O;
}
);
width = 824;
}
);
metricLeft = "=O";
metricRight = "=|";
unicode = 490;
},
{
glyphname = Oslash;
kernLeft = O;
kernRight = O;
lastChange = "2026-05-25 06:25:24 +0000";
layers = (
{
anchors = (
{
name = bottom;
pos = (396,0);
},
{
name = top;
pos = (396,730);
}
);
layerId = "D65C9A1E-0FCA-4B2D-8EDF-9F36CA9182A1";
shapes = (
{
closed = 1;
nodes = (
(183,63,l),
(183,63,l),
(625,655,l),
(625,655,l),
(684,734,l),
(668,746,l),
(609,667,l),
(609,667,l),
(167,75,l),
(167,75,l),
(108,-4,l),
(124,-16,l)
);
},
{
pos = (11,0);
ref = O;
}
);
width = 810;
},
{
anchors = (
{
name = bottom;
pos = (400,0);
},
{
name = top;
pos = (400,730);
}
);
layerId = "9527F797-22C1-480E-A1FE-2CDBEBE1FD4C";
shapes = (
{
closed = 1;
nodes = (
(215,41,l),
(215,41,l),
(655,629,l),
(655,629,l),
(717,713,l),
(644,768,l),
(586,689,l),
(586,689,l),
(146,101,l),
(146,101,l),
(83,18,l),
(156,-38,l)
);
},
{
alignment = -1;
pos = (10,0);
ref = O;
}
);
width = 826;
},
{
anchors = (
{
name = bottom;
pos = (408,0);
},
{
name = top;
pos = (408,730);
}
);
layerId = "9E6B41AB-2970-4C41-8B35-4DBE0D296A43";
shapes = (
{
closed = 1;
nodes = (
(250,28,l),
(238,37,l),
(674,621,l),
(686,612,l),
(748,695,l),
(628,785,l),
(566,702,l),
(578,693,l),
(142,109,l),
(130,118,l),
(68,35,l),
(188,-55,l)
);
},
{
pos = (8,0);
ref = O;
}
);
width = 840;
}
);
metricLeft = "=O*1.2";
metricRight = "=|";
unicode = 216;
},
{
glyphname = OE;
kernLeft = O;
kernRight = E;
lastChange = "2026-06-02 03:16:44 +0000";
layers = (
{
layerId = "D65C9A1E-0FCA-4B2D-8EDF-9F36CA9182A1";
shapes = (
{
closed = 1;
nodes = (
(470,-10,o),
(540,-4,o),
(586,4,c),
(577,23,l),
(532,15,o),
(467,10,o),
(424,10,cs),
(220,10,o),
(74,158,o),
(74,365,cs),
(74,572,o),
(220,720,o),
(424,720,cs),
(467,720,o),
(532,715,o),
(577,707,c),
(586,726,l),
(540,734,o),
(470,740,o),
(424,740,cs),
(209,740,o),
(54,583,o),
(54,365,cs),
(54,147,o),
(209,-10,o),
(424,-10,cs)
);
},
{
pos = (449,0);
ref = E;
}
);
width = 1014;
},
{
layerId = "9527F797-22C1-480E-A1FE-2CDBEBE1FD4C";
shapes = (
{
closed = 1;
nodes = (
(505,-10,o),
(578,11,o),
(637,49,c),
(562,127,l),
(523,103,o),
(476,90,o),
(423,90,cs),
(268,90,o),
(161,202,o),
(161,365,cs),
(161,528,o),
(268,640,o),
(423,640,cs),
(476,640,o),
(523,627,o),
(562,603,c),
(637,681,l),
(578,719,o),
(505,740,o),
(423,740,cs),
(201,740,o),
(48,587,o),
(48,365,cs),
(48,143,o),
(201,-10,o),
(423,-10,cs)
);
},
{
alignment = -1;
pos = (432,0);
ref = E;
}
);
width = 1048;
},
{
layerId = "9E6B41AB-2970-4C41-8B35-4DBE0D296A43";
shapes = (
{
closed = 1;
nodes = (
(538,-10,o),
(634,28,o),
(700,95,c),
(562,232,l),
(531,186,o),
(483,160,o),
(422,160,cs),
(316,160,o),
(247,241,o),
(247,365,cs),
(247,489,o),
(316,570,o),
(422,570,cs),
(483,570,o),
(531,544,o),
(562,498,c),
(700,635,l),
(634,702,o),
(538,740,o),
(422,740,cs),
(193,740,o),
(42,591,o),
(42,365,cs),
(42,139,o),
(193,-10,o),
(422,-10,cs)
);
},
{
pos = (460,0);
ref = E;
}
);
width = 1123;
}
);
metricLeft = "=O";
metricRight = "=E";
unicode = 338;
},
{
glyphname = P;
kernLeft = H;
kernRight = P;
lastChange = "2026-05-25 06:25:24 +0000";
layers = (
{
layerId = "D65C9A1E-0FCA-4B2D-8EDF-9F36CA9182A1";
shapes = (
{
closed = 1;
nodes = (
(90,0,l),
(110,0,l),
(110,716,l),
(93,706,l),
(159,716,o),
(215,720,o),
(267,720,cs),
(467,720,o),
(550,658,o),
(550,510,cs),
(550,362,o),
(467,300,o),
(267,300,cs),
(220,300,o),
(179,303,o),
(103,314,c),
(100,294,l),
(174,284,o),
(217,280,o),
(267,280,cs),
(478,280,o),
(570,350,o),
(570,510,cs),
(570,670,o),
(478,740,o),
(267,740,cs),
(217,740,o),
(161,736,o),
(90,726,c)
);
}
);
width = 588;
},
{
layerId = "9527F797-22C1-480E-A1FE-2CDBEBE1FD4C";
shapes = (
{
closed = 1;
nodes = (
(80,0,l),
(190,0,l),
(190,688,l),
(137,627,l),
(192,636,o),
(248,640,o),
(292,640,cs),
(439,640,o),
(498,596,o),
(498,488,cs),
(498,380,o),
(438,335,o),
(292,335,cs),
(254,335,o),
(214,338,o),
(137,348,c),
(135,249,l),
(212,239,o),
(260,235,o),
(305,235,cs),
(510,235,o),
(610,319,o),
(610,488,cs),
(610,659,o),
(508,740,o),
(290,740,cs),
(236,740,o),
(156,735,o),
(80,726,c)
);
}
);
width = 626;
},
{
layerId = "9E6B41AB-2970-4C41-8B35-4DBE0D296A43";
shapes = (
{
closed = 1;
nodes = (
(70,0,l),
(270,0,l),
(270,660,l),
(180,566,l),
(235,575,o),
(284,580,o),
(317,580,cs),
(405,580,o),
(445,544,o),
(445,465,cs),
(445,386,o),
(405,350,o),
(317,350,cs),
(281,350,o),
(220,356,o),
(170,364,c),
(170,204,l),
(234,195,o),
(298,190,o),
(343,190,cs),
(542,190,o),
(650,287,o),
(650,465,cs),
(650,648,o),
(537,740,o),
(312,740,cs),
(255,740,o),
(151,734,o),
(70,726,c)
);
}
);
width = 664;
}
);
metricLeft = "=H";
metricRight = "=H*.2";
unicode = 80;
},
{
glyphname = Thorn;
kernLeft = H;
kernRight = O;
lastChange = "2026-05-25 06:25:39 +0000";
layers = (
{
layerId = "D65C9A1E-0FCA-4B2D-8EDF-9F36CA9182A1";
shapes = (
{
closed = 1;
nodes = (
(478,145,o),
(570,215,o),
(570,375,cs),
(570,535,o),
(478,605,o),
(267,605,cs),
(217,605,o),
(174,601,o),
(100,591,c),
(103,571,l),
(179,582,o),
(220,585,o),
(267,585,cs),
(467,585,o),
(550,523,o),
(550,375,cs),
(550,227,o),
(467,165,o),
(267,165,cs),
(220,165,o),
(179,168,o),
(103,179,c),
(100,159,l),
(174,149,o),
(217,145,o),
(267,145,cs)
);
},
{
closed = 1;
nodes = (
(110,0,l),
(110,730,l),
(90,730,l),
(90,0,l)
);
}
);
width = 588;
},
{
layerId = "9527F797-22C1-480E-A1FE-2CDBEBE1FD4C";
shapes = (
{
closed = 1;
nodes = (
(510,122,o),
(610,206,o),
(610,375,cs),
(610,544,o),
(510,628,o),
(305,628,cs),
(260,628,o),
(212,624,o),
(135,614,c),
(137,515,l),
(214,525,o),
(254,528,o),
(292,528,cs),
(438,528,o),
(498,483,o),
(498,375,cs),
(498,267,o),
(438,222,o),
(292,222,cs),
(254,222,o),
(214,225,o),
(137,235,c),
(135,136,l),
(212,126,o),
(260,122,o),
(305,122,cs)
);
},
{
closed = 1;
nodes = (
(190,0,l),
(190,730,l),
(80,730,l),
(80,0,l)
);
}
);
width = 626;
},
{
layerId = "9E6B41AB-2970-4C41-8B35-4DBE0D296A43";
shapes = (
{
closed = 1;
nodes = (
(542,100,o),
(650,197,o),
(650,375,cs),
(650,553,o),
(542,650,o),
(343,650,cs),
(298,650,o),
(234,645,o),
(170,636,c),
(170,476,l),
(220,484,o),
(281,490,o),
(317,490,cs),
(405,490,o),
(445,454,o),
(445,375,cs),
(445,296,o),
(405,260,o),
(317,260,cs),
(281,260,o),
(220,266,o),
(170,274,c),
(170,114,l),
(234,105,o),
(298,100,o),
(343,100,cs)
);
},
{
closed = 1;
nodes = (
(270,0,l),
(270,730,l),
(70,730,l),
(70,0,l)
);
}
);
width = 664;
}
);
metricLeft = "=P";
metricRight = "=P";
unicode = 222;
},
{
glyphname = Q;
kernLeft = O;
kernRight = O;
lastChange = "2026-05-25 06:25:24 +0000";
layers = (
{
layerId = "D65C9A1E-0FCA-4B2D-8EDF-9F36CA9182A1";
metricRight = "=O-20";
shapes = (
{
closed = 1;
nodes = (
(552,-10,o),
(671,-56,o),
(744,-146,c),
(760,-132,l),
(699,-61,o),
(612,-17,o),
(502,1,c),
(502,3,l),
(651,42,o),
(734,169,o),
(734,365,cs),
(734,604,o),
(611,740,o),
(394,740,cs),
(177,740,o),
(54,604,o),
(54,365,cs),
(54,126,o),
(177,-10,o),
(394,-10,cs)
);
},
{
closed = 1;
nodes = (
(189,10,o),
(74,137,o),
(74,365,cs),
(74,593,o),
(189,720,o),
(394,720,cs),
(599,720,o),
(714,593,o),
(714,365,cs),
(714,137,o),
(599,10,o),
(394,10,cs)
);
}
);
width = 794;
},
{
layerId = "9E6B41AB-2970-4C41-8B35-4DBE0D296A43";
metricRight = "=O-14";
shapes = (
{
closed = 1;
nodes = (
(533,-10,o),
(584,-50,o),
(642,-190,c),
(802,-100,l),
(773,-30,o),
(721,36,o),
(669,69,c),
(669,71,l),
(743,134,o),
(782,234,o),
(782,365,cs),
(782,606,o),
(650,740,o),
(412,740,cs),
(174,740,o),
(42,606,o),
(42,365,cs),
(42,124,o),
(174,-10,o),
(412,-10,cs)
);
},
{
closed = 1;
nodes = (
(306,160,o),
(247,233,o),
(247,365,cs),
(247,497,o),
(306,570,o),
(412,570,cs),
(518,570,o),
(577,497,o),
(577,365,cs),
(577,233,o),
(518,160,o),
(412,160,cs)
);
}
);
width = 830;
},
{
layerId = "9527F797-22C1-480E-A1FE-2CDBEBE1FD4C";
metricRight = "=O-17";
shapes = (
{
closed = 1;
nodes = (
(536,-10,o),
(619,-56,o),
(688,-168,c),
(776,-116,l),
(733,-46,o),
(668,8,o),
(598,33,c),
(598,35,l),
(702,93,o),
(758,206,o),
(758,365,cs),
(758,605,o),
(630,740,o),
(403,740,cs),
(176,740,o),
(48,605,o),
(48,365,cs),
(48,125,o),
(176,-10,o),
(403,-10,cs)
);
},
{
closed = 1;
nodes = (
(248,90,o),
(161,189,o),
(161,365,cs),
(161,541,o),
(248,640,o),
(403,640,cs),
(558,640,o),
(645,541,o),
(645,365,cs),
(645,189,o),
(558,90,o),
(403,90,cs)
);
}
);
width = 807;
}
);
metricLeft = "=O";
metricRight = "=O-20";
unicode = 81;
},
{
glyphname = R;
kernLeft = H;
kernRight = R;
lastChange = "2026-05-25 06:25:24 +0000";
layers = (
{
anchors = (
{
name = bottom;
pos = (325,0);
},
{
name = top;
pos = (325,730);
}
);
background = {
anchors = (
{
name = bottom;
pos = (340,0);
},
{
name = top;
pos = (330,730);
}
);
};
layerId = "9527F797-22C1-480E-A1FE-2CDBEBE1FD4C";
shapes = (
{
closed = 1;
nodes = (
(190,0,l),
(190,688,l),
(137,627,l),
(211,636,o),
(261,640,o),
(305,640,cs),
(441,640,o),
(498,602,o),
(498,512,cs),
(498,422,o),
(441,384,o),
(305,384,cs),
(261,384,o),
(211,388,o),
(137,397,c),
(118,298,l),
(179,292,o),
(248,288,o),
(300,288,cs),
(515,288,o),
(610,357,o),
(610,514,cs),
(610,671,o),
(515,740,o),
(300,740,cs),
(237,740,o),
(149,734,o),
(80,726,c),
(80,0,l)
);
},
{
closed = 1;
nodes = (
(650,0,l),
(313,345,l),
(174,345,l),
(506,0,l)
);
}
);
width = 658;
},
{
anchors = (
{
name = bottom;
pos = (345,0);
},
{
name = top;
pos = (345,730);
}
);
layerId = "9E6B41AB-2970-4C41-8B35-4DBE0D296A43";
shapes = (
{
closed = 1;
nodes = (
(270,0,l),
(270,660,l),
(180,566,l),
(229,574,o),
(296,580,o),
(332,580,cs),
(410,580,o),
(445,552,o),
(445,489,cs),
(445,426,o),
(410,398,o),
(332,398,cs),
(296,398,o),
(229,404,o),
(180,412,c),
(172,258,l),
(217,255,o),
(278,252,o),
(322,252,cs),
(547,252,o),
(650,329,o),
(650,496,cs),
(650,663,o),
(547,740,o),
(322,740,cs),
(261,740,o),
(155,734,o),
(70,726,c),
(70,0,l)
);
},
{
closed = 1;
nodes = (
(700,0,l),
(421,327,l),
(213,327,l),
(472,0,l)
);
}
);
width = 707;
},
{
anchors = (
{
name = bottom;
pos = (305,0);
},
{
name = top;
pos = (305,730);
}
);
layerId = "D65C9A1E-0FCA-4B2D-8EDF-9F36CA9182A1";
shapes = (
{
closed = 1;
nodes = (
(110,0,l),
(110,716,l),
(93,706,l),
(170,716,o),
(223,720,o),
(277,720,cs),
(472,720,o),
(550,667,o),
(550,540,cs),
(550,413,o),
(472,360,o),
(277,360,cs),
(223,360,o),
(174,364,o),
(101,373,c),
(98,353,l),
(172,344,o),
(224,340,o),
(277,340,cs),
(482,340,o),
(570,400,o),
(570,540,cs),
(570,680,o),
(482,740,o),
(277,740,cs),
(218,740,o),
(161,735,o),
(90,726,c),
(90,0,l)
);
},
{
closed = 1;
nodes = (
(600,0,l),
(200,355,l),
(170,355,l),
(570,0,l)
);
}
);
width = 609;
}
);
metricLeft = "=H";
metricRight = "=H*.1";
unicode = 82;
},
{
glyphname = S;
kernLeft = S;
kernRight = S;
lastChange = "2026-06-03 06:17:44 +0000";
layers = (
{
anchors = (
{
name = bottom;
pos = (293,0);
},
{
name = cedi;
pos = (178,-1);
},
{
name = top;
pos = (293,730);
}
);
layerId = "D65C9A1E-0FCA-4B2D-8EDF-9F36CA9182A1";
metricLeft = "=H*.6";
shapes = (
{
closed = 1;
nodes = (
(438,-10,o),
(531,62,o),
(531,183,cs),
(531,323,o),
(407,357,o),
(292,388,cs),
(180,418,o),
(77,446,o),
(77,561,cs),
(77,662,o),
(157,720,o),
(297,720,cs),
(373,720,o),
(456,703,o),
(504,677,c),
(514,695,l),
(462,722,o),
(375,740,o),
(297,740,cs),
(147,740,o),
(57,674,o),
(57,561,cs),
(57,431,o),
(175,399,o),
(287,369,cs),
(402,338,o),
(511,308,o),
(511,183,cs),
(511,73,o),
(427,10,o),
(281,10,cs),
(205,10,o),
(118,27,o),
(62,53,c),
(54,35,l),
(112,8,o),
(202,-10,o),
(281,-10,cs)
);
}
);
width = 585;
},
{
anchors = (
{
name = bottom;
pos = (339,0);
},
{
name = cedi;
pos = (201,0);
},
{
name = top;
pos = (339,730);
}
);
layerId = "9E6B41AB-2970-4C41-8B35-4DBE0D296A43";
metricLeft = "=H*.6";
shapes = (
{
closed = 1;
nodes = (
(523,-10,o),
(636,69,o),
(636,210,cs),
(636,320,o),
(568,384,o),
(398,434,cs),
(279,469,o),
(252,488,o),
(252,526,cs),
(252,560,o),
(283,575,o),
(350,575,cs),
(426,575,o),
(508,556,o),
(580,522,c),
(622,692,l),
(551,722,o),
(450,740,o),
(353,740,cs),
(153,740,o),
(42,663,o),
(42,525,cs),
(42,413,o),
(113,340,o),
(270,297,cs),
(396,262,o),
(426,245,o),
(426,210,cs),
(426,174,o),
(395,155,o),
(336,155,cs),
(262,155,o),
(153,185,o),
(84,224,c),
(42,54,l),
(107,14,o),
(213,-10,o),
(323,-10,cs)
);
}
);
width = 678;
},
{
anchors = (
{
name = bottom;
pos = (316,0);
},
{
name = cedi;
pos = (188,0);
},
{
name = top;
pos = (316,730);
}
);
layerId = "9527F797-22C1-480E-A1FE-2CDBEBE1FD4C";
metricLeft = "=H*.6";
shapes = (
{
closed = 1;
nodes = (
(481,-10,o),
(584,66,o),
(584,197,cs),
(584,324,o),
(487,375,o),
(344,415,cs),
(230,447,o),
(165,468,o),
(165,542,cs),
(165,605,o),
(220,640,o),
(324,640,cs),
(399,640,o),
(480,622,o),
(540,594,c),
(568,694,l),
(507,722,o),
(413,740,o),
(325,740,cs),
(150,740,o),
(50,669,o),
(50,543,cs),
(50,420,o),
(143,365,o),
(277,329,cs),
(398,296,o),
(469,275,o),
(469,198,cs),
(469,129,o),
(411,90,o),
(309,90,cs),
(232,90,o),
(141,112,o),
(76,145,c),
(48,45,l),
(110,11,o),
(208,-10,o),
(302,-10,cs)
);
}
);
width = 632;
}
);
metricLeft = "=H*.6";
metricRight = "=|";
unicode = 83;
},
{
glyphname = Germandbls;
kernLeft = H;
kernRight = B;
lastChange = "2026-06-02 03:02:43 +0000";
layers = (
{
layerId = "D65C9A1E-0FCA-4B2D-8EDF-9F36CA9182A1";
shapes = (
{
closed = 1;
nodes = (
(90,0,l),
(110,0,l),
(110,485,ls),
(110,647,o),
(184,720,o),
(348,720,cs),
(416,720,o),
(490,706,o),
(550,658,c),
(567,672,l),
(501,724,o),
(422,740,o),
(348,740,cs),
(174,740,o),
(90,660,o),
(90,490,cs)
);
},
{
closed = 1;
nodes = (
(521,-10,o),
(610,58,o),
(610,180,cs),
(610,302,o),
(520,370,o),
(359,370,c),
(359,372,l),
(567,672,l),
(547,681,l),
(332,369,l),
(344,350,l),
(364,350,ls),
(511,350,o),
(590,290,o),
(590,180,cs),
(590,70,o),
(510,10,o),
(361,10,cs),
(317,10,o),
(279,15,o),
(242,26,c),
(236,7,l),
(277,-5,o),
(318,-10,o),
(361,-10,cs)
);
}
);
width = 651;
},
{
layerId = "9527F797-22C1-480E-A1FE-2CDBEBE1FD4C";
shapes = (
{
closed = 1;
nodes = (
(80,0,l),
(190,0,l),
(190,453,ls),
(190,576,o),
(254,640,o),
(377,640,cs),
(444,640,o),
(502,616,o),
(546,571,c),
(634,662,l),
(562,713,o),
(474,740,o),
(377,740,cs),
(182,740,o),
(80,645,o),
(80,463,cs)
);
},
{
closed = 1;
nodes = (
(568,-10,o),
(655,70,o),
(655,215,cs),
(655,339,o),
(592,412,o),
(474,423,c),
(474,425,l),
(634,661,l),
(504,659,l),
(330,400,l),
(355,340,l),
(355,340,l),
(484,340,o),
(543,301,o),
(543,215,cs),
(543,135,o),
(490,90,o),
(396,90,cs),
(362,90,o),
(333,95,o),
(293,111,c),
(278,11,l),
(321,-3,o),
(364,-10,o),
(411,-10,cs)
);
}
);
width = 691;
},
{
layerId = "9E6B41AB-2970-4C41-8B35-4DBE0D296A43";
shapes = (
{
closed = 1;
nodes = (
(70,0,l),
(270,0,l),
(270,460,l),
(270,539,o),
(302,570,o),
(385,570,cs),
(454,570,o),
(503,548,o),
(560,490,c),
(680,620,l),
(610,699,o),
(508,740,o),
(385,740,cs),
(175,740,o),
(70,647,o),
(70,460,c)
);
},
{
closed = 1;
nodes = (
(618,-10,o),
(700,65,o),
(700,210,cs),
(700,313,o),
(643,376,o),
(533,395,c),
(533,397,l),
(680,620,l),
(517,659,l),
(345,400,l),
(394,280,l),
(394,280,l),
(460,280,o),
(495,258,o),
(495,216,cs),
(495,179,o),
(473,160,o),
(430,160,cs),
(406,160,o),
(379,166,o),
(345,180,c),
(320,15,l),
(362,-1,o),
(410,-10,o),
(460,-10,cs)
);
}
);
width = 732;
}
);
metricLeft = "=B";
metricRight = "=B*.9";
unicode = 7838;
},
{
glyphname = T;
kernLeft = T;
kernRight = T;
lastChange = "2026-06-04 06:15:40 +0000";
layers = (
{
anchors = (
{
name = bottom;
pos = (327,0);
},
{
name = cedi;
pos = (317,0);
},
{
name = center;
pos = (327,365);
},
{
name = top;
pos = (327,730);
}
);
layerId = "D65C9A1E-0FCA-4B2D-8EDF-9F36CA9182A1";
metricLeft = "=H*.3";
shapes = (
{
closed = 1;
nodes = (
(337,0,l),
(337,710,l),
(627,710,l),
(627,730,l),
(27,730,l),
(27,710,l),
(317,710,l),
(317,0,l)
);
}
);
width = 654;
},
{
anchors = (
{
name = bottom;
pos = (333,0);
},
{
name = cedi;
pos = (276,0);
},
{
name = center;
pos = (333,365);
},
{
name = top;
pos = (333,730);
}
);
layerId = "9527F797-22C1-480E-A1FE-2CDBEBE1FD4C";
metricLeft = "=H*.35";
shapes = (
{
closed = 1;
nodes = (
(390,0,l),
(390,630,l),
(638,630,l),
(638,730,l),
(28,730,l),
(28,630,l),
(276,630,l),
(276,0,l)
);
}
);
width = 666;
},
{
anchors = (
{
name = bottom;
pos = (338,0);
},
{
name = cedi;
pos = (235,0);
},
{
name = center;
pos = (338,365);
},
{
name = top;
pos = (338,730);
}
);
layerId = "9E6B41AB-2970-4C41-8B35-4DBE0D296A43";
metricLeft = "=H*.4";
shapes = (
{
closed = 1;
nodes = (
(441,0,l),
(441,560,l),
(648,560,l),
(648,730,l),
(28,730,l),
(28,560,l),
(235,560,l),
(235,0,l)
);
}
);
width = 676;
}
);
metricLeft = "=H*0.4";
metricRight = "=|";
unicode = 84;
},
{
glyphname = Tbar;
kernLeft = T;
kernRight = T;
lastChange = "2026-05-25 06:25:39 +0000";
layers = (
{
layerId = "D65C9A1E-0FCA-4B2D-8EDF-9F36CA9182A1";
shapes = (
{
closed = 1;
nodes = (
(537,305,l),
(537,325,l),
(117,325,l),
(117,305,l)
);
},
{
ref = T;
}
);
width = 654;
},
{
layerId = "9527F797-22C1-480E-A1FE-2CDBEBE1FD4C";
shapes = (
{
closed = 1;
nodes = (
(560,270,l),
(560,360,l),
(100,360,l),
(100,270,l)
);
},
{
alignment = -1;
ref = T;
}
);
width = 666;
},
{
layerId = "9E6B41AB-2970-4C41-8B35-4DBE0D296A43";
shapes = (
{
closed = 1;
nodes = (
(584,245,l),
(584,385,l),
(84,385,l),
(84,245,l)
);
},
{
ref = T;
}
);
width = 676;
}
);
metricLeft = "=T";
metricRight = "=|";
unicode = 358;
},
{
glyphname = U;
kernLeft = U;
kernRight = U;
lastChange = "2026-06-02 03:39:26 +0000";
layers = (
{
anchors = (
{
name = bottom;
pos = (351,0);
},
{
name = ogonek;
pos = (409,0);
},
{
name = top;
pos = (351,730);
},
{
name = top_ring;
pos = (351,700);
},
{
name = topright;
pos = (601,690);
}
);
layerId = "D65C9A1E-0FCA-4B2D-8EDF-9F36CA9182A1";
shapes = (
{
closed = 1;
nodes = (
(536,-10,o),
(621,81,o),
(621,280,cs),
(621,730,l),
(601,730,l),
(601,280,ls),
(601,92,o),
(525,10,o),
(351,10,cs),
(177,10,o),
(101,92,o),
(101,280,cs),
(101,730,l),
(81,730,l),
(81,280,ls),
(81,81,o),
(166,-10,o),
(351,-10,cs)
);
}
);
width = 702;
},
{
anchors = (
{
name = bottom;
pos = (362,0);
},
{
name = ogonek;
pos = (442,0);
},
{
name = top;
pos = (362,730);
},
{
name = top_ring;
pos = (362,710);
},
{
name = topright;
pos = (577,690);
}
);
layerId = "9527F797-22C1-480E-A1FE-2CDBEBE1FD4C";
shapes = (
{
closed = 1;
nodes = (
(559,-10,o),
(652,86,o),
(652,290,cs),
(652,730,l),
(542,730,l),
(542,310,ls),
(542,149,o),
(494,90,o),
(362,90,cs),
(230,90,o),
(182,149,o),
(182,310,cs),
(182,730,l),
(72,730,l),
(72,290,ls),
(72,86,o),
(165,-10,o),
(362,-10,cs)
);
}
);
width = 724;
},
{
anchors = (
{
name = bottom;
pos = (373,0);
},
{
name = ogonek;
pos = (456,0);
},
{
name = top;
pos = (373,730);
},
{
name = top_ring;
pos = (373,720);
},
{
name = topright;
pos = (553,690);
}
);
layerId = "9E6B41AB-2970-4C41-8B35-4DBE0D296A43";
shapes = (
{
closed = 1;
nodes = (
(582,-10,o),
(683,91,o),
(683,300,cs),
(683,730,l),
(483,730,l),
(483,340,ls),
(483,198,o),
(460,160,o),
(373,160,cs),
(286,160,o),
(263,198,o),
(263,340,cs),
(263,730,l),
(63,730,l),
(63,300,ls),
(63,91,o),
(164,-10,o),
(373,-10,cs)
);
}
);
width = 746;
}
);
metricLeft = "=H*.9";
metricRight = "=|";
unicode = 85;
},
{
glyphname = Uogonek;
kernLeft = U;
kernRight = U;
lastChange = "2026-05-25 06:25:39 +0000";
layers = (
{
layerId = "D65C9A1E-0FCA-4B2D-8EDF-9F36CA9182A1";
shapes = (
{
closed = 1;
nodes = (
(392,-220,o),
(414,-214,o),
(432,-203,c),
(424,-185,l),
(405,-195,o),
(386,-200,o),
(368,-200,cs),
(320,-200,o),
(295,-178,o),
(295,-135,cs),
(295,-90,o),
(331,-23,o),
(457,3,c),
(448,20,l),
(315,-10,o),
(275,-81,o),
(275,-135,cs),
(275,-191,o),
(307,-220,o),
(368,-220,cs)
);
},
{
ref = U;
}
);
width = 702;
},
{
layerId = "9527F797-22C1-480E-A1FE-2CDBEBE1FD4C";
shapes = (
{
closed = 1;
nodes = (
(395,-217,o),
(421,-213,o),
(444,-205,c),
(427,-120,l),
(414,-127,o),
(400,-130,o),
(385,-130,cs),
(360,-130,o),
(347,-117,o),
(347,-93,cs),
(347,-67,o),
(382,-19,o),
(442,-2,c),
(335,26,l),
(276,-10,o),
(245,-62,o),
(245,-107,cs),
(245,-177,o),
(289,-217,o),
(366,-217,cs)
);
},
{
ref = U;
}
);
width = 724;
},
{
layerId = "9E6B41AB-2970-4C41-8B35-4DBE0D296A43";
shapes = (
{
closed = 1;
nodes = (
(448,-220,o),
(472,-217,o),
(495,-210,c),
(480,-75,l),
(465,-81,o),
(446,-85,o),
(432,-85,cs),
(404,-85,o),
(391,-75,o),
(391,-53,cs),
(391,-32,o),
(407,-17,o),
(443,-4,c),
(306.357,46.129,l),
(242.847,0.673,o),
(215,-36.13,o),
(215,-82,cs),
(215,-170,o),
(288,-220,o),
(420,-220,cs)
);
},
{
ref = U;
}
);
width = 746;
}
);
metricLeft = "=U";
metricRight = "=|";
unicode = 370;
},
{
glyphname = V;
kernLeft = V;
kernRight = V;
lastChange = "2026-06-03 06:21:33 +0000";
layers = (
{
layerId = "D65C9A1E-0FCA-4B2D-8EDF-9F36CA9182A1";
shapes = (
{
closed = 1;
nodes = (
(353,0,l),
(658,730,l),
(636,730,l),
(339,18,l),
(337,18,l),
(40,730,l),
(18,730,l),
(323,0,l)
);
}
);
width = 676;
},
{
layerId = "9527F797-22C1-480E-A1FE-2CDBEBE1FD4C";
shapes = (
{
closed = 1;
nodes = (
(419,0,l),
(682,730,l),
(561,730,l),
(348,110,l),
(346,110,l),
(133,730,l),
(12,730,l),
(275,0,l)
);
}
);
width = 694;
},
{
layerId = "9E6B41AB-2970-4C41-8B35-4DBE0D296A43";
shapes = (
{
closed = 1;
nodes = (
(487,0,l),
(707,730,l),
(487,730,l),
(358,200,l),
(356,200,l),
(227,730,l),
(7,730,l),
(227,0,l)
);
}
);
width = 714;
}
);
metricLeft = "=A";
metricRight = "=|";
unicode = 86;
},
{
glyphname = W;
kernLeft = W;
kernRight = W;
lastChange = "2026-06-03 06:22:30 +0000";
layers = (
{
anchors = (
{
name = bottom;
pos = (464,0);
},
{
name = top;
pos = (464,730);
}
);
layerId = "9527F797-22C1-480E-A1FE-2CDBEBE1FD4C";
metricLeft = "=V*2";
name = Medium;
shapes = (
{
closed = 1;
nodes = (
(364,0,l),
(382,171,o),
(442,350,o),
(536,514,c),
(434,565,l),
(362,418,o),
(314,279,o),
(282,126,c),
(280,126,l),
(144,730,l),
(24,730,l),
(206,0,l)
);
},
{
closed = 1;
nodes = (
(722,0,l),
(904,730,l),
(784,730,l),
(648,126,l),
(646,126,l),
(483,730,l),
(367,730,l),
(576,0,l)
);
}
);
width = 928;
},
{
anchors = (
{
name = bottom;
pos = (448,0);
},
{
name = top;
pos = (448,730);
}
);
background = {
shapes = (
{
closed = 0;
nodes = (
(259,17,l),
(257,17,l),
(39,730,l),
(18,730,l),
(241,0,l),
(275,0,l)
);
},
{
closed = 1;
nodes = (
(655,0,l),
(878,730,l),
(857,730,l),
(639,17,l),
(637,17,l),
(392,730,l),
(370,730,l),
(623,0,l)
);
},
{
attr = {
strokeWidth = 20;
};
closed = 0;
nodes = (
(266,2,l),
(303,186,o),
(363,356,o),
(452,530,c)
);
}
);
};
layerId = "D65C9A1E-0FCA-4B2D-8EDF-9F36CA9182A1";
metricLeft = "=V*1";
name = Thin;
shapes = (
{
closed = 1;
nodes = (
(276,0,l),
(313,184,o),
(372,351,o),
(461,525,c),
(443,535,l),
(356,365,o),
(296,195,o),
(259,17,c),
(257,17,l),
(39,730,l),
(18,730,l),
(241,0,l)
);
},
{
closed = 1;
nodes = (
(655,0,l),
(878,730,l),
(857,730,l),
(639,17,l),
(637,17,l),
(392,730,l),
(370,730,l),
(623,0,l)
);
}
);
width = 896;
},
{
anchors = (
{
name = bottom;
pos = (471,0);
},
{
name = top;
pos = (471,730);
}
);
layerId = "9E6B41AB-2970-4C41-8B35-4DBE0D296A43";
metricLeft = "=V*3";
name = Black;
shapes = (
{
closed = 1;
nodes = (
(411,0,l),
(411,155,o),
(477,350,o),
(581,502,c),
(408,571,l),
(349,445,o),
(316,347,o),
(287,210,c),
(285,210,l),
(235,730,l),
(21,730,l),
(161,0,l)
);
},
{
closed = 1;
nodes = (
(781,0,l),
(921,730,l),
(707,730,l),
(657,210,l),
(655,210,l),
(556,730,l),
(358,730,l),
(531,0,l)
);
}
);
width = 942;
}
);
metricLeft = "=V*3";
metricRight = "=|";
unicode = 87;
},
{
glyphname = X;
kernLeft = X;
kernRight = X;
lastChange = "2026-06-03 06:23:52 +0000";
layers = (
{
layerId = "D65C9A1E-0FCA-4B2D-8EDF-9F36CA9182A1";
shapes = (
{
closed = 1;
nodes = (
(43,0,l),
(307,351,l),
(309,351,l),
(573,0,l),
(598,0,l),
(320,369,l),
(592,730,l),
(567,730,l),
(309,387,l),
(307,387,l),
(49,730,l),
(24,730,l),
(296,369,l),
(18,0,l)
);
}
);
width = 616;
},
{
layerId = "9527F797-22C1-480E-A1FE-2CDBEBE1FD4C";
shapes = (
{
closed = 1;
nodes = (
(141,0,l),
(325,304,l),
(327,304,l),
(511,0,l),
(636,0,l),
(407,367,l),
(633,730,l),
(508,730,l),
(327,431,l),
(325,431,l),
(144,730,l),
(19,730,l),
(245,367,l),
(16,0,l)
);
}
);
width = 652;
},
{
layerId = "9E6B41AB-2970-4C41-8B35-4DBE0D296A43";
shapes = (
{
closed = 1;
nodes = (
(239,0,l),
(343,255,l),
(345,255,l),
(449,0,l),
(674,0,l),
(494,365,l),
(674,730,l),
(449,730,l),
(345,475,l),
(343,475,l),
(239,730,l),
(14,730,l),
(194,365,l),
(14,0,l)
);
}
);
width = 688;
}
);
metricLeft = "=|K*2";
metricRight = "=|";
unicode = 88;
},
{
glyphname = Y;
kernLeft = Y;
kernRight = Y;
lastChange = "2026-06-03 06:26:45 +0000";
layers = (
{
anchors = (
{
name = bottom;
pos = (322,0);
},
{
name = top;
pos = (322,730);
},
{
name = topleft;
pos = (30,730);
}
);
layerId = "D65C9A1E-0FCA-4B2D-8EDF-9F36CA9182A1";
shapes = (
{
closed = 1;
nodes = (
(332,0,l),
(332,297,l),
(642,730,l),
(617,730,l),
(323,318,l),
(321,318,l),
(27,730,l),
(2,730,l),
(312,297,l),
(312,0,l)
);
}
);
width = 644;
},
{
anchors = (
{
name = bottom;
pos = (336,0);
},
{
name = top;
pos = (336,730);
},
{
name = topleft;
pos = (23,730);
}
);
layerId = "9527F797-22C1-480E-A1FE-2CDBEBE1FD4C";
shapes = (
{
closed = 1;
nodes = (
(393,0,l),
(393,274,l),
(671,730,l),
(545,730,l),
(337,373,l),
(335,373,l),
(127,730,l),
(1,730,l),
(279,274,l),
(279,0,l)
);
}
);
width = 672;
},
{
anchors = (
{
name = bottom;
pos = (351,0);
},
{
name = top;
pos = (351,730);
},
{
name = topleft;
pos = (17,730);
}
);
layerId = "9E6B41AB-2970-4C41-8B35-4DBE0D296A43";
shapes = (
{
closed = 1;
nodes = (
(456,0,l),
(456,250,l),
(701,730,l),
(481,730,l),
(352,420,l),
(350,420,l),
(221,730,l),
(1,730,l),
(246,250,l),
(246,0,l)
);
}
);
width = 702;
}
);
metricLeft = "=V*.1";
metricRight = "=|";
unicode = 89;
},
{
glyphname = Z;
kernLeft = Z;
kernRight = Z;
lastChange = "2026-06-03 06:28:22 +0000";
layers = (
{
anchors = (
{
name = bottom;
pos = (322,0);
},
{
name = center;
pos = (322,365);
},
{
name = top;
pos = (322,730);
}
);
layerId = "D65C9A1E-0FCA-4B2D-8EDF-9F36CA9182A1";
shapes = (
{
closed = 1;
nodes = (
(572,0,l),
(572,20,l),
(97,20,l),
(97,22,l),
(572,710,l),
(572,730,l),
(72,730,l),
(72,710,l),
(547,710,l),
(547,708,l),
(72,20,l),
(72,0,l)
);
}
);
width = 644;
},
{
anchors = (
{
name = bottom;
pos = (324,0);
},
{
name = center;
pos = (324,365);
},
{
name = top;
pos = (324,730);
}
);
layerId = "9527F797-22C1-480E-A1FE-2CDBEBE1FD4C";
shapes = (
{
closed = 1;
nodes = (
(584,0,l),
(584,100,l),
(199,100,l),
(199,102,l),
(584,630,l),
(584,730,l),
(64,730,l),
(64,630,l),
(449,630,l),
(449,628,l),
(64,100,l),
(64,0,l)
);
}
);
width = 648;
},
{
anchors = (
{
name = bottom;
pos = (326,0);
},
{
name = center;
pos = (326,365);
},
{
name = top;
pos = (326,730);
}
);
layerId = "9E6B41AB-2970-4C41-8B35-4DBE0D296A43";
shapes = (
{
closed = 1;
nodes = (
(596,0,l),
(596,165,l),
(291,165,l),
(291,167,l),
(596,565,l),
(596,730,l),
(56,730,l),
(56,565,l),
(361,565,l),
(361,563,l),
(56,165,l),
(56,0,l)
);
}
);
width = 652;
}
);
metricLeft = "=H*.8";
metricRight = "=|";
unicode = 90;
},
{
glyphname = a;
kernLeft = a;
kernRight = a;
lastChange = "2026-06-03 06:30:05 +0000";
layers = (
{
anchors = (
{
name = bottom;
pos = (265,0);
},
{
name = ogonek;
pos = (485,0);
},
{
name = top;
pos = (255,520);
}
);
layerId = "D65C9A1E-0FCA-4B2D-8EDF-9F36CA9182A1";
shapes = (
{
closed = 1;
nodes = (
(311,-10,o),
(386,45,o),
(418,128,c),
(420,128,l),
(425,82,o),
(439,43,o),
(468,-10,c),
(485,0,l),
(446,69,o),
(435,112,o),
(435,200,cs),
(435,325,ls),
(435,470,o),
(385,530,o),
(264,530,cs),
(192,530,o),
(114,512,o),
(57,481,c),
(67,463,l),
(120,492,o),
(194,510,o),
(264,510,cs),
(373,510,o),
(415,460,o),
(415,325,c),
(172,325,o),
(45,263,o),
(45,138,cs),
(45,49,o),
(113,-10,o),
(214,-10,cs)
);
},
{
closed = 1;
nodes = (
(123,10,o),
(65,61,o),
(65,138,cs),
(65,247,o),
(180,305,o),
(415,305,c),
(415,220,ls),
(415,97,o),
(330,10,o),
(214,10,cs)
);
}
);
width = 512;
},
{
anchors = (
{
name = bottom;
pos = (285,0);
},
{
name = ogonek;
pos = (529,1);
},
{
name = top;
pos = (270,520);
}
);
background = {
shapes = (
{
closed = 1;
nodes = (
(288,-10,o),
(342,15,o),
(388,69,c),
(390,69,l),
(397,42,o),
(407,19,o),
(425,-14,c),
(530,29,l),
(492,95,o),
(480,148,o),
(480,250,cs),
(479,328,ls),
(479,476,o),
(427,530,o),
(284,530,cs),
(201,530,o),
(116,512,o),
(53,481,c),
(72,394,l),
(130,423,o),
(198,440,o),
(262,440,cs),
(343,440,o),
(372,413,o),
(372,337,c),
(155,337,o),
(40,270,o),
(40,144,cs),
(40,48,o),
(106,-10,o),
(216,-10,cs)
);
},
{
closed = 1;
nodes = (
(182,78,o),
(148,108,o),
(148,156,cs),
(148,222,o),
(223,255,o),
(372,255,c),
(372,204,ls),
(372,132,o),
(314,78,o),
(237,78,cs)
);
}
);
};
layerId = "9527F797-22C1-480E-A1FE-2CDBEBE1FD4C";
shapes = (
{
closed = 1;
nodes = (
(288,-10,o),
(340,15,o),
(388,72,c),
(390,72,l),
(400,38,o),
(409,15,o),
(425,-14,c),
(530,29,l),
(492,95,o),
(480,148,o),
(480,250,cs),
(479,328,ls),
(479,476,o),
(427,530,o),
(284,530,cs),
(201,530,o),
(116,512,o),
(53,481,c),
(72,394,l),
(130,423,o),
(198,440,o),
(262,440,cs),
(343,440,o),
(372,413,o),
(372,337,c),
(155,337,o),
(40,270,o),
(40,144,cs),
(40,48,o),
(106,-10,o),
(216,-10,cs)
);
},
{
closed = 1;
nodes = (
(182,78,o),
(148,109,o),
(148,158,cs),
(148,224,o),
(223,257,o),
(372,257,c),
(372,204,ls),
(372,129,o),
(317,78,o),
(237,78,cs)
);
}
);
width = 550;
},
{
anchors = (
{
name = bottom;
pos = (305,0);
},
{
name = ogonek;
pos = (574,2);
},
{
name = top;
pos = (285,520);
}
);
layerId = "9E6B41AB-2970-4C41-8B35-4DBE0D296A43";
shapes = (
{
closed = 1;
nodes = (
(247,-10,o),
(309,19,o),
(347,65,c),
(349,65,l),
(358,32,o),
(369,5,o),
(383,-18,c),
(575,58,l),
(539,120,o),
(525,188,o),
(525,300,cs),
(525,330,ls),
(525,477,o),
(465,530,o),
(299,530,cs),
(205,530,o),
(119,513,o),
(47,480,c),
(77,344,l),
(137,374,o),
(201,390,o),
(260,390,cs),
(313,390,o),
(329,376,o),
(329,330,c),
(139,330,o),
(35,265,o),
(35,147,cs),
(35,55,o),
(98,-10,o),
(187,-10,cs)
);
},
{
closed = 1;
nodes = (
(231,125,o),
(211,143,o),
(211,170,cs),
(211,206,o),
(251,224,o),
(329,224,c),
(329,195,ls),
(329,152,o),
(303,125,o),
(261,125,cs)
);
}
);
width = 592;
},
{
anchors = (
{
name = bottom;
pos = (271,0);
},
{
name = ogonek;
pos = (500,0);
},
{
name = top;
pos = (261,520);
}
);
associatedMasterId = "D65C9A1E-0FCA-4B2D-8EDF-9F36CA9182A1";
attr = {
coordinates = (
232
);
};
background = {
anchors = (
{
name = bottom;
pos = (271,0);
},
{
name = ogonek;
pos = (500,0);
},
{
name = top;
pos = (261,520);
}
);
};
layerId = "51904E7D-07A9-4B4F-8153-155B1F9B55E2";
name = "Feb 27, 25 at 21:12";
shapes = (
{
closed = 1;
nodes = (
(299,-10,o),
(371,28,o),
(411,93,c),
(413,93,l),
(420,59,o),
(432,29,o),
(454,-11,c),
(500,10,l),
(461,78,o),
(450,125,o),
(450,217,cs),
(450,326,ls),
(450,472,o),
(399,530,o),
(270,530,cs),
(194,530,o),
(115,513,o),
(55,481,c),
(68,440,l),
(123,469,o),
(195,487,o),
(263,487,cs),
(363,487,o),
(401,444,o),
(401,329,c),
(166,329,o),
(43,266,o),
(43,140,cs),
(43,49,o),
(110,-10,o),
(215,-10,cs)
);
},
{
closed = 1;
nodes = (
(143,32,o),
(92,77,o),
(92,144,cs),
(92,239,o),
(194,289,o),
(401,289,c),
(401,214,ls),
(401,108,o),
(325,32,o),
(221,32,cs)
);
}
);
width = 522;
}
);
metricLeft = "=o";
metricRight = "=d*.6";
unicode = 97;
},
{
glyphname = ae;
kernLeft = a;
kernRight = o;
lastChange = "2026-05-25 06:26:05 +0000";
layers = (
{
anchors = (
{
name = bottom;
pos = (465,0);
},
{
name = top;
pos = (465,520);
}
);
layerId = "D65C9A1E-0FCA-4B2D-8EDF-9F36CA9182A1";
shapes = (
{
closed = 1;
nodes = (
(123,10,o),
(65,62,o),
(65,145,cs),
(65,249,o),
(159,305,o),
(339,305,cs),
(435,305,l),
(435,190,ls),
(435,89,o),
(341,10,o),
(221,10,cs)
);
},
{
closed = 1;
nodes = (
(352,-10,o),
(455,78,o),
(455,190,cs),
(455,325,ls),
(455,471,o),
(399,530,o),
(262,530,cs),
(195,530,o),
(138,517,o),
(88,490,c),
(99,474,l),
(145,498,o),
(198,510,o),
(262,510,cs),
(388,510,o),
(435,460,o),
(435,325,c),
(339,325,ls),
(148,325,o),
(45,262,o),
(45,145,cs),
(45,50,o),
(113,-10,o),
(221,-10,cs)
);
},
{
closed = 1;
nodes = (
(749,-13,o),
(815,8,o),
(865,47,c),
(853,63,l),
(806,26,o),
(745,7,o),
(677,7,cs),
(534,7,o),
(455,94,o),
(455,257,c),
(455,257,l),
(455,415,o),
(535,507,o),
(670,507,cs),
(798,507,o),
(865,425,o),
(865,265,c),
(875,275,l),
(445,275,l),
(445,255,l),
(885,255,l),
(885,260,o),
(885,260,o),
(885,265,cs),
(885,435,o),
(810,527,o),
(670,527,cs),
(523,527,o),
(435,425,o),
(435,257,cs),
(435,84,o),
(522,-13,o),
(677,-13,cs)
);
}
);
width = 930;
},
{
anchors = (
{
name = bottom;
pos = (461,0);
},
{
name = top;
pos = (461,520);
}
);
layerId = "9527F797-22C1-480E-A1FE-2CDBEBE1FD4C";
shapes = (
{
closed = 1;
nodes = (
(183,78,o),
(148,108,o),
(148,158,cs),
(148,223,o),
(209,256,o),
(332,256,cs),
(392,256,l),
(392,188,ls),
(392,127,o),
(327,78,o),
(246,78,cs)
);
},
{
closed = 1;
nodes = (
(389,-10,o),
(498,95,o),
(498,250,cs),
(498,328,ls),
(498,474,o),
(438,530,o),
(279,530,cs),
(204,530,o),
(142,519,o),
(84,496,c),
(104,406,l),
(157,430,o),
(208,440,o),
(266,440,cs),
(358,440,o),
(392,412,o),
(392,338,c),
(317,338,ls),
(140,338,o),
(40,269,o),
(40,148,cs),
(40,48,o),
(109,-10,o),
(228,-10,cs)
);
},
{
closed = 1;
nodes = (
(738,-10,o),
(806,8,o),
(857,39,c),
(838,126,l),
(788,97,o),
(726,80,o),
(664,80,cs),
(554,80,o),
(498,134,o),
(498,240,cs),
(498,270,l),
(498,382,o),
(549,442,o),
(645,442,cs),
(736,442,o),
(781,387,o),
(781,274,c),
(798,300,l),
(452,300,l),
(452,215,l),
(880,215,l),
(881,227,o),
(882,251,o),
(882,269,cs),
(882,436,o),
(797,530,o),
(645,530,cs),
(487,530,o),
(392,428,o),
(392,260,cs),
(392,87,o),
(489,-10,o),
(663,-10,cs)
);
}
);
width = 922;
},
{
anchors = (
{
name = bottom;
pos = (457,0);
},
{
name = top;
pos = (457,520);
}
);
layerId = "9E6B41AB-2970-4C41-8B35-4DBE0D296A43";
shapes = (
{
closed = 1;
nodes = (
(232,125,o),
(211,141,o),
(211,170,cs),
(211,208,o),
(246,225,o),
(325,225,cs),
(349,225,l),
(349,185,ls),
(349,148,o),
(318,125,o),
(271,125,cs)
);
},
{
closed = 1;
nodes = (
(422,-10,o),
(540,114,o),
(540,310,cs),
(540,330,ls),
(540,476,o),
(475,530,o),
(296,530,cs),
(212,530,o),
(146,521,o),
(80,501,c),
(100,361,l),
(156,380,o),
(215,390,o),
(269,390,cs),
(329,390,o),
(349,375,o),
(349,330,c),
(295,330,ls),
(129,330,o),
(35,265,o),
(35,150,cs),
(35,49,o),
(109,-10,o),
(235,-10,cs)
);
},
{
closed = 1;
nodes = (
(724,-10,o),
(799,5,o),
(848,28,c),
(828,168,l),
(781,146,o),
(709,130,o),
(650,130,cs),
(573,130,o),
(540,157,o),
(540,220,cs),
(540,280,ls),
(540,367,o),
(564,405,o),
(618,405,cs),
(672,405,o),
(696,367,o),
(696,280,c),
(719,315,l),
(458,315,l),
(458,200,l),
(874,200,l),
(876,211,o),
(878,246,o),
(878,270,cs),
(878,434,o),
(782,530,o),
(618,530,cs),
(450,530,o),
(348,428,o),
(348,260,cs),
(348,87,o),
(456,-10,o),
(648,-10,cs)
);
}
);
width = 913;
}
);
metricLeft = "=a";
metricRight = "=e";
unicode = 230;
},
{
glyphname = b;
kernLeft = h;
kernRight = o;
lastChange = "2026-05-25 06:26:48 +0000";
layers = (
{
layerId = "D65C9A1E-0FCA-4B2D-8EDF-9F36CA9182A1";
shapes = (
{
closed = 1;
nodes = (
(110,0,l),
(110,82,l),
(112,82,l),
(151,26,o),
(227,-10,o),
(306,-10,cs),
(436,-10,o),
(510,88,o),
(510,260,cs),
(510,432,o),
(436,530,o),
(306,530,cs),
(227,530,o),
(151,494,o),
(112,438,c),
(110,438,l),
(110,730,l),
(90,730,l),
(90,0,l)
);
},
{
closed = 1;
nodes = (
(213,10,o),
(110,67,o),
(110,152,cs),
(110,368,ls),
(110,453,o),
(213,510,o),
(306,510,cs),
(423,510,o),
(490,422,o),
(490,260,cs),
(490,98,o),
(423,10,o),
(306,10,cs)
);
}
);
width = 555;
},
{
layerId = "9527F797-22C1-480E-A1FE-2CDBEBE1FD4C";
name = Medium;
shapes = (
{
closed = 1;
nodes = (
(187,0,l),
(188,70,l),
(190,70,l),
(236,15,o),
(288,-10,o),
(355,-10,cs),
(487,-10,o),
(560,87,o),
(560,260,cs),
(560,433,o),
(487,530,o),
(355,530,cs),
(289,530,o),
(237,505,o),
(190,450,c),
(188,450,l),
(188,730,l),
(80,730,l),
(80,0,l)
);
},
{
closed = 1;
nodes = (
(255,84,o),
(188,145,o),
(188,217,cs),
(188,303,ls),
(188,375,o),
(255,436,o),
(335,436,cs),
(410,436,o),
(454,371,o),
(454,260,cs),
(454,149,o),
(410,84,o),
(335,84,cs)
);
}
);
width = 600;
},
{
associatedMasterId = "D65C9A1E-0FCA-4B2D-8EDF-9F36CA9182A1";
attr = {
coordinates = (
232
);
};
layerId = "224B9E35-8107-461C-9404-30749D2F6E5F";
name = "Mar 19, 25 at 16:45";
shapes = (
{
closed = 1;
nodes = (
(135,0,l),
(136,70,l),
(138,70,l),
(179,20,o),
(248,-10,o),
(322,-10,cs),
(454,-10,o),
(527,86,o),
(527,260,cs),
(527,434,o),
(454,530,o),
(322,530,cs),
(248,530,o),
(179,500,o),
(138,450,c),
(136,450,l),
(136,730,l),
(87,730,l),
(87,0,l)
);
},
{
closed = 1;
nodes = (
(220,37,o),
(136,99,o),
(136,170,cs),
(136,350,ls),
(136,421,o),
(220,483,o),
(314,483,cs),
(419,483,o),
(478,403,o),
(478,260,cs),
(478,117,o),
(419,37,o),
(314,37,cs)
);
}
);
width = 570;
},
{
layerId = "9E6B41AB-2970-4C41-8B35-4DBE0D296A43";
name = Black;
shapes = (
{
closed = 1;
nodes = (
(264,0,l),
(266,70,l),
(268,70,l),
(302,15,o),
(347,-10,o),
(413,-10,cs),
(541,-10,o),
(610,84,o),
(610,260,cs),
(610,436,o),
(541,530,o),
(413,530,cs),
(347,530,o),
(302,505,o),
(268,450,c),
(266,450,l),
(266,730,l),
(70,730,l),
(70,0,l)
);
},
{
closed = 1;
nodes = (
(301,135,o),
(266,171,o),
(266,217,cs),
(266,303,ls),
(266,349,o),
(301,385,o),
(346,385,cs),
(394,385,o),
(418,343,o),
(418,260,cs),
(418,177,o),
(394,135,o),
(346,135,cs)
);
}
);
width = 645;
}
);
metricLeft = "=h";
metricRight = "=o";
unicode = 98;
},
{
glyphname = c;
kernLeft = o;
kernRight = c;
lastChange = "2026-05-25 06:25:39 +0000";
layers = (
{
anchors = (
{
name = bottom;
pos = (290,0);
},
{
name = cedi;
pos = (223,0);
},
{
name = top;
pos = (290,520);
}
);
layerId = "9527F797-22C1-480E-A1FE-2CDBEBE1FD4C";
shapes = (
{
closed = 1;
nodes = (
(375,-10,o),
(430,1,o),
(480,23,c),
(461,110,l),
(419,90,o),
(374,80,o),
(327,80,cs),
(210,80,o),
(150,141,o),
(150,260,cs),
(150,379,o),
(210,440,o),
(327,440,cs),
(374,440,o),
(419,430,o),
(461,410,c),
(480,497,l),
(430,519,o),
(375,530,o),
(314,530,cs),
(136,530,o),
(40,435,o),
(40,260,cs),
(40,85,o),
(136,-10,o),
(314,-10,cs)
);
}
);
width = 538;
},
{
anchors = (
{
name = bottom;
pos = (275,0);
},
{
name = cedi;
pos = (217,0);
},
{
name = top;
pos = (275,520);
}
);
layerId = "D65C9A1E-0FCA-4B2D-8EDF-9F36CA9182A1";
shapes = (
{
closed = 1;
nodes = (
(351,-10,o),
(399,0,o),
(445,20,c),
(437,38,l),
(393,19,o),
(349,10,o),
(299,10,cs),
(148,10,o),
(65,99,o),
(65,260,cs),
(65,421,o),
(148,510,o),
(299,510,cs),
(349,510,o),
(393,501,o),
(437,482,c),
(445,500,l),
(399,520,o),
(351,530,o),
(299,530,cs),
(137,530,o),
(45,432,o),
(45,260,cs),
(45,88,o),
(137,-10,o),
(299,-10,cs)
);
}
);
width = 510;
},
{
anchors = (
{
name = bottom;
pos = (305,0);
},
{
name = cedi;
pos = (224,0);
},
{
name = top;
pos = (305,520);
}
);
layerId = "9E6B41AB-2970-4C41-8B35-4DBE0D296A43";
name = Black;
shapes = (
{
closed = 1;
nodes = (
(390,-10,o),
(461,3,o),
(515,26,c),
(485,162,l),
(438,141,o),
(393,130,o),
(353,130,cs),
(273,130,o),
(235,172,o),
(235,260,cs),
(235,348,o),
(273,390,o),
(353,390,cs),
(393,390,o),
(438,379,o),
(485,358,c),
(515,494,l),
(461,517,o),
(390,530,o),
(320,530,cs),
(133,530,o),
(35,437,o),
(35,260,cs),
(35,83,o),
(133,-10,o),
(320,-10,cs)
);
}
);
width = 565;
}
);
metricLeft = "=o";
metricRight = "=h*.9";
unicode = 99;
},
{
glyphname = d;
kernLeft = o;
kernRight = d;
lastChange = "2026-05-25 06:26:50 +0000";
layers = (
{
layerId = "D65C9A1E-0FCA-4B2D-8EDF-9F36CA9182A1";
metricRight = "=|h*.5";
shapes = (
{
closed = 1;
nodes = (
(344,-10,o),
(422,36,o),
(452,98,c),
(454,98,l),
(461,64,o),
(474,31,o),
(497,-10,c),
(515,0,l),
(476,68,o),
(465,112,o),
(465,199,cs),
(465,730,l),
(445,730,l),
(445,438,l),
(443,438,l),
(406,494,o),
(334,530,o),
(259,530,cs),
(123,530,o),
(45,432,o),
(45,260,cs),
(45,88,o),
(123,-10,o),
(259,-10,cs)
);
},
{
closed = 1;
nodes = (
(135,10,o),
(65,98,o),
(65,260,cs),
(65,422,o),
(135,510,o),
(259,510,cs),
(357,510,o),
(445,442,o),
(445,368,cs),
(445,152,ls),
(445,78,o),
(357,10,o),
(259,10,cs)
);
}
);
width = 560;
},
{
layerId = "9E6B41AB-2970-4C41-8B35-4DBE0D296A43";
metricRight = "=|h*.4";
shapes = (
{
closed = 1;
nodes = (
(297,-10,o),
(350,14,o),
(397,65,c),
(399,65,l),
(408,32,o),
(419,6,o),
(433,-18,c),
(625,58,l),
(589,120,o),
(575,188,o),
(575,300,cs),
(575,730,l),
(379,730,l),
(379,450,l),
(377,450,l),
(343,505,o),
(298,530,o),
(232,530,cs),
(104,530,o),
(35,436,o),
(35,260,cs),
(35,84,o),
(104,-10,o),
(232,-10,cs)
);
},
{
closed = 1;
nodes = (
(251,135,o),
(227,177,o),
(227,260,cs),
(227,343,o),
(251,385,o),
(299,385,cs),
(344,385,o),
(379,349,o),
(379,303,cs),
(379,217,ls),
(379,171,o),
(344,135,o),
(299,135,cs)
);
}
);
width = 653;
},
{
associatedMasterId = "D65C9A1E-0FCA-4B2D-8EDF-9F36CA9182A1";
attr = {
coordinates = (
232
);
};
layerId = "B4AAD0EF-2F8B-401C-AEC0-E53A33AE0A71";
name = "Feb 28, 25 at 16:12";
shapes = (
{
closed = 1;
nodes = (
(331,-10,o),
(409,28,o),
(445,85,c),
(447,85,l),
(453,54,o),
(466,22,o),
(486,-11,c),
(533,10,l),
(494,79,o),
(483,125,o),
(483,216,cs),
(483,730,l),
(434,730,l),
(434,450,l),
(432,450,l),
(391,500,o),
(322,530,o),
(248,530,cs),
(116,530,o),
(43,434,o),
(43,260,cs),
(43,86,o),
(116,-10,o),
(248,-10,cs)
);
},
{
closed = 1;
nodes = (
(151,37,o),
(92,117,o),
(92,260,cs),
(92,403,o),
(151,483,o),
(256,483,cs),
(350,483,o),
(434,421,o),
(434,350,cs),
(434,170,ls),
(434,99,o),
(350,37,o),
(256,37,cs)
);
}
);
width = 570;
},
{
layerId = "9527F797-22C1-480E-A1FE-2CDBEBE1FD4C";
name = Medium;
shapes = (
{
closed = 1;
nodes = (
(320,-10,o),
(381,21,o),
(426,82,c),
(428,82,l),
(432,52,o),
(444,21,o),
(465,-14,c),
(570,29,l),
(532,98,o),
(520,151,o),
(520,250,cs),
(520,730,l),
(412,730,l),
(412,450,l),
(410,450,l),
(363,505,o),
(311,530,o),
(245,530,cs),
(113,530,o),
(40,433,o),
(40,260,cs),
(40,87,o),
(113,-10,o),
(245,-10,cs)
);
},
{
closed = 1;
nodes = (
(190,84,o),
(146,149,o),
(146,260,cs),
(146,371,o),
(190,436,o),
(265,436,cs),
(345,436,o),
(412,375,o),
(412,303,cs),
(412,217,ls),
(412,145,o),
(345,84,o),
(265,84,cs)
);
}
);
width = 604;
}
);
metricLeft = "=|b";
metricRight = "=|h*.42";
unicode = 100;
},
{
glyphname = dcroat;
kernLeft = o;
kernRight = x;
lastChange = "2026-05-25 06:25:52 +0000";
layers = (
{
layerId = "D65C9A1E-0FCA-4B2D-8EDF-9F36CA9182A1";
metricRight = "=d-50";
shapes = (
{
closed = 1;
nodes = (
(587,605,l),
(587,625,l),
(167,625,l),
(167,605,l)
);
},
{
ref = d;
}
);
width = 582;
},
{
layerId = "9527F797-22C1-480E-A1FE-2CDBEBE1FD4C";
metricRight = "=d-40";
shapes = (
{
closed = 1;
nodes = (
(633,570,l),
(633,660,l),
(213,660,l),
(213,570,l)
);
},
{
alignment = -1;
ref = d;
}
);
width = 627;
},
{
layerId = "9E6B41AB-2970-4C41-8B35-4DBE0D296A43";
metricRight = "=d-30";
shapes = (
{
closed = 1;
nodes = (
(679,545,l),
(679,685,l),
(259,685,l),
(259,545,l)
);
},
{
ref = d;
}
);
width = 677;
}
);
metricLeft = "=d";
metricRight = "=K";
unicode = 273;
},
{
glyphname = eth;
kernLeft = O;
kernRight = O;
lastChange = "2026-05-25 06:26:52 +0000";
layers = (
{
layerId = "D65C9A1E-0FCA-4B2D-8EDF-9F36CA9182A1";
shapes = (
{
closed = 1;
nodes = (
(425,-10,o),
(515,84,o),
(515,235,cs),
(515,445,o),
(336,735,o),
(172,790,c),
(165,772,l),
(281,733,o),
(409,566,o),
(466,399,c),
(464,398,l),
(423,451,o),
(360,480,o),
(280,480,cs),
(135,480,o),
(45,386,o),
(45,235,cs),
(45,84,o),
(135,-10,o),
(280,-10,cs)
);
},
{
closed = 1;
nodes = (
(146,10,o),
(65,95,o),
(65,235,cs),
(65,375,o),
(146,460,o),
(280,460,cs),
(414,460,o),
(495,375,o),
(495,235,cs),
(495,95,o),
(414,10,o),
(280,10,cs)
);
},
{
closed = 1;
nodes = (
(506,697,l),
(498,715,l),
(58,540,l),
(66,522,l)
);
}
);
width = 569;
},
{
layerId = "9527F797-22C1-480E-A1FE-2CDBEBE1FD4C";
shapes = (
{
closed = 1;
nodes = (
(459,-10,o),
(550,88,o),
(550,263,cs),
(550,544,o),
(385,758,o),
(145,790,c),
(125,700,l),
(263,681,o),
(376,579,o),
(419,435,c),
(417,434,l),
(384,465,o),
(339,480,o),
(280,480,cs),
(131,480,o),
(40,391,o),
(40,243,cs),
(40,84,o),
(135,-10,o),
(295,-10,cs)
);
},
{
closed = 1;
nodes = (
(202,80,o),
(148,140,o),
(148,243,cs),
(148,341,o),
(197,390,o),
(295,390,cs),
(393,390,o),
(442,341,o),
(442,243,cs),
(442,140,o),
(388,80,o),
(295,80,cs)
);
},
{
closed = 1;
nodes = (
(543,665,l),
(507,749,l),
(67,574,l),
(103,490,l)
);
}
);
width = 598;
},
{
layerId = "9E6B41AB-2970-4C41-8B35-4DBE0D296A43";
shapes = (
{
closed = 1;
nodes = (
(496,-10,o),
(585,84,o),
(585,280,cs),
(585,601,o),
(427,776,o),
(125,790,c),
(85,660,l),
(249,652,o),
(366,575,o),
(372,471,c),
(370,470,l),
(346,476,o),
(314,480,o),
(280,480,cs),
(124,480,o),
(35,397,o),
(35,250,cs),
(35,89,o),
(139,-10,o),
(310,-10,cs)
);
},
{
closed = 1;
nodes = (
(254,125,o),
(229,163,o),
(229,250,cs),
(229,337,o),
(254,375,o),
(310,375,cs),
(366,375,o),
(391,337,o),
(391,250,cs),
(391,163,o),
(366,125,o),
(310,125,cs)
);
},
{
closed = 1;
nodes = (
(570,643,l),
(515,773,l),
(75,598,l),
(130,468,l)
);
}
);
width = 627;
},
{
associatedMasterId = "D65C9A1E-0FCA-4B2D-8EDF-9F36CA9182A1";
attr = {
coordinates = (
232
);
};
layerId = "7EB7DD1D-0E67-4B53-AED1-36A39ED50BF4";
name = "{232}";
shapes = (
{
closed = 1;
nodes = (
(436,-10,o),
(526,85,o),
(526,244,cs),
(526,478,o),
(352,743,o),
(162,790,c),
(147,749,l),
(269,720,o),
(392,578,o),
(447,423,c),
(445,422,l),
(406,459,o),
(350,480,o),
(279,480,cs),
(133,480,o),
(43,388,o),
(43,238,cs),
(43,84,o),
(134,-10,o),
(284,-10,cs)
);
},
{
closed = 1;
nodes = (
(164,33,o),
(92,110,o),
(92,238,cs),
(92,364,o),
(162,437,o),
(284,437,cs),
(406,437,o),
(477,364,o),
(477,238,cs),
(477,110,o),
(405,33,o),
(284,33,cs)
);
},
{
closed = 1;
nodes = (
(517,686,l),
(500,726,l),
(60,551,l),
(77,511,l)
);
}
);
width = 578;
}
);
metricLeft = "=o";
metricRight = "=O";
unicode = 240;
},
{
glyphname = e;
kernLeft = o;
kernRight = o;
lastChange = "2026-05-25 06:25:52 +0000";
layers = (
{
anchors = (
{
name = bottom;
pos = (285,0);
},
{
name = ogonek;
pos = (481,29);
},
{
name = top;
pos = (285,520);
}
);
layerId = "9527F797-22C1-480E-A1FE-2CDBEBE1FD4C";
shapes = (
{
closed = 1;
nodes = (
(376,-10,o),
(441,4,o),
(487,29,c),
(468,116,l),
(423,93,o),
(362,80,o),
(307,80,cs),
(198,80,o),
(146,131,o),
(146,235,c),
(146,270,l),
(146,386,o),
(194,446,o),
(283,446,cs),
(367,446,o),
(409,390,o),
(409,274,c),
(432,304,l),
(99,304,l),
(99,222,l),
(508,222,l),
(509,233,o),
(510,256,o),
(510,269,cs),
(510,437,o),
(429,530,o),
(283,530,cs),
(131,530,o),
(40,429,o),
(40,260,cs),
(40,85,o),
(134,-10,o),
(308,-10,cs)
);
}
);
width = 550;
},
{
anchors = (
{
name = bottom;
pos = (270,0);
},
{
name = ogonek;
pos = (455,30);
},
{
name = top;
pos = (270,520);
}
);
layerId = "D65C9A1E-0FCA-4B2D-8EDF-9F36CA9182A1";
shapes = (
{
closed = 1;
nodes = (
(351,-10,o),
(412,5,o),
(455,30,c),
(445,47,l),
(405,24,o),
(348,10,o),
(287,10,cs),
(140,10,o),
(65,92,o),
(65,260,c),
(65,260,l),
(65,419,o),
(141,510,o),
(270,510,cs),
(391,510,o),
(455,429,o),
(455,268,c),
(465,278,l),
(55,278,l),
(55,258,l),
(475,258,l),
(475,263,o),
(475,263,o),
(475,268,cs),
(475,439,o),
(404,530,o),
(270,530,cs),
(129,530,o),
(45,429,o),
(45,260,cs),
(45,82,o),
(128,-10,o),
(287,-10,cs)
);
}
);
width = 520;
},
{
anchors = (
{
name = bottom;
pos = (300,0);
},
{
name = ogonek;
pos = (505,28);
},
{
name = top;
pos = (300,520);
}
);
layerId = "9E6B41AB-2970-4C41-8B35-4DBE0D296A43";
name = Black;
shapes = (
{
closed = 1;
nodes = (
(401,-10,o),
(471,4,o),
(518,28,c),
(488,164,l),
(445,144,o),
(379,130,o),
(327,130,cs),
(256,130,o),
(227,156,o),
(227,220,cs),
(227,280,ls),
(227,368,o),
(247,405,o),
(295,405,cs),
(342,405,o),
(363,366,o),
(363,280,c),
(399,315,l),
(143,315,l),
(143,200,l),
(541,200,l),
(543,211,o),
(545,246,o),
(545,270,cs),
(545,434,o),
(452,530,o),
(295,530,cs),
(133,530,o),
(35,428,o),
(35,260,cs),
(35,87,o),
(140,-10,o),
(329,-10,cs)
);
}
);
width = 580;
}
);
metricLeft = "=o";
metricRight = "=|";
unicode = 101;
},
{
glyphname = f;
kernLeft = f;
kernRight = f;
lastChange = "2026-06-03 06:33:33 +0000";
layers = (
{
layerId = "9527F797-22C1-480E-A1FE-2CDBEBE1FD4C";
shapes = (
{
closed = 1;
nodes = (
(279,0,l),
(279,400,l),
(489,400,l),
(489,490,l),
(279,490,l),
(279,585,ls),
(279,653,o),
(312,680,o),
(396,680,cs),
(424,680,o),
(445,677,o),
(475,668,c),
(494,755,l),
(456,765,o),
(415,770,o),
(376,770,cs),
(239,770,o),
(170,708,o),
(170,585,cs),
(170,490,l),
(24,490,l),
(24,400,l),
(170,400,l),
(170,0,l)
);
}
);
width = 513;
},
{
layerId = "D65C9A1E-0FCA-4B2D-8EDF-9F36CA9182A1";
shapes = (
{
closed = 1;
nodes = (
(227,0,l),
(227,460,l),
(472,460,l),
(472,480,l),
(227,480,l),
(227,620,ls),
(227,710,o),
(273,750,o),
(383,750,cs),
(416,750,o),
(438,747,o),
(471,736,c),
(477,755,l),
(443,766,o),
(418,770,o),
(383,770,cs),
(263,770,o),
(207,722,o),
(207,620,cs),
(207,480,l),
(27,480,l),
(27,460,l),
(207,460,l),
(207,0,l)
);
}
);
width = 499;
},
{
layerId = "9E6B41AB-2970-4C41-8B35-4DBE0D296A43";
name = Black;
shapes = (
{
closed = 1;
nodes = (
(330,0,l),
(330,360,l),
(506,360,l),
(506,500,l),
(330,500,l),
(330,550,ls),
(330,611,o),
(348,630,o),
(406,630,cs),
(429,630,o),
(451,627,o),
(481,620,c),
(511,755,l),
(469,764,o),
(412,770,o),
(369,770,cs),
(215,770,o),
(132,693,o),
(132,550,cs),
(132,500,l),
(21,500,l),
(21,360,l),
(132,360,l),
(132,0,l)
);
}
);
width = 528;
}
);
metricLeft = "=h*.3";
metricRight = "=|*.8";
unicode = 102;
},
{
glyphname = g;
kernLeft = o;
kernRight = g;
lastChange = "2026-05-25 06:26:54 +0000";
layers = (
{
anchors = (
{
name = bottom;
pos = (280,0);
},
{
name = top;
pos = (280,520);
}
);
layerId = "D65C9A1E-0FCA-4B2D-8EDF-9F36CA9182A1";
name = Thin;
shapes = (
{
closed = 1;
nodes = (
(406,160,o),
(485,228,o),
(485,345,cs),
(485,520,l),
(465,520,l),
(465,438,l),
(463,438,l),
(431,498,o),
(365,530,o),
(275,530,cs),
(144,530,o),
(65,462,o),
(65,345,cs),
(65,228,o),
(144,160,o),
(275,160,cs)
);
},
{
closed = 1;
nodes = (
(154,180,o),
(85,240,o),
(85,345,cs),
(85,450,o),
(154,510,o),
(275,510,cs),
(396,510,o),
(465,450,o),
(465,345,cs),
(465,240,o),
(396,180,o),
(275,180,cs)
);
},
{
closed = 1;
nodes = (
(403,-230,o),
(495,-169,o),
(495,-63,cs),
(495,156,o),
(90,2,o),
(90,135,cs),
(90,162,o),
(107,188,o),
(133,201,c),
(124,219,l),
(92,203,o),
(70,170,o),
(70,135,cs),
(70,-28,o),
(475,135,o),
(475,-63,cs),
(475,-155,o),
(394,-210,o),
(242,-210,cs),
(175,-210,o),
(130,-200,o),
(53,-168,c),
(45,-187,l),
(123,-219,o),
(173,-230,o),
(242,-230,cs)
);
}
);
width = 553;
},
{
anchors = (
{
name = bottom;
pos = (290,0);
},
{
name = top;
pos = (290,520);
}
);
layerId = "9527F797-22C1-480E-A1FE-2CDBEBE1FD4C";
name = Medium;
shapes = (
{
closed = 1;
nodes = (
(435,130,o),
(515,199,o),
(515,323,cs),
(515,520,l),
(408,520,l),
(407,460,l),
(405,460,l),
(375,504,o),
(315,530,o),
(244,530,cs),
(123,530,o),
(45,455,o),
(45,340,cs),
(45,211,o),
(140,130,o),
(293,130,cs)
);
},
{
closed = 1;
nodes = (
(200,211,o),
(153,253,o),
(153,325,cs),
(153,397,o),
(196,439,o),
(270,439,cs),
(356,439,o),
(407,397,o),
(407,325,cs),
(407,253,o),
(360,211,o),
(280,211,cs)
);
},
{
closed = 1;
nodes = (
(432,-230,o),
(520,-171,o),
(520,-62,cs),
(520,158,o),
(163,33,o),
(163,129,cs),
(163,147,o),
(175,157,o),
(212,169,c),
(141,233,l),
(84,199,o),
(60,165,o),
(60,118,cs),
(60,-64,o),
(412,65,o),
(412,-67,cs),
(412,-115,o),
(356,-142,o),
(257,-142,cs),
(191,-142,o),
(131,-130,o),
(53,-101,c),
(40,-188,l),
(113,-216,o),
(190,-230,o),
(270,-230,cs)
);
}
);
width = 571;
},
{
anchors = (
{
name = bottom;
pos = (306,0);
},
{
name = top;
pos = (306,520);
}
);
background = {
anchors = (
{
name = bottom;
pos = (369,-140);
},
{
name = top;
pos = (369,520);
}
);
};
layerId = "9E6B41AB-2970-4C41-8B35-4DBE0D296A43";
name = Black;
shapes = (
{
closed = 1;
nodes = (
(477,140,o),
(556,201,o),
(556,321,cs),
(556,520,l),
(362,520,l),
(360,460,l),
(358,460,l),
(328,505,o),
(276,530,o),
(212,530,cs),
(104,530,o),
(35,462,o),
(35,355,cs),
(35,222,o),
(144,140,o),
(322,140,cs)
);
},
{
closed = 1;
nodes = (
(251,241,o),
(230,266,o),
(230,319,cs),
(230,372,o),
(251,397,o),
(295,397,cs),
(339,397,o),
(360,372,o),
(360,319,cs),
(360,266,o),
(339,241,o),
(295,241,cs)
);
},
{
closed = 1;
nodes = (
(476,-230,o),
(555,-174,o),
(555,-61,cs),
(555,169,o),
(220,67,o),
(220,130,cs),
(220,146,o),
(245,170,o),
(276,184,c),
(168,247,l),
(95,200,o),
(60,152,o),
(60,99,cs),
(60,-59,o),
(359,34,o),
(359,-51,cs),
(359,-78,o),
(335,-90,o),
(281,-90,cs),
(221,-90,o),
(144,-76,o),
(62,-50,c),
(45,-190,l),
(119,-214,o),
(226,-230,o),
(314,-230,cs)
);
}
);
width = 601;
},
{
anchors = (
{
name = bottom;
pos = (279,0);
},
{
name = top;
pos = (279,520);
}
);
associatedMasterId = "D65C9A1E-0FCA-4B2D-8EDF-9F36CA9182A1";
attr = {
coordinates = (
232
);
};
background = {
shapes = (
{
closed = 1;
nodes = (
(415,150,o),
(494,218,o),
(494,338,cs),
(494,520,l),
(446,520,l),
(445,450,l),
(443,450,l),
(411,502,o),
(348,530,o),
(263,530,cs),
(136,530,o),
(58,460,o),
(58,343,cs),
(58,222,o),
(142,150,o),
(280,150,cs)
);
},
{
closed = 1;
nodes = (
(169,190,o),
(107,244,o),
(107,338,cs),
(107,433,o),
(169,487,o),
(276,487,cs),
(383,487,o),
(445,433,o),
(445,338,cs),
(445,244,o),
(383,190,o),
(276,190,cs)
);
},
{
closed = 1;
nodes = (
(412,-230,o),
(503,-170,o),
(503,-63,cs),
(503,157,o),
(114,12,o),
(114,133,cs),
(114,157,o),
(128,177,o),
(159,190,c),
(129,224,l),
(89,202,o),
(66,168,o),
(66,129,cs),
(66,-40,o),
(454,112,o),
(454,-64,cs),
(454,-142,o),
(381,-188,o),
(247,-188,cs),
(180,-188,o),
(130,-177,o),
(53,-146,c),
(43,-187,l),
(120,-218,o),
(178,-230,o),
(251,-230,cs)
);
}
);
};
layerId = "0C3AA9F7-8415-4249-8F87-F1C6784A009D";
metricRight = "=h*.5";
name = "{232} Apr 2, 26 at 15:14";
shapes = (
{
closed = 1;
nodes = (
(415,150,o),
(494,218,o),
(494,338,cs),
(494,520,l),
(446,520,l),
(445,450,l),
(443,450,l),
(412,501,o),
(348,530,o),
(264,530,cs),
(136,530,o),
(58,460,o),
(58,343,cs),
(58,222,o),
(142,150,o),
(280,150,cs)
);
},
{
closed = 1;
nodes = (
(169,190,o),
(107,244,o),
(107,338,cs),
(107,433,o),
(167,487,o),
(273,487,cs),
(382,487,o),
(445,433,o),
(445,338,cs),
(445,244,o),
(383,190,o),
(276,190,cs)
);
},
{
closed = 1;
nodes = (
(412,-230,o),
(503,-170,o),
(503,-63,cs),
(503,157,o),
(113,12,o),
(113,133,cs),
(113,157,o),
(130,178,o),
(158,190,c),
(129,224,l),
(89,202,o),
(66,168,o),
(66,129,cs),
(66,-40,o),
(454,112,o),
(454,-64,cs),
(454,-142,o),
(381,-188,o),
(246,-188,cs),
(180,-188,o),
(129,-177,o),
(52,-146,c),
(43,-187,l),
(120,-218,o),
(178,-230,o),
(251,-230,cs)
);
}
);
width = 538;
}
);
metricLeft = "=d";
metricRight = "=h*.8";
unicode = 103;
},
{
glyphname = h;
kernLeft = h;
kernRight = h;
lastChange = "2026-05-25 06:25:24 +0000";
layers = (
{
anchors = (
{
name = bottom;
pos = (290,0);
},
{
name = center;
pos = (290,430);
},
{
name = top;
pos = (290,730);
}
);
layerId = "D65C9A1E-0FCA-4B2D-8EDF-9F36CA9182A1";
shapes = (
{
closed = 1;
nodes = (
(110,0,l),
(110,360,ls),
(110,384,o),
(200,510,o),
(324,510,cs),
(413,510,o),
(470,438,o),
(470,320,cs),
(470,0,l),
(490,0,l),
(490,320,ls),
(490,448,o),
(425,530,o),
(324,530,cs),
(247,530,o),
(164,482,o),
(112,407,c),
(110,407,l),
(110,730,l),
(90,730,l),
(90,0,l)
);
}
);
width = 562;
},
{
anchors = (
{
name = bottom;
pos = (305,0);
},
{
name = center;
pos = (305,430);
},
{
name = top;
pos = (305,730);
}
);
layerId = "9527F797-22C1-480E-A1FE-2CDBEBE1FD4C";
shapes = (
{
closed = 1;
nodes = (
(188,0,l),
(188,294,ls),
(188,356,o),
(261,434,o),
(339,434,cs),
(396,434,o),
(423,392,o),
(423,305,cs),
(423,0,l),
(530,0,l),
(530,305,ls),
(530,456,o),
(478,530,o),
(373,530,cs),
(306,530,o),
(240,500,o),
(190,450,c),
(188,450,l),
(188,730,l),
(80,730,l),
(80,0,l)
);
}
);
width = 594;
},
{
anchors = (
{
name = bottom;
pos = (320,0);
},
{
name = center;
pos = (320,430);
},
{
name = top;
pos = (320,730);
}
);
layerId = "9E6B41AB-2970-4C41-8B35-4DBE0D296A43";
name = Black;
shapes = (
{
closed = 1;
nodes = (
(266,0,l),
(266,320,ls),
(266,343,o),
(306,370,o),
(340,370,cs),
(368,370,o),
(376,352,o),
(376,290,cs),
(376,0,l),
(570,0,l),
(570,290,ls),
(570,457,o),
(525,530,o),
(423,530,cs),
(363,530,o),
(315,505,o),
(268,450,c),
(266,450,l),
(266,730,l),
(70,730,l),
(70,0,l)
);
}
);
width = 626;
}
);
metricLeft = "=H";
metricRight = "=|*.8";
unicode = 104;
},
{
glyphname = hbar;
kernLeft = W;
kernRight = h;
lastChange = "2026-05-25 06:26:05 +0000";
layers = (
{
anchors = (
{
name = bottom;
pos = (323,0);
},
{
name = center;
pos = (323,430);
},
{
name = top;
pos = (323,750);
}
);
layerId = "D65C9A1E-0FCA-4B2D-8EDF-9F36CA9182A1";
shapes = (
{
closed = 1;
nodes = (
(438,625,l),
(18,625,l),
(18,605,l),
(438,605,l)
);
},
{
pos = (53,0);
ref = h;
}
);
width = 615;
},
{
anchors = (
{
name = bottom;
pos = (352,0);
},
{
name = center;
pos = (352,430);
},
{
name = top;
pos = (352,750);
}
);
layerId = "9527F797-22C1-480E-A1FE-2CDBEBE1FD4C";
shapes = (
{
closed = 1;
nodes = (
(444,660,l),
(24,660,l),
(24,570,l),
(444,570,l)
);
},
{
alignment = -1;
pos = (62,0);
ref = h;
}
);
width = 656;
},
{
anchors = (
{
name = bottom;
pos = (372,0);
},
{
name = center;
pos = (372,430);
},
{
name = top;
pos = (372,750);
}
);
layerId = "9E6B41AB-2970-4C41-8B35-4DBE0D296A43";
shapes = (
{
closed = 1;
nodes = (
(441,685,l),
(21,685,l),
(21,545,l),
(441,545,l)
);
},
{
pos = (62,0);
ref = h;
}
);
width = 688;
}
);
metricLeft = "=W";
metricRight = "=h";
unicode = 295;
},
{
glyphname = i;
kernLeft = i;
kernRight = i;
lastChange = "2026-05-25 06:25:39 +0000";
layers = (
{
anchors = (
{
name = bottom;
pos = (160,0);
}
);
background = {
anchors = (
{
name = bottom;
pos = (159,0);
}
);
};
layerId = "9527F797-22C1-480E-A1FE-2CDBEBE1FD4C";
shapes = (
{
closed = 1;
nodes = (
(215,0,l),
(215,520,l),
(105,520,l),
(105,0,l)
);
},
{
closed = 1;
nodes = (
(207,584,o),
(241,617,o),
(241,662,cs),
(241,707,o),
(207,740,o),
(160,740,cs),
(113,740,o),
(79,707,o),
(79,662,cs),
(79,617,o),
(113,584,o),
(160,584,cs)
);
}
);
width = 320;
},
{
anchors = (
{
name = bottom;
pos = (179,0);
}
);
layerId = "9E6B41AB-2970-4C41-8B35-4DBE0D296A43";
shapes = (
{
closed = 1;
nodes = (
(279,0,l),
(279,480,l),
(79,480,l),
(79,0,l)
);
},
{
closed = 1;
nodes = (
(243,530,o),
(289,574,o),
(289,635,cs),
(289,696,o),
(243,740,o),
(179,740,cs),
(115,740,o),
(69,696,o),
(69,635,cs),
(69,574,o),
(115,530,o),
(179,530,cs)
);
}
);
width = 358;
},
{
anchors = (
{
name = bottom;
pos = (130,0);
}
);
layerId = "D65C9A1E-0FCA-4B2D-8EDF-9F36CA9182A1";
name = Thin;
shapes = (
{
closed = 1;
nodes = (
(140,0,l),
(140,520,l),
(120,520,l),
(120,0,l)
);
},
{
closed = 1;
nodes = (
(153,660,o),
(171,678,o),
(171,700,cs),
(171,722,o),
(153,740,o),
(130,740,cs),
(107,740,o),
(89,722,o),
(89,700,cs),
(89,678,o),
(107,660,o),
(130,660,cs)
);
}
);
width = 260;
}
);
metricLeft = "=l*.9";
metricRight = "=|";
unicode = 105;
},
{
glyphname = idotless;
kernLeft = i;
kernRight = i;
lastChange = "2026-05-25 06:25:52 +0000";
layers = (
{
anchors = (
{
name = bottom;
pos = (130,0);
},
{
name = ogonek;
pos = (140,0);
},
{
name = top;
pos = (130,520);
}
);
layerId = "D65C9A1E-0FCA-4B2D-8EDF-9F36CA9182A1";
metricLeft = "=i+31";
shapes = (
{
closed = 1;
nodes = (
(140,0,l),
(140,520,l),
(120,520,l),
(120,0,l)
);
}
);
width = 260;
},
{
anchors = (
{
name = bottom;
pos = (160,0);
},
{
name = ogonek;
pos = (215,0);
},
{
name = top;
pos = (160,520);
}
);
layerId = "9527F797-22C1-480E-A1FE-2CDBEBE1FD4C";
metricLeft = "=i+26";
shapes = (
{
closed = 1;
nodes = (
(215,0,l),
(215,520,l),
(105,520,l),
(105,0,l)
);
}
);
width = 320;
},
{
anchors = (
{
name = bottom;
pos = (179,0);
},
{
name = ogonek;
pos = (279,0);
},
{
name = top;
pos = (179,520);
}
);
layerId = "9E6B41AB-2970-4C41-8B35-4DBE0D296A43";
metricLeft = "=i+10";
shapes = (
{
closed = 1;
nodes = (
(279,0,l),
(279,520,l),
(79,520,l),
(79,0,l)
);
}
);
width = 358;
}
);
metricLeft = "=i-10";
metricRight = "=|";
unicode = 305;
},
{
glyphname = j;
kernLeft = j;
kernRight = i;
lastChange = "2026-06-02 06:42:03 +0000";
layers = (
{
background = {
shapes = (
{
closed = 0;
nodes = (
(-35,-131,l),
(-16,-218,l)
);
}
);
};
layerId = "9527F797-22C1-480E-A1FE-2CDBEBE1FD4C";
metricLeft = "=-35";
shapes = (
{
closed = 1;
nodes = (
(227,584,o),
(261,617,o),
(261,662,cs),
(261,707,o),
(227,740,o),
(180,740,cs),
(133,740,o),
(99,707,o),
(99,662,cs),
(99,617,o),
(133,584,o),
(180,584,cs)
);
},
{
closed = 1;
nodes = (
(148,-197,o),
(235,-76,o),
(235,130,cs),
(235,520,l),
(125,520,l),
(125,130,ls),
(125,-34,o),
(78,-111,o),
(-35,-131,c),
(-16,-218,l)
);
}
);
width = 340;
},
{
layerId = "D65C9A1E-0FCA-4B2D-8EDF-9F36CA9182A1";
metricLeft = "=-30";
shapes = (
{
closed = 1;
nodes = (
(183,660,o),
(201,678,o),
(201,700,cs),
(201,722,o),
(183,740,o),
(160,740,cs),
(137,740,o),
(119,722,o),
(119,700,cs),
(119,678,o),
(137,660,o),
(160,660,cs)
);
},
{
closed = 1;
nodes = (
(102,-197,o),
(170,-76,o),
(170,130,cs),
(170,520,l),
(150,520,l),
(150,130,ls),
(150,-68,o),
(86,-179,o),
(-30,-198,c),
(-27,-218,l)
);
}
);
width = 290;
},
{
layerId = "9E6B41AB-2970-4C41-8B35-4DBE0D296A43";
metricLeft = "=-40";
name = Black;
shapes = (
{
closed = 1;
nodes = (
(264,530,o),
(310,574,o),
(310,635,cs),
(310,696,o),
(264,740,o),
(200,740,cs),
(136,740,o),
(90,696,o),
(90,635,cs),
(90,574,o),
(136,530,o),
(200,530,cs)
);
},
{
closed = 1;
nodes = (
(193,-197,o),
(300,-77,o),
(300,130,cs),
(300,480,l),
(100,480,l),
(100,130,ls),
(100,-11,o),
(71,-54,o),
(-40,-78,c),
(-9,-218,l)
);
}
);
width = 379;
}
);
metricLeft = "=i";
metricRight = "=i";
unicode = 106;
},
{
glyphname = jdotless;
kernLeft = j;
kernRight = i;
lastChange = "2026-05-25 06:26:05 +0000";
layers = (
{
anchors = (
{
name = bottom;
pos = (160,-160);
},
{
name = top;
pos = (160,520);
}
);
layerId = "D65C9A1E-0FCA-4B2D-8EDF-9F36CA9182A1";
metricRight = "=j+31";
shapes = (
{
closed = 1;
nodes = (
(102,-197,o),
(170,-76,o),
(170,130,cs),
(170,520,l),
(150,520,l),
(150,130,ls),
(150,-68,o),
(86,-179,o),
(-30,-198,c),
(-27,-218,l)
);
}
);
width = 290;
},
{
anchors = (
{
name = bottom;
pos = (180,-160);
},
{
name = top;
pos = (180,520);
}
);
layerId = "9527F797-22C1-480E-A1FE-2CDBEBE1FD4C";
metricRight = "=j+26";
shapes = (
{
closed = 1;
nodes = (
(148,-197,o),
(235,-76,o),
(235,130,cs),
(235,520,l),
(125,520,l),
(125,130,ls),
(125,-34,o),
(78,-111,o),
(-35,-131,c),
(-16,-218,l)
);
}
);
width = 340;
},
{
anchors = (
{
name = bottom;
pos = (200,-160);
},
{
name = top;
pos = (200,520);
}
);
layerId = "9E6B41AB-2970-4C41-8B35-4DBE0D296A43";
metricRight = "=j+10";
shapes = (
{
closed = 1;
nodes = (
(193,-197,o),
(300,-77,o),
(300,130,cs),
(300,480,l),
(100,480,l),
(100,130,ls),
(100,-11,o),
(71,-54,o),
(-40,-78,c),
(-9,-218,l)
);
}
);
width = 379;
}
);
metricLeft = "=j";
metricRight = "=j";
unicode = 567;
},
{
glyphname = k;
kernLeft = h;
kernRight = x;
lastChange = "2026-05-25 06:25:39 +0000";
layers = (
{
anchors = (
{
name = bottom;
pos = (285,0);
},
{
name = top;
pos = (315,730);
}
);
layerId = "9527F797-22C1-480E-A1FE-2CDBEBE1FD4C";
shapes = (
{
closed = 1;
nodes = (
(188,0,l),
(188,207,l),
(229,242,l),
(229,242,l),
(445,0,l),
(570,0,l),
(309,297,l),
(570,520,l),
(431,520,l),
(190,326,l),
(188,326,l),
(188,730,l),
(80,730,l),
(80,0,l)
);
}
);
width = 578;
},
{
anchors = (
{
name = bottom;
pos = (310,0);
},
{
name = top;
pos = (340,730);
}
);
background = {
shapes = (
{
closed = 1;
nodes = (
(375,209,l),
(630,520,l),
(394,520,l),
(197,280,l),
(197,92,l),
(375,309,l)
);
},
{
closed = 1;
nodes = (
(266,730,l),
(70,730,l),
(70,0,l),
(266,0,l)
);
},
{
closed = 1;
nodes = (
(208,362,l),
(414,0,l),
(630,0,l),
(406,362,l)
);
}
);
};
layerId = "9E6B41AB-2970-4C41-8B35-4DBE0D296A43";
shapes = (
{
closed = 1;
nodes = (
(266,0,l),
(266,176,l),
(293,210,l),
(295,210,l),
(414,0,l),
(630,0,l),
(447,296,l),
(630,520,l),
(394,520,l),
(268,366,l),
(266,366,l),
(266,730,l),
(70,730,l),
(70,0,l)
);
}
);
width = 637;
},
{
anchors = (
{
name = bottom;
pos = (260,0);
},
{
name = top;
pos = (290,730);
}
);
background = {
shapes = (
{
closed = 1;
nodes = (
(110,730,l),
(90,730,l),
(90,0,l),
(110,0,l)
);
},
{
closed = 1;
nodes = (
(100,252,l),
(510,520,l),
(473,520,l),
(97,274,l)
);
},
{
closed = 1;
nodes = (
(510,0,l),
(163,305,l),
(149,291,l),
(480,0,l)
);
}
);
};
layerId = "D65C9A1E-0FCA-4B2D-8EDF-9F36CA9182A1";
name = Thin;
shapes = (
{
closed = 1;
nodes = (
(110,0,l),
(110,259,l),
(154,287,l),
(154,287,l),
(480,0,l),
(510,0,l),
(171,298,l),
(510,520,l),
(473,520,l),
(112,284,l),
(110,284,l),
(110,730,l),
(90,730,l),
(90,0,l)
);
}
);
width = 519;
}
);
metricLeft = "=h";
metricRight = "=|*.1";
unicode = 107;
},
{
glyphname = kgreenlandic;
kernLeft = u;
kernRight = x;
lastChange = "2026-05-25 06:25:52 +0000";
layers = (
{
anchors = (
{
name = bottom;
pos = (260,0);
},
{
name = top;
pos = (290,520);
}
);
background = {
shapes = (
{
ref = k;
}
);
};
layerId = "D65C9A1E-0FCA-4B2D-8EDF-9F36CA9182A1";
shapes = (
{
closed = 1;
nodes = (
(110,0,l),
(110,259,l),
(154,287,l),
(154,287,l),
(480,0,l),
(510,0,l),
(171,298,l),
(510,520,l),
(473,520,l),
(112,284,l),
(110,284,l),
(110,520,l),
(90,520,l),
(90,0,l)
);
}
);
width = 519;
},
{
anchors = (
{
name = bottom;
pos = (285,0);
},
{
name = top;
pos = (315,520);
}
);
background = {
shapes = (
{
pos = (10,0);
ref = k;
}
);
};
layerId = "9527F797-22C1-480E-A1FE-2CDBEBE1FD4C";
shapes = (
{
closed = 1;
nodes = (
(188,0,l),
(188,207,l),
(229,242,l),
(229,242,l),
(445,0,l),
(570,0,l),
(309,297,l),
(570,520,l),
(431,520,l),
(190,326,l),
(188,326,l),
(188,520,l),
(80,520,l),
(80,0,l)
);
}
);
width = 578;
},
{
anchors = (
{
name = bottom;
pos = (310,0);
},
{
name = top;
pos = (340,520);
}
);
background = {
shapes = (
{
pos = (10,0);
ref = k;
}
);
};
layerId = "9E6B41AB-2970-4C41-8B35-4DBE0D296A43";
shapes = (
{
closed = 1;
nodes = (
(266,0,l),
(266,176,l),
(293,210,l),
(295,210,l),
(414,0,l),
(630,0,l),
(447,296,l),
(630,520,l),
(394,520,l),
(268,366,l),
(266,366,l),
(266,520,l),
(70,520,l),
(70,0,l)
);
}
);
width = 637;
}
);
metricLeft = "=k";
metricRight = "=k";
unicode = 312;
},
{
glyphname = l;
kernLeft = I;
kernRight = I;
lastChange = "2026-05-26 08:20:48 +0000";
layers = (
{
anchors = (
{
name = bottom;
pos = (109,0);
},
{
name = center;
pos = (109,430);
},
{
name = pdcenter;
pos = (220,375);
},
{
name = top;
pos = (99,730);
},
{
name = topright;
pos = (254,730);
}
);
layerId = "D65C9A1E-0FCA-4B2D-8EDF-9F36CA9182A1";
name = Thin;
shapes = (
{
closed = 1;
nodes = (
(119,0,l),
(119,730,l),
(99,730,l),
(99,0,l)
);
}
);
width = 218;
},
{
anchors = (
{
name = bottom;
pos = (133,0);
},
{
name = center;
pos = (143,430);
},
{
name = pdcenter;
pos = (329,375);
},
{
name = top;
pos = (143,730);
},
{
name = topright;
pos = (288,730);
}
);
layerId = "9527F797-22C1-480E-A1FE-2CDBEBE1FD4C";
name = Medium;
shapes = (
{
closed = 1;
nodes = (
(198,0,l),
(198,730,l),
(88,730,l),
(88,0,l)
);
}
);
width = 286;
},
{
anchors = (
{
name = bottom;
pos = (167,0);
},
{
name = center;
pos = (177,430);
},
{
name = pdcenter;
pos = (438,375);
},
{
name = top;
pos = (187,730);
},
{
name = topright;
pos = (322,730);
}
);
layerId = "9E6B41AB-2970-4C41-8B35-4DBE0D296A43";
name = Black;
shapes = (
{
closed = 1;
nodes = (
(277,0,l),
(277,730,l),
(77,730,l),
(77,0,l)
);
}
);
width = 354;
}
);
metricLeft = "=I";
metricRight = "=|";
unicode = 108;
},
{
glyphname = lslash;
kernLeft = f;
kernRight = f;
lastChange = "2026-05-25 06:25:52 +0000";
layers = (
{
layerId = "D65C9A1E-0FCA-4B2D-8EDF-9F36CA9182A1";
metricLeft = "=f*.8";
shapes = (
{
closed = 1;
nodes = (
(360,431,l),
(352,449,l),
(22,299,l),
(30,281,l)
);
},
{
pos = (82,0);
ref = l;
}
);
width = 382;
},
{
layerId = "9527F797-22C1-480E-A1FE-2CDBEBE1FD4C";
metricLeft = "=f*.5";
shapes = (
{
closed = 1;
nodes = (
(448,407,l),
(412,491,l),
(12,323,l),
(48,239,l)
);
},
{
alignment = -1;
pos = (98,0);
ref = l;
}
);
width = 460;
},
{
layerId = "9E6B41AB-2970-4C41-8B35-4DBE0D296A43";
metricLeft = "=f*.2";
shapes = (
{
closed = 1;
nodes = (
(528,393,l),
(473,523,l),
(4,337,l),
(59,207,l)
);
},
{
pos = (100,0);
ref = l;
}
);
width = 532;
}
);
metricLeft = "=t*.5";
metricRight = "=|";
unicode = 322;
},
{
glyphname = m;
kernLeft = m;
kernRight = h;
lastChange = "2026-06-03 06:37:18 +0000";
layers = (
{
layerId = "D65C9A1E-0FCA-4B2D-8EDF-9F36CA9182A1";
shapes = (
{
closed = 1;
nodes = (
(111,0,l),
(111,368,ls),
(111,426,o),
(170,510,o),
(273,510,cs),
(359,510,o),
(392,452,o),
(392,320,cs),
(391,0,l),
(411,0,l),
(411,368,ls),
(411,426,o),
(470,510,o),
(573,510,cs),
(655,510,o),
(691,452,o),
(691,320,cs),
(691,0,l),
(711,0,l),
(711,320,ls),
(711,464,o),
(668,530,o),
(573,530,cs),
(498,530,o),
(434,489,o),
(404,422,c),
(402,422,l),
(384,495,o),
(342,530,o),
(273,530,cs),
(198,530,o),
(134,489,o),
(104,422,c),
(102,422,l),
(95,456,o),
(82,489,o),
(59,530,c),
(41,520,l),
(80,452,o),
(91,408,o),
(91,321,cs),
(91,0,l)
);
}
);
width = 783;
},
{
layerId = "9527F797-22C1-480E-A1FE-2CDBEBE1FD4C";
shapes = (
{
closed = 1;
nodes = (
(189,0,l),
(189,300,ls),
(189,369,o),
(242,434,o),
(299,434,cs),
(346,434,o),
(363,400,o),
(363,305,cs),
(363,0,l),
(469,0,l),
(469,300,ls),
(469,369,o),
(522,434,o),
(579,434,cs),
(626,434,o),
(643,400,o),
(643,305,cs),
(643,0,l),
(751,0,l),
(751,305,ls),
(751,459,o),
(706,530,o),
(609,530,cs),
(544,530,o),
(491,498,o),
(455,438,c),
(453,438,l),
(435,500,o),
(393,530,o),
(327,530,cs),
(261,530,o),
(212,500,o),
(175,438,c),
(173,438,l),
(169,468,o),
(157,499,o),
(136,534,c),
(31,492,l),
(69,423,o),
(81,370,o),
(81,271,cs),
(81,0,l)
);
}
);
width = 815;
},
{
layerId = "9E6B41AB-2970-4C41-8B35-4DBE0D296A43";
shapes = (
{
closed = 1;
nodes = (
(271,0,l),
(271,320,ls),
(271,346,o),
(289,370,o),
(309,370,cs),
(335,370,o),
(341,355,o),
(341,290,cs),
(341,0,l),
(529,0,l),
(529,320,ls),
(529,346,o),
(547,370,o),
(567,370,cs),
(593,370,o),
(599,355,o),
(599,290,cs),
(599,0,l),
(795,0,l),
(795,290,ls),
(795,455,o),
(749,530,o),
(649,530,cs),
(594,530,o),
(554,508,o),
(511,455,c),
(509,455,l),
(491,505,o),
(450,530,o),
(386,530,cs),
(331,530,o),
(297,511,o),
(253,455,c),
(251,455,l),
(242,487,o),
(231,513,o),
(217,536,c),
(25,460,l),
(61,399,o),
(75,332,o),
(75,220,cs),
(75,0,l)
);
}
);
width = 851;
},
{
associatedMasterId = "D65C9A1E-0FCA-4B2D-8EDF-9F36CA9182A1";
attr = {
coordinates = (
232
);
};
layerId = "0CBD3FAB-BA75-4DFC-AD86-B9F788B7BCE9";
name = "{232}";
shapes = (
{
closed = 1;
nodes = (
(132,0,l),
(132,346,ls),
(132,407,o),
(189,485,o),
(277,485,cs),
(350,485,o),
(377,435,o),
(377,315,cs),
(377,0,l),
(425,0,l),
(425,346,ls),
(425,407,o),
(482,485,o),
(570,485,cs),
(640,485,o),
(670,435,o),
(670,315,cs),
(670,0,l),
(719,0,l),
(719,315,ls),
(719,462,o),
(676,530,o),
(580,530,cs),
(506,530,o),
(445,495,o),
(413,435,c),
(411,435,l),
(393,499,o),
(352,530,o),
(286,530,cs),
(213,530,o),
(152,495,o),
(120,435,c),
(118,435,l),
(112,465,o),
(100,496,o),
(79,531,c),
(33,511,l),
(72,442,o),
(83,395,o),
(83,305,cs),
(83,0,l)
);
}
);
width = 789;
}
);
metricLeft = "=|d*.9";
metricRight = "=h";
unicode = 109;
},
{
glyphname = n;
kernLeft = m;
kernRight = h;
lastChange = "2026-05-25 06:26:59 +0000";
layers = (
{
anchors = (
{
name = bottom;
pos = (276,0);
},
{
name = top;
pos = (276,520);
}
);
layerId = "D65C9A1E-0FCA-4B2D-8EDF-9F36CA9182A1";
shapes = (
{
closed = 1;
nodes = (
(111,0,l),
(111,368,ls),
(111,453,o),
(230,510,o),
(325,510,cs),
(414,510,o),
(471,438,o),
(471,320,cs),
(471,0,l),
(491,0,l),
(491,320,ls),
(491,448,o),
(426,530,o),
(325,530,cs),
(232,530,o),
(138,484,o),
(104,422,c),
(102,422,l),
(95,456,o),
(82,489,o),
(59,530,c),
(41,520,l),
(80,452,o),
(91,408,o),
(91,321,cs),
(91,0,l)
);
}
);
width = 563;
},
{
anchors = (
{
name = bottom;
pos = (291,0);
},
{
name = top;
pos = (291,520);
}
);
background = {
anchors = (
{
name = bottom;
pos = (312,0);
},
{
name = top;
pos = (312,520);
}
);
};
layerId = "9527F797-22C1-480E-A1FE-2CDBEBE1FD4C";
shapes = (
{
closed = 1;
nodes = (
(189,0,l),
(189,300,ls),
(189,371,o),
(259,436,o),
(336,436,cs),
(395,436,o),
(423,394,o),
(423,305,cs),
(423,0,l),
(531,0,l),
(531,305,ls),
(531,457,o),
(474,530,o),
(356,530,cs),
(280,530,o),
(221,500,o),
(175,438,c),
(173,438,l),
(169,468,o),
(157,499,o),
(136,534,c),
(31,492,l),
(69,423,o),
(81,370,o),
(81,271,cs),
(81,0,l)
);
}
);
width = 595;
},
{
anchors = (
{
name = bottom;
pos = (310,0);
},
{
name = top;
pos = (310,520);
}
);
layerId = "9E6B41AB-2970-4C41-8B35-4DBE0D296A43";
shapes = (
{
closed = 1;
nodes = (
(271,0,l),
(271,320,ls),
(271,343,o),
(311,370,o),
(345,370,cs),
(373,370,o),
(381,352,o),
(381,290,cs),
(381,0,l),
(575,0,l),
(575,290,ls),
(575,457,o),
(526,530,o),
(414,530,cs),
(351,530,o),
(302,507,o),
(253,455,c),
(251,455,l),
(242,487,o),
(231,513,o),
(217,536,c),
(25,460,l),
(61,399,o),
(75,332,o),
(75,220,cs),
(75,0,l)
);
}
);
width = 631;
},
{
anchors = (
{
name = bottom;
pos = (299,0);
},
{
name = top;
pos = (299,520);
}
);
associatedMasterId = "D65C9A1E-0FCA-4B2D-8EDF-9F36CA9182A1";
attr = {
coordinates = (
232
);
};
layerId = "899DC2DC-F451-4B84-9275-F30D30733E24";
name = "{232}";
shapes = (
{
closed = 1;
nodes = (
(132,0,l),
(132,346,ls),
(132,418,o),
(225,486,o),
(324,486,cs),
(403,486,o),
(450,423,o),
(450,315,cs),
(450,0,l),
(499,0,l),
(499,315,ls),
(499,451,o),
(437,530,o),
(330,530,cs),
(243,530,o),
(159,492,o),
(121,435,c),
(119,435,l),
(113,466,o),
(100,498,o),
(80,531,c),
(33,510,l),
(72,441,o),
(83,396,o),
(83,305,cs),
(83,0,l)
);
}
);
width = 569;
}
);
metricLeft = "=m";
metricRight = "=h";
unicode = 110;
},
{
glyphname = eng;
kernLeft = m;
kernRight = h;
lastChange = "2026-05-25 06:28:40 +0000";
layers = (
{
anchors = (
{
name = bottom;
pos = (276,0);
},
{
name = top;
pos = (276,520);
}
);
layerId = "D65C9A1E-0FCA-4B2D-8EDF-9F36CA9182A1";
shapes = (
{
closed = 1;
nodes = (
(448,-211,o),
(491,-164,o),
(491,-61,cs),
(491,320,ls),
(491,448,o),
(426,530,o),
(325,530,cs),
(232,530,o),
(138,484,o),
(104,422,c),
(102,422,l),
(95,456,o),
(82,489,o),
(59,530,c),
(41,520,l),
(80,452,o),
(91,408,o),
(91,321,cs),
(91,0,l),
(111,0,l),
(111,368,ls),
(111,453,o),
(230,510,o),
(325,510,cs),
(414,510,o),
(471,438,o),
(471,320,cs),
(471,-61,ls),
(471,-153,o),
(436,-191,o),
(351,-191,cs),
(326,-191,o),
(300,-186,o),
(278,-177,c),
(272,-196,l),
(296,-205,o),
(324,-211,o),
(351,-211,cs)
);
}
);
width = 563;
},
{
anchors = (
{
name = bottom;
pos = (291,0);
},
{
name = top;
pos = (291,520);
}
);
layerId = "9527F797-22C1-480E-A1FE-2CDBEBE1FD4C";
shapes = (
{
closed = 1;
nodes = (
(479,-221,o),
(531,-163,o),
(531,-26,cs),
(531,305,ls),
(531,457,o),
(474,530,o),
(356,530,cs),
(280,530,o),
(221,500,o),
(175,438,c),
(173,438,l),
(169,468,o),
(157,499,o),
(136,534,c),
(31,492,l),
(69,423,o),
(81,370,o),
(81,271,cs),
(81,0,l),
(189,0,l),
(189,300,ls),
(189,371,o),
(259,436,o),
(336,436,cs),
(395,436,o),
(423,394,o),
(423,305,cs),
(423,-26,ls),
(423,-97,o),
(397,-126,o),
(333,-126,cs),
(308,-126,o),
(282,-122,o),
(258,-114,c),
(243,-205,l),
(280,-216,o),
(318,-221,o),
(355,-221,cs)
);
}
);
width = 595;
},
{
anchors = (
{
name = bottom;
pos = (310,0);
},
{
name = top;
pos = (310,520);
}
);
layerId = "9E6B41AB-2970-4C41-8B35-4DBE0D296A43";
shapes = (
{
closed = 1;
nodes = (
(520,-229,o),
(575,-169,o),
(575,0,cs),
(575,290,ls),
(575,457,o),
(526,530,o),
(414,530,cs),
(351,530,o),
(302,507,o),
(253,455,c),
(251,455,l),
(242,487,o),
(231,513,o),
(217,536,c),
(25,460,l),
(61,399,o),
(75,332,o),
(75,220,cs),
(75,0,l),
(271,0,l),
(271,320,ls),
(271,343,o),
(311,370,o),
(345,370,cs),
(373,370,o),
(381,352,o),
(381,290,cs),
(381,0,ls),
(381,-54,o),
(368,-70,o),
(321,-70,cs),
(299,-70,o),
(265,-66,o),
(237,-59,c),
(217,-214,l),
(265,-223,o),
(315,-229,o),
(363,-229,cs)
);
}
);
width = 631;
},
{
anchors = (
{
name = bottom;
pos = (299,0);
},
{
name = top;
pos = (299,520);
}
);
associatedMasterId = "D65C9A1E-0FCA-4B2D-8EDF-9F36CA9182A1";
attr = {
coordinates = (
232
);
};
layerId = "79FE56B5-3AAC-4AE6-A914-FF8F134DF163";
name = "{232}";
shapes = (
{
closed = 1;
nodes = (
(453,-214,o),
(499,-164,o),
(499,-49,cs),
(499,315,ls),
(499,451,o),
(437,530,o),
(330,530,cs),
(243,530,o),
(159,492,o),
(121,435,c),
(119,435,l),
(113,466,o),
(100,498,o),
(80,531,c),
(33,510,l),
(72,441,o),
(83,396,o),
(83,305,cs),
(83,0,l),
(132,0,l),
(132,346,ls),
(132,418,o),
(225,486,o),
(324,486,cs),
(403,486,o),
(450,423,o),
(450,315,cs),
(450,-49,ls),
(450,-135,o),
(418,-170,o),
(340,-170,cs),
(315,-170,o),
(289,-165,o),
(266,-156,c),
(257,-199,l),
(286,-209,o),
(317,-214,o),
(347,-214,cs)
);
}
);
width = 569;
}
);
metricLeft = "=n";
metricRight = "=n";
unicode = 331;
},
{
glyphname = o;
kernLeft = o;
kernRight = o;
lastChange = "2026-06-03 04:10:42 +0000";
layers = (
{
anchors = (
{
name = bottom;
pos = (275,0);
},
{
name = center;
pos = (275,260);
},
{
name = ogonek;
pos = (363,0);
},
{
name = top;
pos = (275,520);
},
{
name = topright;
pos = (393,454);
}
);
layerId = "D65C9A1E-0FCA-4B2D-8EDF-9F36CA9182A1";
shapes = (
{
closed = 1;
nodes = (
(422,-10,o),
(505,88,o),
(505,260,cs),
(505,432,o),
(422,530,o),
(275,530,cs),
(128,530,o),
(45,432,o),
(45,260,cs),
(45,88,o),
(128,-10,o),
(275,-10,cs)
);
},
{
closed = 1;
nodes = (
(140,10,o),
(65,98,o),
(65,260,cs),
(65,422,o),
(140,510,o),
(275,510,cs),
(410,510,o),
(485,422,o),
(485,260,cs),
(485,98,o),
(410,10,o),
(275,10,cs)
);
}
);
width = 550;
},
{
anchors = (
{
name = bottom;
pos = (295,0);
},
{
name = center;
pos = (295,260);
},
{
name = ogonek;
pos = (362,0);
},
{
name = top;
pos = (295,520);
},
{
name = topright;
pos = (402,453);
}
);
layerId = "9527F797-22C1-480E-A1FE-2CDBEBE1FD4C";
shapes = (
{
closed = 1;
nodes = (
(460,-10,o),
(550,85,o),
(550,260,cs),
(550,435,o),
(460,530,o),
(295,530,cs),
(130,530,o),
(40,435,o),
(40,260,cs),
(40,85,o),
(130,-10,o),
(295,-10,cs)
);
},
{
closed = 1;
nodes = (
(199,80,o),
(148,142,o),
(148,260,cs),
(148,378,o),
(199,440,o),
(295,440,cs),
(391,440,o),
(442,378,o),
(442,260,cs),
(442,142,o),
(391,80,o),
(295,80,cs)
);
}
);
width = 590;
},
{
anchors = (
{
name = bottom;
pos = (315,0);
},
{
name = center;
pos = (315,260);
},
{
name = ogonek;
pos = (361,0);
},
{
name = top;
pos = (315,520);
},
{
name = topright;
pos = (405,452);
}
);
layerId = "9E6B41AB-2970-4C41-8B35-4DBE0D296A43";
shapes = (
{
closed = 1;
nodes = (
(499,-10,o),
(595,83,o),
(595,260,cs),
(595,437,o),
(499,530,o),
(315,530,cs),
(131,530,o),
(35,437,o),
(35,260,cs),
(35,83,o),
(131,-10,o),
(315,-10,cs)
);
},
{
closed = 1;
nodes = (
(258,130,o),
(231,172,o),
(231,260,cs),
(231,348,o),
(258,390,o),
(315,390,cs),
(372,390,o),
(399,348,o),
(399,260,cs),
(399,172,o),
(372,130,o),
(315,130,cs)
);
}
);
width = 630;
}
);
metricLeft = "=h*.5";
metricRight = "=|";
unicode = 111;
},
{
glyphname = oogonek;
kernLeft = o;
kernRight = o;
lastChange = "2026-04-30 05:59:50 +0000";
layers = (
{
layerId = "D65C9A1E-0FCA-4B2D-8EDF-9F36CA9182A1";
shapes = (
{
closed = 1;
nodes = (
(308,-220,o),
(330,-214,o),
(348,-203,c),
(340,-185,l),
(321,-195,o),
(302,-200,o),
(284,-200,cs),
(242,-200,o),
(221,-178,o),
(221,-135,cs),
(221,-79,o),
(266,-32,o),
(353,1,c),
(329,10,l),
(245,-26,o),
(201,-75,o),
(201,-135,cs),
(201,-191,o),
(229,-220,o),
(284,-220,cs)
);
},
{
ref = o;
}
);
width = 580;
},
{
layerId = "9527F797-22C1-480E-A1FE-2CDBEBE1FD4C";
shapes = (
{
closed = 1;
nodes = (
(334,-217,o),
(360,-213,o),
(383,-205,c),
(366,-120,l),
(353,-127,o),
(339,-130,o),
(324,-130,cs),
(299,-130,o),
(286,-117,o),
(286,-93,cs),
(286,-65,o),
(324,-29,o),
(389,4,c),
(283,26,l),
(217,-17,o),
(184,-63,o),
(184,-112,cs),
(184,-179,o),
(228,-217,o),
(305,-217,cs)
);
},
{
ref = o;
}
);
width = 598;
},
{
layerId = "9E6B41AB-2970-4C41-8B35-4DBE0D296A43";
shapes = (
{
closed = 1;
nodes = (
(410,-220,o),
(434,-217,o),
(457,-210,c),
(442,-75,l),
(427,-81,o),
(408,-85,o),
(394,-85,cs),
(367,-85,o),
(353,-75,o),
(353,-57,cs),
(353,-33,o),
(381,-12,o),
(439,10,c),
(273,53,l),
(206,4,o),
(177,-34,o),
(177,-82,cs),
(177,-170,o),
(250,-220,o),
(382,-220,cs)
);
},
{
ref = o;
}
);
width = 614;
}
);
unicode = 491;
},
{
glyphname = oslash;
kernLeft = o;
kernRight = o;
lastChange = "2026-04-30 07:52:06 +0000";
layers = (
{
layerId = "D65C9A1E-0FCA-4B2D-8EDF-9F36CA9182A1";
shapes = (
{
closed = 1;
nodes = (
(129,46,l),
(129,46,l),
(437,462,l),
(437,462,l),
(483,524,l),
(467,536,l),
(421,474,l),
(421,474,l),
(113,58,l),
(113,58,l),
(67,-4,l),
(83,-16,l)
);
},
{
ref = o;
}
);
width = 546;
},
{
layerId = "9527F797-22C1-480E-A1FE-2CDBEBE1FD4C";
shapes = (
{
closed = 1;
nodes = (
(173,35,l),
(173,35,l),
(471,437,l),
(471,437,l),
(522,506,l),
(458,554,l),
(407,485,l),
(407,485,l),
(109,83,l),
(109,83,l),
(58,14,l),
(122,-34,l)
);
},
{
ref = o;
}
);
width = 578;
},
{
layerId = "9E6B41AB-2970-4C41-8B35-4DBE0D296A43";
shapes = (
{
closed = 1;
nodes = (
(190,14,l),
(182,20,l),
(502,452,l),
(510,446,l),
(550,500,l),
(470,560,l),
(430,506,l),
(438,500,l),
(118,68,l),
(110,74,l),
(70,20,l),
(150,-40,l)
);
},
{
ref = o;
}
);
width = 610;
}
);
unicode = 248;
},
{
glyphname = thorn;
kernLeft = b;
kernRight = o;
lastChange = "2026-05-25 06:28:42 +0000";
layers = (
{
background = {
shapes = (
{
pos = (-5,0);
ref = p;
}
);
};
layerId = "D65C9A1E-0FCA-4B2D-8EDF-9F36CA9182A1";
shapes = (
{
closed = 1;
nodes = (
(110,-210,l),
(110,82,l),
(112,82,l),
(149,26,o),
(221,-10,o),
(296,-10,cs),
(432,-10,o),
(510,88,o),
(510,260,cs),
(510,432,o),
(432,530,o),
(296,530,cs),
(221,530,o),
(149,494,o),
(112,438,c),
(110,438,l),
(110,730,l),
(90,730,l),
(90,-210,l)
);
},
{
closed = 1;
nodes = (
(198,10,o),
(110,78,o),
(110,152,cs),
(110,368,ls),
(110,442,o),
(198,510,o),
(296,510,cs),
(420,510,o),
(490,422,o),
(490,260,cs),
(490,98,o),
(420,10,o),
(296,10,cs)
);
}
);
width = 555;
},
{
background = {
shapes = (
{
pos = (1,0);
ref = p;
}
);
};
layerId = "9527F797-22C1-480E-A1FE-2CDBEBE1FD4C";
shapes = (
{
closed = 1;
nodes = (
(188,-210,l),
(188,70,l),
(190,70,l),
(237,15,o),
(289,-10,o),
(355,-10,cs),
(487,-10,o),
(560,87,o),
(560,260,cs),
(560,433,o),
(487,530,o),
(355,530,cs),
(289,530,o),
(237,505,o),
(190,450,c),
(188,450,l),
(188,730,l),
(80,730,l),
(80,-210,l)
);
},
{
closed = 1;
nodes = (
(255,84,o),
(188,145,o),
(188,217,cs),
(188,303,ls),
(188,375,o),
(255,436,o),
(335,436,cs),
(410,436,o),
(454,371,o),
(454,260,cs),
(454,149,o),
(410,84,o),
(335,84,cs)
);
}
);
width = 600;
},
{
background = {
shapes = (
{
pos = (-4,0);
ref = p;
}
);
};
layerId = "9E6B41AB-2970-4C41-8B35-4DBE0D296A43";
shapes = (
{
closed = 1;
nodes = (
(266,-210,l),
(266,70,l),
(268,70,l),
(302,15,o),
(347,-10,o),
(413,-10,cs),
(541,-10,o),
(610,84,o),
(610,260,cs),
(610,436,o),
(541,530,o),
(413,530,cs),
(347,530,o),
(302,505,o),
(268,450,c),
(266,450,l),
(266,730,l),
(70,730,l),
(70,-210,l)
);
},
{
closed = 1;
nodes = (
(301,135,o),
(266,171,o),
(266,217,cs),
(266,303,ls),
(266,349,o),
(301,385,o),
(346,385,cs),
(394,385,o),
(418,343,o),
(418,260,cs),
(418,177,o),
(394,135,o),
(346,135,cs)
);
}
);
width = 645;
},
{
associatedMasterId = "D65C9A1E-0FCA-4B2D-8EDF-9F36CA9182A1";
attr = {
coordinates = (
232
);
};
layerId = "0BCAABAB-37FB-445D-B33E-60B4C38D96A8";
name = "{232}";
shapes = (
{
closed = 1;
nodes = (
(136,-210,l),
(136,70,l),
(138,70,l),
(179,20,o),
(248,-10,o),
(322,-10,cs),
(454,-10,o),
(527,86,o),
(527,260,cs),
(527,434,o),
(454,530,o),
(322,530,cs),
(248,530,o),
(179,500,o),
(138,450,c),
(136,450,l),
(136,730,l),
(87,730,l),
(87,-210,l)
);
},
{
closed = 1;
nodes = (
(220,37,o),
(136,99,o),
(136,170,cs),
(136,350,ls),
(136,421,o),
(220,483,o),
(314,483,cs),
(419,483,o),
(478,403,o),
(478,260,cs),
(478,117,o),
(419,37,o),
(314,37,cs)
);
}
);
width = 570;
}
);
metricLeft = "=b";
metricRight = "=b";
unicode = 254;
},
{
glyphname = r;
kernLeft = m;
kernRight = r;
lastChange = "2026-05-25 06:27:01 +0000";
layers = (
{
anchors = (
{
name = bottom;
pos = (101,0);
},
{
name = top;
pos = (226,520);
}
);
layerId = "D65C9A1E-0FCA-4B2D-8EDF-9F36CA9182A1";
metricRight = "=f*.4";
shapes = (
{
closed = 1;
nodes = (
(111,0,l),
(111,355,ls),
(111,419,o),
(281,510,o),
(431,510,c),
(431,530,l),
(310,530,o),
(166,473,o),
(108,402,c),
(106,402,l),
(99,445,o),
(87,479,o),
(59,530,c),
(41,520,l),
(80,452,o),
(91,408,o),
(91,321,cs),
(91,0,l)
);
}
);
width = 440;
},
{
anchors = (
{
name = bottom;
pos = (135,0);
},
{
name = top;
pos = (241,520);
}
);
layerId = "9527F797-22C1-480E-A1FE-2CDBEBE1FD4C";
metricRight = "=f*.6";
shapes = (
{
closed = 1;
nodes = (
(190,0,l),
(189,295,ls),
(188,373,o),
(310,432,o),
(471,432,c),
(471,530,l),
(367,530,o),
(231,483,o),
(178,429,c),
(176,429,l),
(166,474,o),
(155,503,o),
(136,534,c),
(31,492,l),
(69,423,o),
(81,370,o),
(81,271,cs),
(81,0,l)
);
}
);
width = 482;
},
{
anchors = (
{
name = bottom;
pos = (107,0);
},
{
name = top;
pos = (227,520);
}
);
associatedMasterId = "D65C9A1E-0FCA-4B2D-8EDF-9F36CA9182A1";
attr = {
coordinates = (
232
);
};
background = {
anchors = (
{
name = bottom;
pos = (172,0);
},
{
name = top;
pos = (261,520);
}
);
};
layerId = "657C252B-5EEF-4E2C-9A2A-557819CBA416";
metricRight = "=f*.4.2";
name = "{232}";
shapes = (
{
closed = 1;
nodes = (
(132,0,l),
(132,335,ls),
(132,406,o),
(293,484,o),
(440,484,c),
(440,530,l),
(323,530,o),
(181,479,o),
(125,417,c),
(123,417,l),
(116,454,o),
(101,493,o),
(79,531,c),
(33,510,l),
(72,441,o),
(83,396,o),
(83,305,cs),
(83,0,l)
);
}
);
width = 528;
},
{
anchors = (
{
name = bottom;
pos = (174,0);
},
{
name = top;
pos = (260,520);
}
);
layerId = "9E6B41AB-2970-4C41-8B35-4DBE0D296A43";
metricRight = "=f*.8";
shapes = (
{
closed = 1;
nodes = (
(273,0,l),
(271,254,ls),
(270,341,o),
(337,374,o),
(515,374,c),
(515,530,l),
(428,530,o),
(302,494,o),
(253,455,c),
(251,455,l),
(242,487,o),
(231,513,o),
(217,536,c),
(25,460,l),
(61,399,o),
(75,332,o),
(75,220,cs),
(75,0,l)
);
}
);
width = 529;
}
);
metricLeft = "=m";
metricRight = "=f*.8";
unicode = 114;
},
{
glyphname = s;
kernLeft = s;
kernRight = s;
lastChange = "2026-06-03 04:21:14 +0000";
layers = (
{
anchors = (
{
name = bottom;
pos = (240,0);
},
{
name = cedi;
pos = (146,-1);
},
{
name = top;
pos = (240,520);
}
);
layerId = "D65C9A1E-0FCA-4B2D-8EDF-9F36CA9182A1";
shapes = (
{
closed = 1;
nodes = (
(360,-10,o),
(435,43,o),
(435,132,cs),
(435,330,o),
(65,235,o),
(65,398,cs),
(65,466,o),
(127,510,o),
(238,510,cs),
(303,510,o),
(370,495,o),
(408,473,c),
(418,490,l),
(377,514,o),
(306,530,o),
(238,530,cs),
(118,530,o),
(45,480,o),
(45,398,cs),
(45,211,o),
(415,311,o),
(415,132,cs),
(415,56,o),
(351,10,o),
(235,10,cs),
(170,10,o),
(104,25,o),
(55,51,c),
(46,33,l),
(97,6,o),
(167,-10,o),
(235,-10,cs)
);
}
);
width = 480;
},
{
anchors = (
{
name = bottom;
pos = (260,0);
},
{
name = cedi;
pos = (154,-1);
},
{
name = top;
pos = (260,520);
}
);
layerId = "9527F797-22C1-480E-A1FE-2CDBEBE1FD4C";
shapes = (
{
closed = 1;
nodes = (
(395,-10,o),
(480,47,o),
(480,143,cs),
(480,331,o),
(150,281,o),
(150,383,cs),
(150,420,o),
(190,440,o),
(262,440,cs),
(320,440,o),
(384,427,o),
(443,404,c),
(462,491,l),
(403,517,o),
(337,530,o),
(265,530,cs),
(121,530,o),
(40,478,o),
(40,385,cs),
(40,198,o),
(368,251,o),
(368,144,cs),
(368,101,o),
(333,80,o),
(256,80,cs),
(193,80,o),
(123,94,o),
(61,119,c),
(42,32,l),
(100,6,o),
(178,-10,o),
(253,-10,cs)
);
}
);
width = 520;
},
{
anchors = (
{
name = bottom;
pos = (280,0);
},
{
name = cedi;
pos = (159,-1);
},
{
name = top;
pos = (280,520);
}
);
layerId = "9E6B41AB-2970-4C41-8B35-4DBE0D296A43";
name = Black;
shapes = (
{
closed = 1;
nodes = (
(433,-10,o),
(525,49,o),
(525,153,cs),
(525,336,o),
(235,302,o),
(235,367,cs),
(235,384,o),
(249,390,o),
(287,390,cs),
(338,390,o),
(400,379,o),
(477,356,c),
(507,492,l),
(431,519,o),
(369,530,o),
(293,530,cs),
(125,530,o),
(35,475,o),
(35,372,cs),
(35,188,o),
(322,215,o),
(322,155,cs),
(322,135,o),
(313,130,o),
(277,130,cs),
(219,130,o),
(144,143,o),
(69,166,c),
(39,30,l),
(103,5,o),
(190,-10,o),
(272,-10,cs)
);
}
);
width = 560;
}
);
metricLeft = "=h*.5";
metricRight = "=|";
unicode = 115;
},
{
glyphname = germandbls;
kernLeft = h;
kernRight = S;
lastChange = "2026-05-25 06:25:52 +0000";
layers = (
{
layerId = "D65C9A1E-0FCA-4B2D-8EDF-9F36CA9182A1";
shapes = (
{
closed = 1;
nodes = (
(465,-10,o),
(539,57,o),
(539,160,cs),
(539,224,o),
(514,264,o),
(411,360,cs),
(369,400,o),
(359,411,o),
(359,420,cs),
(359,427,o),
(365,436,o),
(398,473,cs),
(459,540,o),
(479,574,o),
(479,620,cs),
(479,712,o),
(421,760,o),
(309,760,cs),
(171,760,o),
(99,683,o),
(99,535,cs),
(99,0,l),
(119,0,l),
(119,535,ls),
(119,670,o),
(184,740,o),
(309,740,cs),
(408,740,o),
(459,699,o),
(459,620,cs),
(459,580,o),
(442,550,o),
(383,486,cs),
(353,453,o),
(339,436,o),
(339,420,cs),
(339,401,o),
(357,383,o),
(397,345,cs),
(495,252,o),
(519,218,o),
(519,160,cs),
(519,69,o),
(455,10,o),
(354,10,cs),
(312,10,o),
(248,20,o),
(197,35,c),
(191,15,l),
(246,0,o),
(310,-10,o),
(354,-10,cs)
);
}
);
width = 584;
},
{
layerId = "9527F797-22C1-480E-A1FE-2CDBEBE1FD4C";
shapes = (
{
closed = 1;
nodes = (
(496,-10,o),
(569,51,o),
(569,153,cs),
(569,209,o),
(547,252,o),
(475,329,cs),
(429,378,o),
(419,391,o),
(419,403,cs),
(419,412,o),
(431,426,o),
(463,469,cs),
(508,528,o),
(514,560,o),
(514,595,cs),
(514,703,o),
(443,760,o),
(308,760,cs),
(156,760,o),
(77,674,o),
(77,508,cs),
(77,0,l),
(185,0,l),
(185,507,ls),
(185,611,o),
(229,665,o),
(313,665,cs),
(375,665,o),
(408,639,o),
(408,589,cs),
(408,567,o),
(401,541,o),
(358,489,cs),
(319,440,o),
(308,420,o),
(308,398,cs),
(308,372,o),
(324,345,o),
(366,300,cs),
(448,214,o),
(463,193,o),
(463,164,cs),
(463,116,o),
(422,85,o),
(358,85,cs),
(329,85,o),
(291,92,o),
(255,103,c),
(240,8,l),
(288,-4,o),
(337,-10,o),
(375,-10,cs)
);
}
);
width = 609;
},
{
layerId = "9E6B41AB-2970-4C41-8B35-4DBE0D296A43";
shapes = (
{
closed = 1;
nodes = (
(524,-10,o),
(599,47,o),
(599,145,cs),
(599,192,o),
(582,232,o),
(539,288,cs),
(508,327,o),
(485,365,o),
(485,377,cs),
(485,386,o),
(497,407,o),
(535,465,cs),
(563,508,o),
(565,541,o),
(565,570,cs),
(565,689,o),
(472,760,o),
(314,760,cs),
(151,760,o),
(54,671,o),
(54,520,cs),
(54,0,l),
(250,0,l),
(250,513,ls),
(250,568,o),
(277,600,o),
(322,600,cs),
(355,600,o),
(375,581,o),
(375,548,cs),
(375,531,o),
(368,500,o),
(347,474,cs),
(308,425,o),
(295,400,o),
(295,375,cs),
(295,351,o),
(307,330,o),
(349,274,cs),
(391,218,o),
(403,196,o),
(403,177,cs),
(403,156,o),
(388,145,o),
(360,145,cs),
(346,145,o),
(326,148,o),
(300,155,c),
(290,0,l),
(334,-7,o),
(366,-10,o),
(395,-10,cs)
);
}
);
width = 634;
}
);
metricRight = "=s";
unicode = 223;
},
{
glyphname = t;
kernLeft = f;
kernRight = c;
lastChange = "2026-05-26 08:35:38 +0000";
layers = (
{
anchors = (
{
name = bottom;
pos = (216,0);
},
{
name = cedi;
pos = (242,0);
},
{
name = center;
pos = (231,260);
},
{
name = top;
pos = (231,520);
},
{
name = topright;
pos = (418,520);
}
);
background = {
anchors = (
{
name = bottom;
pos = (238,0);
},
{
name = cedi;
pos = (209,0);
},
{
name = center;
pos = (238,260);
},
{
name = top;
pos = (238,520);
},
{
name = topright;
pos = (490,520);
}
);
};
layerId = "D65C9A1E-0FCA-4B2D-8EDF-9F36CA9182A1";
shapes = (
{
closed = 1;
nodes = (
(352,-10,o),
(391,-4,o),
(424,7,c),
(418,26,l),
(386,15,o),
(350,10,o),
(313,10,cs),
(219,10,o),
(188,44,o),
(188,150,cs),
(188,500,l),
(427,500,l),
(427,520,l),
(188,520,l),
(188,690,l),
(168,690,l),
(168,520,l),
(27,520,l),
(27,500,l),
(168,500,l),
(168,150,ls),
(168,33,o),
(207,-10,o),
(313,-10,cs)
);
}
);
width = 492;
},
{
anchors = (
{
name = bottom;
pos = (238,0);
},
{
name = cedi;
pos = (237,0);
},
{
name = center;
pos = (245,260);
},
{
name = top;
pos = (245,520);
},
{
name = topright;
pos = (464,520);
}
);
layerId = "9527F797-22C1-480E-A1FE-2CDBEBE1FD4C";
shapes = (
{
closed = 1;
nodes = (
(365,-10,o),
(406,-4,o),
(451,9,c),
(432,96,l),
(403,87,o),
(369,82,o),
(338,82,cs),
(272,82,o),
(252,104,o),
(252,175,cs),
(252,430,l),
(454,430,l),
(454,520,l),
(252,520,l),
(252,690,l),
(143,690,l),
(143,520,l),
(24,520,l),
(24,430,l),
(143,430,l),
(143,160,ls),
(143,38,o),
(193,-10,o),
(320,-10,cs)
);
}
);
width = 512;
},
{
anchors = (
{
name = bottom;
pos = (258,0);
},
{
name = cedi;
pos = (232,0);
},
{
name = center;
pos = (259,260);
},
{
name = top;
pos = (259,520);
},
{
name = topright;
pos = (511,520);
}
);
layerId = "9E6B41AB-2970-4C41-8B35-4DBE0D296A43";
shapes = (
{
closed = 1;
nodes = (
(378,-10,o),
(423,-4,o),
(478,10,c),
(446,155,l),
(421,146,o),
(390,140,o),
(363,140,cs),
(327,140,o),
(316,154,o),
(316,200,cs),
(316,380,l),
(481,380,l),
(481,520,l),
(316,520,l),
(316,690,l),
(118,690,l),
(118,520,l),
(21,520,l),
(21,380,l),
(118,380,l),
(118,170,ls),
(118,42,o),
(178,-10,o),
(327,-10,cs)
);
}
);
width = 531;
}
);
metricLeft = "=f";
metricRight = "=c";
unicode = 116;
},
{
glyphname = tbar;
kernLeft = v;
kernRight = c;
lastChange = "2026-05-25 06:26:05 +0000";
layers = (
{
layerId = "D65C9A1E-0FCA-4B2D-8EDF-9F36CA9182A1";
shapes = (
{
closed = 1;
nodes = (
(443,258,l),
(443,278,l),
(43,278,l),
(43,258,l)
);
},
{
pos = (16,0);
ref = t;
}
);
width = 547;
},
{
layerId = "9527F797-22C1-480E-A1FE-2CDBEBE1FD4C";
shapes = (
{
closed = 1;
nodes = (
(468,220,l),
(468,310,l),
(38,310,l),
(38,220,l)
);
},
{
alignment = -1;
pos = (17,0);
ref = t;
}
);
width = 564;
},
{
layerId = "9E6B41AB-2970-4C41-8B35-4DBE0D296A43";
shapes = (
{
closed = 1;
nodes = (
(494,192,l),
(494,332,l),
(34,332,l),
(34,192,l)
);
},
{
pos = (16,0);
ref = t;
}
);
width = 577;
}
);
metricLeft = "=t*1.6";
metricRight = "=t*1.6";
unicode = 359;
},
{
glyphname = u;
kernLeft = u;
kernRight = u;
lastChange = "2026-06-03 04:24:20 +0000";
layers = (
{
anchors = (
{
name = bottom;
pos = (299,0);
},
{
name = ogonek;
pos = (553,0);
},
{
name = top;
pos = (289,520);
},
{
name = top_ring;
pos = (289,520);
},
{
name = topright;
pos = (442,480);
}
);
layerId = "9527F797-22C1-480E-A1FE-2CDBEBE1FD4C";
shapes = (
{
closed = 1;
nodes = (
(298,-10,o),
(366,24,o),
(410,82,c),
(412,82,l),
(416,52,o),
(428,21,o),
(449,-14,c),
(554,28,l),
(516,97,o),
(504,150,o),
(504,249,cs),
(504,520,l),
(396,520,l),
(396,220,ls),
(396,148,o),
(332,84,o),
(259,84,cs),
(200,84,o),
(172,126,o),
(172,215,cs),
(172,520,l),
(64,520,l),
(64,215,ls),
(64,63,o),
(116,-10,o),
(224,-10,cs)
);
}
);
width = 585;
},
{
anchors = (
{
name = bottom;
pos = (316,0);
},
{
name = ogonek;
pos = (590,0);
},
{
name = top;
pos = (306,520);
},
{
name = top_ring;
pos = (306,520);
},
{
name = topright;
pos = (438,480);
}
);
layerId = "9E6B41AB-2970-4C41-8B35-4DBE0D296A43";
shapes = (
{
closed = 1;
nodes = (
(272,-10,o),
(320,13,o),
(368,65,c),
(370,65,l),
(379,33,o),
(390,7,o),
(404,-16,c),
(596,60,l),
(560,121,o),
(546,188,o),
(546,300,cs),
(546,520,l),
(350,520,l),
(350,200,ls),
(350,177,o),
(314,150,o),
(283,150,cs),
(257,150,o),
(250,167,o),
(250,230,cs),
(250,520,l),
(56,520,l),
(56,230,ls),
(56,64,o),
(104,-10,o),
(212,-10,cs)
);
}
);
width = 621;
},
{
anchors = (
{
name = bottom;
pos = (273,0);
},
{
name = ogonek;
pos = (532,0);
},
{
name = top;
pos = (273,520);
},
{
name = top_ring;
pos = (273,540);
},
{
name = topright;
pos = (444,480);
}
);
associatedMasterId = "D65C9A1E-0FCA-4B2D-8EDF-9F36CA9182A1";
attr = {
coordinates = (
232
);
};
background = {
anchors = (
{
name = bottom;
pos = (288,0);
},
{
name = ogonek;
pos = (526,0);
},
{
name = top;
pos = (278,520);
},
{
name = top_ring;
pos = (278,520);
},
{
name = topright;
pos = (444,480);
}
);
shapes = (
{
closed = 1;
nodes = (
(315,-10,o),
(399,32,o),
(436,93,c),
(438,93,l),
(444,61,o),
(458,27,o),
(480,-11,c),
(526,9,l),
(487,78,o),
(476,125,o),
(476,216,cs),
(476,520,l),
(427,520,l),
(427,174,ls),
(427,94,o),
(327,34,o),
(243,34,cs),
(160,34,o),
(119,89,o),
(119,205,cs),
(119,520,l),
(70,520,l),
(70,205,ls),
(70,62,o),
(124,-10,o),
(232,-10,cs)
);
}
);
};
layerId = "245D3822-9188-491B-8A3B-367571E408B0";
name = "{232}";
shapes = (
{
closed = 1;
nodes = (
(319,-10,o),
(401,29,o),
(438,85,c),
(440,85,l),
(446,54,o),
(459,22,o),
(479,-11,c),
(526,10,l),
(487,79,o),
(476,124,o),
(476,215,cs),
(476,520,l),
(427,520,l),
(427,174,ls),
(427,102,o),
(337,34,o),
(241,34,cs),
(159,34,o),
(119,90,o),
(119,205,cs),
(119,520,l),
(70,520,l),
(70,205,ls),
(70,59,o),
(123,-10,o),
(235,-10,cs)
);
}
);
width = 559;
},
{
anchors = (
{
name = bottom;
pos = (282,0);
},
{
name = ogonek;
pos = (512,0);
},
{
name = top;
pos = (272,520);
},
{
name = top_ring;
pos = (272,520);
},
{
name = topright;
pos = (445,480);
}
);
background = {
anchors = (
{
name = bottom;
pos = (329,0);
},
{
name = ogonek;
pos = (525,0);
},
{
name = top;
pos = (329,520);
},
{
name = top_ring;
pos = (329,540);
},
{
name = topright;
pos = (505,480);
}
);
};
layerId = "D65C9A1E-0FCA-4B2D-8EDF-9F36CA9182A1";
name = Thin;
shapes = (
{
closed = 1;
nodes = (
(323,-10,o),
(416,37,o),
(449,98,c),
(451,98,l),
(458,64,o),
(471,31,o),
(494,-10,c),
(512,0,l),
(473,68,o),
(462,112,o),
(462,199,cs),
(462,520,l),
(442,520,l),
(442,152,ls),
(442,68,o),
(324,10,o),
(235,10,cs),
(140,10,o),
(92,71,o),
(92,200,cs),
(92,520,l),
(72,520,l),
(72,200,ls),
(72,61,o),
(127,-10,o),
(235,-10,cs)
);
}
);
width = 553;
}
);
metricLeft = "=|n";
metricRight = "=|n";
unicode = 117;
},
{
glyphname = v;
kernLeft = v;
kernRight = v;
lastChange = "2026-06-03 06:42:20 +0000";
layers = (
{
layerId = "D65C9A1E-0FCA-4B2D-8EDF-9F36CA9182A1";
shapes = (
{
closed = 1;
nodes = (
(269,0,l),
(499,520,l),
(477,520,l),
(255,17,l),
(253,17,l),
(31,520,l),
(9,520,l),
(239,0,l)
);
}
);
width = 508;
},
{
layerId = "9527F797-22C1-480E-A1FE-2CDBEBE1FD4C";
shapes = (
{
closed = 1;
nodes = (
(349,0,l),
(538,520,l),
(422,520,l),
(274,78,l),
(272,78,l),
(124,520,l),
(8,520,l),
(197,0,l)
);
}
);
width = 546;
},
{
layerId = "9E6B41AB-2970-4C41-8B35-4DBE0D296A43";
shapes = (
{
closed = 1;
nodes = (
(429,0,l),
(577,520,l),
(375,520,l),
(293,120,l),
(291,120,l),
(209,520,l),
(7,520,l),
(155,0,l)
);
}
);
width = 584;
}
);
metricLeft = "=h*.1";
metricRight = "=|";
unicode = 118;
},
{
glyphname = w;
kernLeft = v;
kernRight = v;
lastChange = "2026-05-25 06:25:52 +0000";
layers = (
{
anchors = (
{
name = bottom;
pos = (371,0);
},
{
name = top;
pos = (371,520);
}
);
background = {
anchors = (
{
name = bottom;
pos = (366,0);
},
{
name = top;
pos = (366,520);
}
);
};
layerId = "9527F797-22C1-480E-A1FE-2CDBEBE1FD4C";
shapes = (
{
closed = 1;
nodes = (
(293,0,l),
(305,117,o),
(349,253,o),
(415,375,c),
(334,424,l),
(283,311,o),
(253,223,o),
(231,110,c),
(229,110,l),
(119,520,l),
(11,520,l),
(161,0,l)
);
},
{
closed = 1;
nodes = (
(581,0,l),
(731,520,l),
(622,520,l),
(512,110,l),
(510,110,l),
(393,520,l),
(286,520,l),
(451,0,l)
);
}
);
width = 742;
},
{
anchors = (
{
name = bottom;
pos = (390,0);
},
{
name = top;
pos = (390,520);
}
);
background = {
shapes = (
{
closed = 1;
nodes = (
(352,0,l),
(352,109,o),
(391,247,o),
(451,352,c),
(335,410,l),
(303,288,o),
(286,260,o),
(272,170,c),
(270,170,l),
(204,520,l),
(10,520,l),
(140,0,l)
);
},
{
closed = 1;
nodes = (
(640,0,l),
(770,520,l),
(576,520,l),
(506,150,l),
(504,150,l),
(458,520,l),
(294,520,l),
(428,0,l)
);
}
);
};
layerId = "9E6B41AB-2970-4C41-8B35-4DBE0D296A43";
name = Black;
shapes = (
{
closed = 1;
nodes = (
(352,0,l),
(352,108,o),
(391,247,o),
(451,352,c),
(335,410,l),
(302,318,o),
(290,272,o),
(272,170,c),
(270,170,l),
(204,520,l),
(10,520,l),
(140,0,l)
);
},
{
closed = 1;
nodes = (
(640,0,l),
(770,520,l),
(576,520,l),
(506,150,l),
(504,150,l),
(458,520,l),
(294,520,l),
(428,0,l)
);
}
);
width = 780;
},
{
anchors = (
{
name = bottom;
pos = (353,0);
},
{
name = top;
pos = (353,520);
}
);
background = {
shapes = (
{
closed = 1;
nodes = (
(200,20,l),
(198,20,l),
(34,520,l),
(13,520,l),
(183,0,l),
(213,0,l)
);
},
{
closed = 1;
nodes = (
(523,0,l),
(693,520,l),
(672,520,l),
(508,20,l),
(506,20,l),
(315,520,l),
(293,520,l),
(493,0,l)
);
},
{
attr = {
strokeWidth = 20;
};
closed = 0;
nodes = (
(205,2,l),
(230,129,o),
(279,263,o),
(351,402,c)
);
}
);
};
layerId = "D65C9A1E-0FCA-4B2D-8EDF-9F36CA9182A1";
name = Thin;
shapes = (
{
closed = 1;
nodes = (
(215,0,l),
(240,127,o),
(288,258,o),
(360,397,c),
(342,407,l),
(274,274,o),
(226,143,o),
(200,20,c),
(198,20,l),
(34,520,l),
(13,520,l),
(183,0,l)
);
},
{
closed = 1;
nodes = (
(523,0,l),
(693,520,l),
(672,520,l),
(508,20,l),
(506,20,l),
(315,520,l),
(293,520,l),
(493,0,l)
);
}
);
width = 706;
}
);
metricLeft = "=v*1.4";
metricRight = "=|";
unicode = 119;
},
{
glyphname = x;
kernLeft = x;
kernRight = x;
lastChange = "2026-06-03 06:43:09 +0000";
layers = (
{
layerId = "D65C9A1E-0FCA-4B2D-8EDF-9F36CA9182A1";
shapes = (
{
closed = 1;
nodes = (
(35,0,l),
(228,247,l),
(230,247,l),
(423,0,l),
(449,0,l),
(242,263,l),
(444,520,l),
(418,520,l),
(230,279,l),
(228,279,l),
(40,520,l),
(14,520,l),
(216,263,l),
(9,0,l)
);
}
);
width = 458;
},
{
layerId = "9527F797-22C1-480E-A1FE-2CDBEBE1FD4C";
shapes = (
{
closed = 1;
nodes = (
(132,0,l),
(252,204,l),
(254,204,l),
(374,0,l),
(498,0,l),
(327,262,l),
(496,520,l),
(372,520,l),
(254,320,l),
(252,320,l),
(134,520,l),
(10,520,l),
(179,262,l),
(8,0,l)
);
}
);
width = 506;
},
{
layerId = "9E6B41AB-2970-4C41-8B35-4DBE0D296A43";
shapes = (
{
closed = 1;
nodes = (
(209,0,l),
(276,160,l),
(278,160,l),
(345,0,l),
(547,0,l),
(412,260,l),
(547,520,l),
(345,520,l),
(278,360,l),
(276,360,l),
(209,520,l),
(7,520,l),
(142,260,l),
(7,0,l)
);
}
);
width = 554;
}
);
metricLeft = "=|k";
metricRight = "=|";
unicode = 120;
},
{
glyphname = y;
kernLeft = v;
kernRight = v;
lastChange = "2026-05-25 06:25:52 +0000";
layers = (
{
anchors = (
{
name = bottom;
pos = (268,0);
},
{
name = dotR;
pos = (410,0);
},
{
name = top;
pos = (268,520);
}
);
background = {
anchors = (
{
name = bottom;
pos = (273,0);
},
{
name = dotR;
pos = (423,20);
},
{
name = top;
pos = (273,520);
}
);
shapes = (
{
closed = 0;
nodes = (
(131,-518,l),
(535,520,l)
);
}
);
};
layerId = "9527F797-22C1-480E-A1FE-2CDBEBE1FD4C";
shapes = (
{
closed = 1;
nodes = (
(212,-197,o),
(278,-139,o),
(333,1,cs),
(535,520,l),
(419,520,l),
(279,112,l),
(277,112,l),
(121,520,l),
(5,520,l),
(244,-35,l),
(242,45,l),
(213,-71,o),
(169,-114,o),
(65,-131,c),
(84,-218,l)
);
}
);
width = 540;
},
{
anchors = (
{
name = bottom;
pos = (299,0);
},
{
name = dotR;
pos = (500,0);
},
{
name = top;
pos = (299,520);
}
);
layerId = "9E6B41AB-2970-4C41-8B35-4DBE0D296A43";
name = Black;
shapes = (
{
closed = 1;
nodes = (
(284,-194,o),
(358,-138,o),
(408,1,cs),
(594,520,l),
(384,520,l),
(307,181,l),
(305,181,l),
(214,520,l),
(4,520,l),
(247,-60,l),
(248,63,l),
(248,-33,o),
(214,-64,o),
(89,-82,c),
(119,-218,l)
);
}
);
width = 598;
},
{
anchors = (
{
name = bottom;
pos = (235,0);
},
{
name = dotR;
pos = (340,0);
},
{
name = top;
pos = (235,520);
}
);
background = {
anchors = (
{
name = bottom;
pos = (270,0);
},
{
name = dotR;
pos = (471,20);
},
{
name = top;
pos = (270,520);
}
);
shapes = (
{
closed = 0;
nodes = (
(37,-518,ls),
(475,520,l)
);
}
);
};
layerId = "D65C9A1E-0FCA-4B2D-8EDF-9F36CA9182A1";
name = Thin;
shapes = (
{
closed = 1;
nodes = (
(141,-199,o),
(196,-141,o),
(256,1,cs),
(475,520,l),
(453,520,l),
(246,26,l),
(244,26,l),
(27,520,l),
(5,520,l),
(239,-10,l),
(238,9,l),
(180,-128,o),
(128,-181,o),
(43,-198,c),
(47,-218,l)
);
}
);
width = 480;
}
);
metricLeft = "=v*.6";
metricRight = "=|";
unicode = 121;
},
{
glyphname = z;
kernLeft = z;
kernRight = z;
lastChange = "2026-06-04 06:13:40 +0000";
layers = (
{
anchors = (
{
name = bottom;
pos = (272,0);
},
{
name = center;
pos = (272,260);
},
{
name = top;
pos = (272,520);
}
);
background = {
anchors = (
{
name = bottom;
pos = (292,0);
},
{
name = center;
pos = (292,260);
},
{
name = top;
pos = (292,520);
}
);
};
layerId = "D65C9A1E-0FCA-4B2D-8EDF-9F36CA9182A1";
shapes = (
{
closed = 1;
nodes = (
(472,0,l),
(472,20,l),
(99,20,l),
(99,22,l),
(472,500,l),
(472,520,l),
(72,520,l),
(72,500,l),
(445,500,l),
(445,498,l),
(72,20,l),
(72,0,l)
);
}
);
width = 544;
},
{
anchors = (
{
name = bottom;
pos = (279,0);
},
{
name = center;
pos = (279,260);
},
{
name = top;
pos = (279,520);
}
);
background = {
anchors = (
{
name = bottom;
pos = (285,0);
},
{
name = center;
pos = (285,260);
},
{
name = top;
pos = (285,520);
}
);
};
layerId = "9527F797-22C1-480E-A1FE-2CDBEBE1FD4C";
shapes = (
{
closed = 1;
nodes = (
(494,0,l),
(494,90,l),
(204,90,l),
(204,92,l),
(494,430,l),
(494,520,l),
(64,520,l),
(64,430,l),
(354,430,l),
(354,428,l),
(64,90,l),
(64,0,l)
);
}
);
width = 558;
},
{
anchors = (
{
name = bottom;
pos = (286,0);
},
{
name = center;
pos = (286,260);
},
{
name = top;
pos = (286,520);
}
);
layerId = "9E6B41AB-2970-4C41-8B35-4DBE0D296A43";
name = Black;
shapes = (
{
closed = 1;
nodes = (
(516,0,l),
(516,140,l),
(308,140,l),
(308,142,l),
(516,380,l),
(516,520,l),
(56,520,l),
(56,380,l),
(264,380,l),
(264,378,l),
(56,140,l),
(56,0,l)
);
}
);
width = 572;
}
);
metricLeft = "=h*.8";
metricRight = "=|";
unicode = 122;
},
{
glyphname = f_f;
kernLeft = f;
kernRight = f;
lastChange = "2026-05-25 06:25:52 +0000";
layers = (
{
background = {
shapes = (
{
ref = f;
},
{
alignment = -1;
pos = (360,0);
ref = f;
}
);
};
layerId = "D65C9A1E-0FCA-4B2D-8EDF-9F36CA9182A1";
shapes = (
{
closed = 1;
nodes = (
(227,0,l),
(227,460,l),
(567,460,l),
(567,0,l),
(587,0,l),
(587,460,l),
(832,460,l),
(832,480,l),
(587,480,l),
(587,620,ls),
(587,710,o),
(633,750,o),
(743,750,cs),
(776,750,o),
(798,747,o),
(831,736,c),
(837,755,l),
(803,766,o),
(778,770,o),
(743,770,cs),
(623,770,o),
(567,722,o),
(567,620,cs),
(567,480,l),
(227,480,l),
(227,620,ls),
(227,710,o),
(273,750,o),
(383,750,cs),
(416,750,o),
(438,747,o),
(471,736,c),
(477,755,l),
(443,766,o),
(418,770,o),
(383,770,cs),
(263,770,o),
(207,722,o),
(207,620,cs),
(207,480,l),
(27,480,l),
(27,460,l),
(207,460,l),
(207,0,l)
);
},
{
closed = 0;
nodes = (
);
}
);
width = 859;
},
{
background = {
shapes = (
{
pos = (3,0);
ref = f;
},
{
alignment = -1;
pos = (383,0);
ref = f;
}
);
};
layerId = "9527F797-22C1-480E-A1FE-2CDBEBE1FD4C";
shapes = (
{
closed = 1;
nodes = (
(279,0,l),
(279,400,l),
(550,400,l),
(550,0,l),
(659,0,l),
(659,400,l),
(869,400,l),
(869,490,l),
(659,490,l),
(659,585,ls),
(659,653,o),
(692,680,o),
(776,680,cs),
(804,680,o),
(825,677,o),
(855,668,c),
(874,755,l),
(836,765,o),
(795,770,o),
(756,770,cs),
(619,770,o),
(550,708,o),
(550,585,cs),
(550,490,l),
(279,490,l),
(279,585,ls),
(279,653,o),
(312,680,o),
(396,680,cs),
(424,680,o),
(445,677,o),
(475,668,c),
(494,755,l),
(456,765,o),
(415,770,o),
(376,770,cs),
(239,770,o),
(170,708,o),
(170,585,cs),
(170,490,l),
(24,490,l),
(24,400,l),
(170,400,l),
(170,0,l)
);
},
{
closed = 0;
nodes = (
);
}
);
width = 893;
},
{
background = {
shapes = (
{
pos = (3,0);
ref = f;
},
{
alignment = -1;
pos = (403,0);
ref = f;
}
);
};
layerId = "9E6B41AB-2970-4C41-8B35-4DBE0D296A43";
shapes = (
{
closed = 1;
nodes = (
(330,0,l),
(330,360,l),
(532,360,l),
(532,0,l),
(730,0,l),
(730,360,l),
(906,360,l),
(906,500,l),
(730,500,l),
(730,550,ls),
(730,611,o),
(748,630,o),
(806,630,cs),
(829,630,o),
(851,627,o),
(881,620,c),
(911,755,l),
(869,764,o),
(812,770,o),
(769,770,cs),
(615,770,o),
(532,693,o),
(532,550,cs),
(532,500,l),
(330,500,l),
(330,550,ls),
(330,611,o),
(348,630,o),
(406,630,cs),
(429,630,o),
(451,627,o),
(481,620,c),
(511,755,l),
(469,764,o),
(412,770,o),
(369,770,cs),
(215,770,o),
(132,693,o),
(132,550,cs),
(132,500,l),
(21,500,l),
(21,360,l),
(132,360,l),
(132,0,l)
);
},
{
closed = 0;
nodes = (
);
}
);
width = 928;
}
);
metricLeft = f;
metricRight = f;
},
{
color = 10;
glyphname = m_p_l_u_s_f_o_n_t_s;
kernLeft = H;
kernRight = S;
lastChange = "2026-05-25 06:25:39 +0000";
layers = (
{
layerId = "D65C9A1E-0FCA-4B2D-8EDF-9F36CA9182A1";
shapes = (
{
closed = 1;
nodes = (
(1782,0,l),
(1782,270,l),
(2102,270,l),
(2102,430,l),
(1782,430,l),
(1782,565,l),
(2122,565,l),
(2122,730,l),
(1582,730,l),
(1582,0,l)
);
},
{
closed = 1;
nodes = (
(2816,-10,o),
(2957,129,o),
(2957,365,cs),
(2957,601,o),
(2816,740,o),
(2577,740,cs),
(2338,740,o),
(2197,601,o),
(2197,365,cs),
(2197,129,o),
(2338,-10,o),
(2577,-10,cs)
);
},
{
closed = 1;
nodes = (
(2461,160,o),
(2402,229,o),
(2402,365,cs),
(2402,501,o),
(2461,570,o),
(2577,570,cs),
(2693,570,o),
(2752,501,o),
(2752,365,cs),
(2752,229,o),
(2693,160,o),
(2577,160,cs)
);
},
{
closed = 1;
nodes = (
(3247,0,l),
(3247,390,l),
(3249,390,l),
(3467,0,l),
(3667,0,l),
(3667,730,l),
(3467,730,l),
(3467,340,l),
(3465,340,l),
(3247,730,l),
(3047,730,l),
(3047,0,l)
);
},
{
closed = 1;
nodes = (
(4164,0,l),
(4164,560,l),
(4371,560,l),
(4371,730,l),
(3751,730,l),
(3751,560,l),
(3958,560,l),
(3958,0,l)
);
},
{
closed = 1;
nodes = (
(272,0,l),
(272,420,l),
(274,420,l),
(362,155,l),
(542,155,l),
(630,420,l),
(632,420,l),
(632,0,l),
(832,0,l),
(832,560,l),
(1037,560,l),
(1037,355,l),
(1207,355,l),
(1207,560,l),
(1412,560,l),
(1412,730,l),
(1207,730,l),
(1207,935,l),
(1037,935,l),
(1037,730,l),
(584,730,l),
(453,340,l),
(451,340,l),
(320,730,l),
(72,730,l),
(72,0,l)
);
},
{
closed = 1;
nodes = (
(4912,-10,o),
(5025,69,o),
(5025,210,cs),
(5025,320,o),
(4957,384,o),
(4787,434,cs),
(4671,468,o),
(4645,488,o),
(4645,526,cs),
(4645,560,o),
(4676,575,o),
(4743,575,cs),
(4819,575,o),
(4901,556,o),
(4973,522,c),
(5015,692,l),
(4944,722,o),
(4843,740,o),
(4746,740,cs),
(4546,740,o),
(4435,663,o),
(4435,525,cs),
(4435,413,o),
(4504,339,o),
(4659,297,cs),
(4785,262,o),
(4815,245,o),
(4815,210,cs),
(4815,174,o),
(4784,155,o),
(4725,155,cs),
(4651,155,o),
(4542,185,o),
(4473,224,c),
(4431,54,l),
(4496,14,o),
(4602,-10,o),
(4712,-10,cs)
);
}
);
width = 5079;
},
{
layerId = "9E6B41AB-2970-4C41-8B35-4DBE0D296A43";
shapes = (
{
closed = 1;
nodes = (
(1752,0,l),
(1752,270,l),
(2072,270,l),
(2072,430,l),
(1752,430,l),
(1752,565,l),
(2092,565,l),
(2092,730,l),
(1552,730,l),
(1552,0,l)
);
},
{
closed = 1;
nodes = (
(2786,-10,o),
(2927,129,o),
(2927,365,cs),
(2927,601,o),
(2786,740,o),
(2547,740,cs),
(2308,740,o),
(2167,601,o),
(2167,365,cs),
(2167,129,o),
(2308,-10,o),
(2547,-10,cs)
);
},
{
closed = 1;
nodes = (
(2431,160,o),
(2372,229,o),
(2372,365,cs),
(2372,501,o),
(2431,570,o),
(2547,570,cs),
(2663,570,o),
(2722,501,o),
(2722,365,cs),
(2722,229,o),
(2663,160,o),
(2547,160,cs)
);
},
{
closed = 1;
nodes = (
(3217,0,l),
(3217,390,l),
(3219,390,l),
(3437,0,l),
(3637,0,l),
(3637,730,l),
(3437,730,l),
(3437,340,l),
(3435,340,l),
(3217,730,l),
(3017,730,l),
(3017,0,l)
);
},
{
closed = 1;
nodes = (
(4134,0,l),
(4134,560,l),
(4341,560,l),
(4341,730,l),
(3721,730,l),
(3721,560,l),
(3928,560,l),
(3928,0,l)
);
},
{
closed = 1;
nodes = (
(242,0,l),
(242,420,l),
(244,420,l),
(332,155,l),
(512,155,l),
(600,420,l),
(602,420,l),
(602,0,l),
(802,0,l),
(802,560,l),
(1007,560,l),
(1007,355,l),
(1177,355,l),
(1177,560,l),
(1382,560,l),
(1382,730,l),
(1177,730,l),
(1177,935,l),
(1007,935,l),
(1007,730,l),
(554,730,l),
(423,340,l),
(421,340,l),
(290,730,l),
(42,730,l),
(42,0,l)
);
},
{
closed = 1;
nodes = (
(4882,-10,o),
(4995,69,o),
(4995,210,cs),
(4995,320,o),
(4927,384,o),
(4757,434,cs),
(4641,468,o),
(4615,488,o),
(4615,526,cs),
(4615,560,o),
(4646,575,o),
(4713,575,cs),
(4789,575,o),
(4871,556,o),
(4943,522,c),
(4985,692,l),
(4914,722,o),
(4813,740,o),
(4716,740,cs),
(4516,740,o),
(4405,663,o),
(4405,525,cs),
(4405,413,o),
(4474,339,o),
(4629,297,cs),
(4755,262,o),
(4785,245,o),
(4785,210,cs),
(4785,174,o),
(4754,155,o),
(4695,155,cs),
(4621,155,o),
(4512,185,o),
(4443,224,c),
(4401,54,l),
(4466,14,o),
(4572,-10,o),
(4682,-10,cs)
);
}
);
width = 5037;
},
{
layerId = "9527F797-22C1-480E-A1FE-2CDBEBE1FD4C";
shapes = (
{
closed = 1;
nodes = (
(1770,0,l),
(1770,270,l),
(2090,270,l),
(2090,430,l),
(1770,430,l),
(1770,565,l),
(2110,565,l),
(2110,730,l),
(1570,730,l),
(1570,0,l)
);
},
{
closed = 1;
nodes = (
(2804,-10,o),
(2945,129,o),
(2945,365,cs),
(2945,601,o),
(2804,740,o),
(2565,740,cs),
(2326,740,o),
(2185,601,o),
(2185,365,cs),
(2185,129,o),
(2326,-10,o),
(2565,-10,cs)
);
},
{
closed = 1;
nodes = (
(2449,160,o),
(2390,229,o),
(2390,365,cs),
(2390,501,o),
(2449,570,o),
(2565,570,cs),
(2681,570,o),
(2740,501,o),
(2740,365,cs),
(2740,229,o),
(2681,160,o),
(2565,160,cs)
);
},
{
closed = 1;
nodes = (
(3235,0,l),
(3235,390,l),
(3237,390,l),
(3455,0,l),
(3655,0,l),
(3655,730,l),
(3455,730,l),
(3455,340,l),
(3453,340,l),
(3235,730,l),
(3035,730,l),
(3035,0,l)
);
},
{
closed = 1;
nodes = (
(4152,0,l),
(4152,560,l),
(4359,560,l),
(4359,730,l),
(3739,730,l),
(3739,560,l),
(3946,560,l),
(3946,0,l)
);
},
{
closed = 1;
nodes = (
(260,0,l),
(260,420,l),
(262,420,l),
(350,155,l),
(530,155,l),
(618,420,l),
(620,420,l),
(620,0,l),
(820,0,l),
(820,560,l),
(1025,560,l),
(1025,355,l),
(1195,355,l),
(1195,560,l),
(1400,560,l),
(1400,730,l),
(1195,730,l),
(1195,935,l),
(1025,935,l),
(1025,730,l),
(572,730,l),
(441,340,l),
(439,340,l),
(308,730,l),
(60,730,l),
(60,0,l)
);
},
{
closed = 1;
nodes = (
(4900,-10,o),
(5013,69,o),
(5013,210,cs),
(5013,320,o),
(4945,384,o),
(4775,434,cs),
(4659,468,o),
(4633,488,o),
(4633,526,cs),
(4633,560,o),
(4664,575,o),
(4731,575,cs),
(4807,575,o),
(4889,556,o),
(4961,522,c),
(5003,692,l),
(4932,722,o),
(4831,740,o),
(4734,740,cs),
(4534,740,o),
(4423,663,o),
(4423,525,cs),
(4423,413,o),
(4492,339,o),
(4647,297,cs),
(4773,262,o),
(4803,245,o),
(4803,210,cs),
(4803,174,o),
(4772,155,o),
(4713,155,cs),
(4639,155,o),
(4530,185,o),
(4461,224,c),
(4419,54,l),
(4484,14,o),
(4590,-10,o),
(4700,-10,cs)
);
}
);
width = 5061;
}
);
metricLeft = "=M";
metricRight = "=S";
},
{
glyphname = ordfeminine;
kernLeft = asterisk;
kernRight = asterisk;
lastChange = "2026-05-25 06:28:46 +0000";
layers = (
{
background = {
shapes = (
{
pos = (5,312);
ref = a;
scale = (0.8,0.8);
}
);
};
layerId = "D65C9A1E-0FCA-4B2D-8EDF-9F36CA9182A1";
shapes = (
{
closed = 1;
nodes = (
(251,304,o),
(309,346,o),
(335,410,c),
(337,410,l),
(342,375,o),
(353,342,o),
(375,302,c),
(393,312,l),
(362,367,o),
(353,402,o),
(353,472,cs),
(353,572,ls),
(353,688,o),
(313,736,o),
(216,736,cs),
(159,736,o),
(96,722,o),
(51,697,c),
(61,679,l),
(103,703,o),
(160,716,o),
(216,716,cs),
(301,716,o),
(333,679,o),
(333,572,c),
(141,572,o),
(41,522,o),
(41,422,cs),
(41,351,o),
(95,304,o),
(176,304,cs)
);
},
{
closed = 1;
nodes = (
(105,324,o),
(61,363,o),
(61,422,cs),
(61,506,o),
(148,551,o),
(333,552,c),
(333,488,ls),
(333,392,o),
(267,324,o),
(176,324,cs)
);
}
);
width = 417;
},
{
background = {
shapes = (
{
pos = (8,312);
ref = a;
scale = (0.8,0.8);
}
);
};
layerId = "9527F797-22C1-480E-A1FE-2CDBEBE1FD4C";
shapes = (
{
closed = 1;
nodes = (
(219,304,o),
(267,331,o),
(296,373,c),
(298,373,l),
(304,347,o),
(314,319,o),
(329,293,c),
(428,335,l),
(398,388,o),
(388,432,o),
(388,512,cs),
(388,574,ls),
(388,691,o),
(344,736,o),
(229,736,cs),
(163,736,o),
(97,722,o),
(46,697,c),
(70,620,l),
(113,643,o),
(164,655,o),
(214,655,cs),
(266,655,o),
(286,638,o),
(285,574,c),
(123,571,o),
(36,521,o),
(36,426,cs),
(36,354,o),
(88,304,o),
(165,304,cs)
);
},
{
closed = 1;
nodes = (
(155,383,o),
(132,404,o),
(132,435,cs),
(132,478,o),
(178,504,o),
(285,507,c),
(285,478,ls),
(285,421,o),
(247,383,o),
(194,383,cs)
);
}
);
width = 446;
},
{
background = {
shapes = (
{
pos = (8,312);
ref = a;
scale = (0.8,0.8);
}
);
};
layerId = "9E6B41AB-2970-4C41-8B35-4DBE0D296A43";
shapes = (
{
closed = 1;
nodes = (
(197,304,o),
(243,324,o),
(273,356,c),
(275,356,l),
(282,331,o),
(291,310,o),
(301,293,c),
(464,358,l),
(435,408,o),
(424,462,o),
(424,552,cs),
(424,576,ls),
(424,694,o),
(376,736,o),
(243,736,cs),
(168,736,o),
(99,722,o),
(42,696,c),
(70,578,l),
(118,602,o),
(166,614,o),
(212,614,cs),
(246,614,o),
(257,607,o),
(257,576,c),
(111,574,o),
(32,522,o),
(32,430,cs),
(32,356,o),
(82,304,o),
(154,304,cs)
);
},
{
closed = 1;
nodes = (
(194,422,o),
(183,432,o),
(183,448,cs),
(183,468,o),
(207,480,o),
(257,481,c),
(257,468,ls),
(257,439,o),
(240,422,o),
(213,422,cs)
);
}
);
width = 479;
},
{
associatedMasterId = "D65C9A1E-0FCA-4B2D-8EDF-9F36CA9182A1";
attr = {
coordinates = (
232
);
};
layerId = "02CE7075-E2BA-495E-B00B-7DF72736FD8B";
name = "{232}";
shapes = (
{
closed = 1;
nodes = (
(239,304,o),
(293,334,o),
(325,384,c),
(327,384,l),
(333,357,o),
(343,329,o),
(360,299,c),
(404,320,l),
(373,375,o),
(364,412,o),
(364,485,cs),
(364,573,ls),
(364,689,o),
(323,736,o),
(220,736,cs),
(160,736,o),
(96,722,o),
(49,697,c),
(64,660,l),
(107,684,o),
(161,696,o),
(215,696,cs),
(289,696,o),
(317,665,o),
(317,573,c),
(134,572,o),
(39,522,o),
(39,423,cs),
(39,352,o),
(92,304,o),
(172,304,cs)
);
},
{
closed = 1;
nodes = (
(123,347,o),
(88,379,o),
(88,426,cs),
(88,493,o),
(157,530,o),
(313,533,c),
(313,485,ls),
(313,404,o),
(258,347,o),
(182,347,cs)
);
}
);
width = 424;
}
);
metricLeft = "=a*.9";
metricRight = "=a*.9";
unicode = 170;
},
{
glyphname = ordmasculine;
kernLeft = asterisk;
kernRight = asterisk;
lastChange = "2026-05-25 06:25:52 +0000";
layers = (
{
background = {
shapes = (
{
pos = (5,312);
ref = o;
scale = (0.8,0.8);
}
);
};
layerId = "D65C9A1E-0FCA-4B2D-8EDF-9F36CA9182A1";
shapes = (
{
closed = 1;
nodes = (
(343,304,o),
(409,382,o),
(409,520,cs),
(409,658,o),
(343,736,o),
(225,736,cs),
(107,736,o),
(41,658,o),
(41,520,cs),
(41,382,o),
(107,304,o),
(225,304,cs)
);
},
{
closed = 1;
nodes = (
(119,324,o),
(61,392,o),
(61,520,cs),
(61,648,o),
(119,716,o),
(225,716,cs),
(331,716,o),
(389,648,o),
(389,520,cs),
(389,392,o),
(331,324,o),
(225,324,cs)
);
}
);
width = 450;
},
{
background = {
shapes = (
{
pos = (8,312);
ref = o;
scale = (0.8,0.8);
}
);
};
layerId = "9527F797-22C1-480E-A1FE-2CDBEBE1FD4C";
shapes = (
{
closed = 1;
nodes = (
(373,304,o),
(444,380,o),
(444,520,cs),
(444,660,o),
(373,736,o),
(240,736,cs),
(108,736,o),
(36,660,o),
(36,520,cs),
(36,380,o),
(108,304,o),
(240,304,cs)
);
},
{
closed = 1;
nodes = (
(174,385,o),
(140,429,o),
(140,520,cs),
(140,612,o),
(174,655,o),
(240,655,cs),
(307,655,o),
(341,612,o),
(341,520,cs),
(341,429,o),
(307,385,o),
(240,385,cs)
);
}
);
width = 480;
},
{
background = {
shapes = (
{
pos = (8,312);
ref = o;
scale = (0.8,0.8);
}
);
};
layerId = "9E6B41AB-2970-4C41-8B35-4DBE0D296A43";
shapes = (
{
closed = 1;
nodes = (
(403,304,o),
(480,378,o),
(480,520,cs),
(480,662,o),
(403,736,o),
(256,736,cs),
(109,736,o),
(32,662,o),
(32,520,cs),
(32,378,o),
(109,304,o),
(256,304,cs)
);
},
{
closed = 1;
nodes = (
(217,426,o),
(199,455,o),
(199,520,cs),
(199,585,o),
(217,614,o),
(256,614,cs),
(295,614,o),
(313,585,o),
(313,520,cs),
(313,455,o),
(295,426,o),
(256,426,cs)
);
}
);
width = 512;
}
);
metricLeft = "=o*.9";
metricRight = "=|";
unicode = 186;
},
{
color = 6;
glyphname = "close-han";
lastChange = "2026-05-31 09:16:10 +0000";
layers = (
{
layerId = "D65C9A1E-0FCA-4B2D-8EDF-9F36CA9182A1";
shapes = (
{
closed = 1;
nodes = (
(361,235,o),
(582,468,o),
(895,752,c),
(881,766,l),
(574,488,o),
(353,255,o),
(152,0,c),
(159,-2,l),
(162,310,o),
(238,489,o),
(363,489,cs),
(502,489,o),
(651,383,o),
(801,173,c),
(817,185,l),
(665,397,o),
(510,509,o),
(363,509,cs),
(220,509,o),
(139,311,o),
(139,-20,c),
(157,-26,l)
);
}
);
vertWidth = 1000;
width = 1000;
},
{
layerId = "9527F797-22C1-480E-A1FE-2CDBEBE1FD4C";
shapes = (
{
closed = 1;
nodes = (
(390,190,o),
(653,474,o),
(928,723,c),
(854,790,l),
(597,557,o),
(345,286,o),
(177,67,c),
(202,59,l),
(203,303,o),
(270,458,o),
(371,458,cs),
(491,458,o),
(649,331,o),
(772,138,c),
(850,209,l),
(710,415,o),
(521,546,o),
(367,546,cs),
(198,546,o),
(106,343,o),
(106,-18,c),
(208,-50,l)
);
}
);
width = 1000;
},
{
background = {
shapes = (
{
closed = 1;
nodes = (
(444,173,o),
(759,507,o),
(962,690,c),
(828,810,l),
(639,638,o),
(347,325,o),
(202,128,c),
(245,114,l),
(245,231,o),
(275,422,o),
(379,422,cs),
(483,422,o),
(651,264,o),
(742,98,c),
(882,228,l),
(778,389,o),
(560,578,o),
(371,578,cs),
(219,578,o),
(72,456,o),
(72,-22,c),
(258,-80,l)
);
}
);
};
layerId = "9E6B41AB-2970-4C41-8B35-4DBE0D296A43";
shapes = (
{
closed = 1;
nodes = (
(420,147,o),
(728,483,o),
(962,695,c),
(828,815,l),
(624,629,o),
(337,316,o),
(202,133,c),
(245,119,l),
(245,298,o),
(301,427,o),
(379,427,cs),
(479,427,o),
(647,277,o),
(742,103,c),
(882,233,l),
(755,430,o),
(532,583,o),
(371,583,cs),
(176,583,o),
(72,375,o),
(72,-17,c),
(258,-75,l)
);
}
);
width = 1000;
}
);
note = uni3006;
unicode = 12294;
},
{
color = 6;
glyphname = "iterationmark-han";
lastChange = "2026-05-31 09:16:10 +0000";
layers = (
{
layerId = "D65C9A1E-0FCA-4B2D-8EDF-9F36CA9182A1";
shapes = (
{
closed = 1;
nodes = (
(252,369,o),
(390,586,o),
(454,784,c),
(434,790,l),
(372,596,o),
(238,383,o),
(101,267,c),
(113,251,l)
);
},
{
closed = 1;
nodes = (
(364,610,l),
(364,590,l),
(839,590,l),
(839,610,l)
);
},
{
closed = 1;
nodes = (
(702,265,o),
(808,435,o),
(839,590,c),
(819,594,l),
(788,441,o),
(687,279,o),
(553,165,c),
(565,149,l)
);
},
{
closed = 1;
nodes = (
(630,110,o),
(524,207,o),
(380,320,c),
(368,304,l),
(512,191,o),
(616,96,o),
(732,-30,c),
(746,-16,l)
);
}
);
vertWidth = 1000;
width = 1000;
},
{
layerId = "9527F797-22C1-480E-A1FE-2CDBEBE1FD4C";
shapes = (
{
closed = 1;
nodes = (
(302,345,o),
(427,557,o),
(499,784,c),
(387,805,l),
(325,606,o),
(212,418,o),
(68,271,c),
(157,204,l)
);
},
{
closed = 1;
nodes = (
(369,650,l),
(369,558,l),
(862,558,l),
(862,650,l)
);
},
{
closed = 1;
nodes = (
(725,236,o),
(829,407,o),
(862,558,c),
(754,584,l),
(710,425,o),
(636,307,o),
(515,197,c),
(600,124,l)
);
},
{
closed = 1;
nodes = (
(681,137,o),
(557,253,o),
(422,354,c),
(351,273,l),
(487,171,o),
(592,75,o),
(709,-55,c),
(789,15,l)
);
}
);
width = 1000;
},
{
background = {
shapes = (
{
closed = 0;
nodes = (
(335,810,l),
(237,501,o),
(30,265,q),
(180,170,l),
(318,324,o),
(411,515,q),
(690,515,l),
(650,396,o),
(558,276,q),
(506,320,o),
(450,360,q),
(325,235,l),
(520,91,o),
(680,-90,q),
(815,30,l),
(758,94,o),
(692,156,q),
(833,337,o),
(880,515,q),
(880,670,l),
(478,670,l),
(504,742,o),
(515,780,q),
(335,810,l)
);
}
);
};
layerId = "9E6B41AB-2970-4C41-8B35-4DBE0D296A43";
shapes = (
{
closed = 1;
nodes = (
(328,334,o),
(440,540,o),
(520,790,c),
(340,820,l),
(277,615,o),
(185,451,o),
(35,275,c),
(181,176,l)
);
},
{
closed = 1;
nodes = (
(373,680,l),
(373,525,l),
(885,525,l),
(885,680,l)
);
},
{
closed = 1;
nodes = (
(751,210,o),
(850,378,o),
(885,525,c),
(712,570,l),
(655,407,o),
(608,331,o),
(500,225,c),
(634,99,l)
);
},
{
closed = 1;
nodes = (
(722,156,o),
(581,288,o),
(460,375,c),
(334,242,l),
(460,152,o),
(568,53,o),
(685,-80,c),
(820,40,l)
);
}
);
width = 1000;
}
);
note = uni3005;
unicode = 12293;
},
{
color = 6;
glyphname = "ninojiten-han";
lastChange = "2026-05-31 09:16:10 +0000";
layers = (
{
layerId = "D65C9A1E-0FCA-4B2D-8EDF-9F36CA9182A1";
shapes = (
{
closed = 1;
nodes = (
(522,-31,o),
(686,11,o),
(686,98,cs),
(686,216,o),
(371,296,o),
(371,374,cs),
(371,446,o),
(661,439,o),
(661,553,cs),
(661,633,o),
(516,733,o),
(320,799,c),
(314,781,l),
(508,715,o),
(641,619,o),
(641,553,cs),
(641,458,o),
(351,468,o),
(351,374,cs),
(351,279,o),
(666,201,o),
(666,98,cs),
(666,30,o),
(517,-11,o),
(364,-39,c),
(368,-59,l)
);
}
);
vertWidth = 1000;
width = 1000;
},
{
background = {
shapes = (
{
closed = 1;
nodes = (
(320,15,q),
(348,-82,l),
(562,-53,o),
(735,37,o),
(735,105,qs),
(735,145,o),
(655,225,o),
(552,280,qs),
(477,320,o),
(432,353,o),
(432,365,qs),
(432,375,o),
(470,393,o),
(540,412,qs),
(631,437,o),
(710,500,o),
(710,542,qs),
(710,610,o),
(511,758,o),
(320,818,q),
(278,722,l),
(429,673,o),
(588,579,o),
(588,550,qs),
(588,539,o),
(570,523,o),
(504,499,o),
(438,482,qs),
(302,447,o),
(302,370,qs),
(302,333,o),
(376,260,o),
(470,212,qs),
(555,168,o),
(608,128,o),
(608,110,qs),
(608,53,o)
);
}
);
};
layerId = "9527F797-22C1-480E-A1FE-2CDBEBE1FD4C";
shapes = (
{
closed = 1;
nodes = (
(609,-39,o),
(735,21,o),
(735,108,cs),
(735,243,o),
(432,319,o),
(432,370,cs),
(432,419,o),
(710,412,o),
(710,544,cs),
(710,645,o),
(547,753,o),
(323,819,c),
(285,725,l),
(443,678,o),
(592,601,o),
(592,554,cs),
(592,489,o),
(307,504,o),
(307,377,cs),
(307,246,o),
(612,182,o),
(612,114,cs),
(612,64,o),
(444,37,o),
(321,18,c),
(348,-79,l)
);
}
);
width = 1000;
},
{
layerId = "9E6B41AB-2970-4C41-8B35-4DBE0D296A43";
shapes = (
{
closed = 1;
nodes = (
(466,-84,o),
(785,-52,o),
(785,118,cs),
(785,266,o),
(495,318,o),
(495,365,cs),
(495,408,o),
(760,389,o),
(760,535,cs),
(760,663,o),
(578,775,o),
(325,840,c),
(255,680,l),
(377,650,o),
(545,585,o),
(545,555,cs),
(545,500,o),
(265,518,o),
(265,379,cs),
(265,231,o),
(560,183,o),
(560,130,cs),
(560,91,o),
(377,76,o),
(290,65,c),
(330,-100,l)
);
}
);
width = 1000;
}
);
note = uni303B;
unicode = 12347;
},
{
glyphname = "a-hira";
lastChange = "2025-02-04 12:34:14 +0000";
layers = (
{
layerId = "9527F797-22C1-480E-A1FE-2CDBEBE1FD4C";
shapes = (
{
closed = 1;
nodes = (
(545,590,o),
(739,607,o),
(881,635,c),
(877,720,l),
(734,692,o),
(543,675,o),
(361,675,cs),
(283,675,o),
(208,678,o),
(111,685,c),
(107,600,l),
(208,593,o),
(286,590,o),
(364,590,cs)
);
},
{
closed = 1;
nodes = (
(461,134,l),
(444,237,o),
(433,334,o),
(426,447,c),
(426,447,l),
(419,555,o),
(416,670,o),
(416,813,c),
(316,813,l),
(316,662,o),
(319,537,o),
(326,428,c),
(326,428,l),
(333,312,o),
(344,214,o),
(361,117,c)
);
},
{
closed = 1;
nodes = (
(769,-20,o),
(910,93,o),
(910,243,cs),
(910,394,o),
(768,504,o),
(554,504,cs),
(299,504,o),
(90,347,o),
(90,156,cs),
(90,56,o),
(148,-4,o),
(242,-2,cs),
(404,1,o),
(595,187,o),
(802,540,c),
(715,580,l),
(548,291,o),
(353,91,o),
(248,91,cs),
(210,91,o),
(188,117,o),
(188,165,cs),
(188,301,o),
(364,421,o),
(558,421,cs),
(712,421,o),
(810,345,o),
(810,244,cs),
(810,137,o),
(702,59,o),
(527,30,c),
(563,-53,l)
);
}
);
width = 1000;
},
{
layerId = "9E6B41AB-2970-4C41-8B35-4DBE0D296A43";
shapes = (
{
closed = 1;
nodes = (
(569,556,o),
(737,569,o),
(900,596,c),
(895,746,l),
(731,719,o),
(564,706,o),
(379,706,cs),
(290,706,o),
(206,709,o),
(100,716,c),
(95,566,l),
(208,559,o),
(295,556,o),
(384,556,cs)
);
},
{
closed = 1;
nodes = (
(486,107,l),
(475,206,o),
(467,314,o),
(462,442,c),
(482,442,l),
(478,551,o),
(476,672,o),
(476,816,c),
(296,816,l),
(296,653,o),
(298,519,o),
(302,405,c),
(322,405,l),
(327,271,o),
(335,166,o),
(346,77,c)
);
},
{
closed = 1;
nodes = (
(813,-32,o),
(930,80,o),
(930,226,cs),
(930,403,o),
(781,517,o),
(550,517,cs),
(278,517,o),
(70,363,o),
(70,163,cs),
(70,42,o),
(147,-37,o),
(260,-33,cs),
(443,-27,o),
(685,179,o),
(870,487,c),
(714,557,l),
(562,316,o),
(379,132,o),
(291,132,cs),
(260,132,o),
(245,148,o),
(245,182,cs),
(245,279,o),
(398,372,o),
(557,372,cs),
(678,372,o),
(750,318,o),
(750,227,cs),
(750,154,o),
(689,107,o),
(545,69,c),
(615,-76,l)
);
}
);
width = 1000;
},
{
associatedMasterId = "9527F797-22C1-480E-A1FE-2CDBEBE1FD4C";
attr = {
coordinates = (
632
);
};
layerId = "ED9AD003-790A-45B3-87D4-A016D5568221";
name = "{767}";
shapes = (
{
closed = 1;
nodes = (
(552,576,o),
(739,592,o),
(887,619,c),
(883,726,l),
(732,698,o),
(550,683,o),
(367,683,cs),
(286,683,o),
(207,686,o),
(107,693,c),
(103,586,l),
(207,579,o),
(289,576,o),
(371,576,cs)
);
},
{
closed = 1;
nodes = (
(475,122,l),
(460,223,o),
(450,326,o),
(444,443,c),
(444,443,l),
(438,550,o),
(436,668,o),
(436,812,c),
(309,812,l),
(309,658,o),
(312,528,o),
(318,418,c),
(318,418,l),
(324,298,o),
(334,195,o),
(349,101,c)
);
},
{
closed = 1;
nodes = (
(783,-26,o),
(917,86,o),
(917,235,cs),
(917,393,o),
(772,506,o),
(553,506,cs),
(293,506,o),
(83,350,o),
(83,156,cs),
(83,50,o),
(147,-18,o),
(248,-15,cs),
(418,-11,o),
(624,181,o),
(824,520,c),
(715,570,l),
(553,297,o),
(362,102,o),
(262,102,cs),
(228,102,o),
(207,125,o),
(207,168,cs),
(207,290,o),
(375,402,o),
(558,402,cs),
(700,402,o),
(790,333,o),
(790,236,cs),
(790,141,o),
(698,72,o),
(533,40,c),
(580,-63,l)
);
}
);
width = 1000;
},
{
background = {
shapes = (
{
closed = 0;
nodes = (
(120,645,l),
(209,638,o),
(276,635,o),
(343,635,cs),
(521,635,o),
(738,656,o),
(860,685,c)
);
},
{
closed = 0;
nodes = (
(405,159,l),
(360,371,o),
(345,534,o),
(345,809,c)
);
},
{
closed = 0;
nodes = (
(510,-19,l),
(720,2,o),
(880,123,o),
(880,261,cs),
(880,389,o),
(745,481,o),
(558,481,cs),
(319,481,o),
(120,330,o),
(120,149,cs),
(120,79,o),
(150,40,o),
(204,40,cs),
(333,40,o),
(542,264,o),
(724,599,c)
);
}
);
};
layerId = "D65C9A1E-0FCA-4B2D-8EDF-9F36CA9182A1";
name = Thin;
shapes = (
{
closed = 1;
nodes = (
(521,625,o),
(740,646,o),
(862,675,c),
(858,695,l),
(736,666,o),
(521,645,o),
(343,645,cs),
(276,645,o),
(210,648,o),
(121,655,c),
(119,635,l),
(208,628,o),
(276,625,o),
(343,625,cs)
);
},
{
closed = 1;
nodes = (
(415,161,l),
(393,264,o),
(378,354,o),
(369,452,c),
(369,452,l),
(359,556,o),
(355,667,o),
(355,809,c),
(335,809,l),
(335,667,o),
(339,555,o),
(349,450,c),
(349,450,l),
(358,351,o),
(373,260,o),
(395,157,c)
);
},
{
closed = 1;
nodes = (
(723,-8,o),
(890,116,o),
(890,261,cs),
(890,396,o),
(750,491,o),
(558,491,cs),
(314,491,o),
(110,337,o),
(110,149,cs),
(110,73,o),
(144,30,o),
(204,30,cs),
(339,30,o),
(550,257,o),
(733,594,c),
(715,604,l),
(534,271,o),
(327,50,o),
(204,50,cs),
(157,50,o),
(130,84,o),
(130,149,cs),
(130,323,o),
(324,471,o),
(558,471,cs),
(740,471,o),
(870,382,o),
(870,261,cs),
(870,130,o),
(717,12,o),
(509,-9,c),
(511,-29,l)
);
}
);
width = 1000;
}
);
unicode = 12354;
},
{
glyphname = "asmall-hira";
lastChange = "2026-05-09 08:53:28 +0000";
layers = (
{
background = {
shapes = (
{
alignment = -1;
pos = (100,-8);
ref = "a-hira";
scale = (0.8,0.8);
}
);
};
layerId = "D65C9A1E-0FCA-4B2D-8EDF-9F36CA9182A1";
shapes = (
{
closed = 1;
nodes = (
(517,490,o),
(692,507,o),
(790,530,c),
(786,550,l),
(688,527,o),
(517,510,o),
(374,510,cs),
(321,510,o),
(268,512,o),
(197,518,c),
(195,498,l),
(266,492,o),
(321,490,o),
(374,490,cs)
);
},
{
closed = 1;
nodes = (
(434,121,l),
(416,204,o),
(405,277,o),
(397,356,c),
(397,356,l),
(389,438,o),
(386,527,o),
(386,639,c),
(366,639,l),
(366,522,o),
(369,429,o),
(378,343,c),
(378,343,l),
(386,267,o),
(397,196,o),
(414,117,c)
);
},
{
closed = 1;
nodes = (
(679,-16,o),
(814,83,o),
(814,201,cs),
(814,310,o),
(701,387,o),
(546,387,cs),
(350,387,o),
(186,263,o),
(186,111,cs),
(186,50,o),
(213,14,o),
(263,14,cs),
(372,14,o),
(542,196,o),
(688,466,c),
(670,476,l),
(526,210,o),
(360,34,o),
(263,34,cs),
(227,34,o),
(206,60,o),
(206,111,cs),
(206,249,o),
(360,367,o),
(546,367,cs),
(691,367,o),
(794,296,o),
(794,201,cs),
(794,97,o),
(673,4,o),
(507,-13,c),
(509,-33,l)
);
}
);
width = 1000;
},
{
background = {
shapes = (
{
alignment = -1;
pos = (100,-8);
ref = "a-hira";
scale = (0.8,0.8);
}
);
};
layerId = "9527F797-22C1-480E-A1FE-2CDBEBE1FD4C";
shapes = (
{
closed = 1;
nodes = (
(536,456,o),
(691,469,o),
(805,492,c),
(801,578,l),
(686,555,o),
(534,542,o),
(389,542,cs),
(327,542,o),
(267,544,o),
(189,550,c),
(186,464,l),
(266,458,o),
(329,456,o),
(391,456,cs)
);
},
{
closed = 1;
nodes = (
(469,100,l),
(455,181,o),
(447,260,o),
(441,351,c),
(441,351,l),
(435,436,o),
(433,529,o),
(433,642,c),
(335,642,l),
(335,518,o),
(337,417,o),
(343,330,c),
(343,330,l),
(349,238,o),
(358,161,o),
(371,86,c)
);
},
{
closed = 1;
nodes = (
(715,-25,o),
(829,70,o),
(829,187,cs),
(829,312,o),
(713,397,o),
(543,397,cs),
(336,397,o),
(171,273,o),
(171,117,cs),
(171,38,o),
(216,-12,o),
(286,-10,cs),
(411,-8,o),
(591,161,o),
(737,416,c),
(652,457,l),
(521,233,o),
(372,82,o),
(298,82,cs),
(277,82,o),
(267,95,o),
(267,125,cs),
(267,221,o),
(397,313,o),
(546,313,cs),
(659,313,o),
(731,261,o),
(731,188,cs),
(731,117,o),
(655,56,o),
(524,34,c),
(551,-51,l)
);
}
);
width = 1000;
},
{
background = {
shapes = (
{
alignment = -1;
pos = (100,-8);
ref = "a-hira";
scale = (0.8,0.8);
}
);
};
layerId = "9E6B41AB-2970-4C41-8B35-4DBE0D296A43";
shapes = (
{
closed = 1;
nodes = (
(555,427,o),
(690,437,o),
(820,459,c),
(816,599,l),
(685,577,o),
(551,567,o),
(403,567,cs),
(332,567,o),
(265,569,o),
(180,575,c),
(176,435,l),
(266,429,o),
(336,427,o),
(407,427,cs)
);
},
{
closed = 1;
nodes = (
(471,78,l),
(462,157,o),
(456,243,o),
(452,346,c),
(478,346,l),
(474,433,o),
(473,530,o),
(473,645,c),
(309,645,l),
(309,514,o),
(310,407,o),
(314,316,c),
(344,316,l),
(348,209,o),
(354,125,o),
(363,54,c)
);
},
{
closed = 1;
nodes = (
(750,-34,o),
(844,56,o),
(844,173,cs),
(844,314,o),
(725,406,o),
(540,406,cs),
(322,406,o),
(156,282,o),
(156,122,cs),
(156,26,o),
(218,-38,o),
(308,-34,cs),
(454,-30,o),
(648,134,o),
(796,381,c),
(643,432,l),
(526,250,o),
(389,118,o),
(333,118,cs),
(320,118,o),
(316,123,o),
(316,138,cs),
(316,201,o),
(427,270,o),
(546,270,cs),
(632,270,o),
(680,233,o),
(680,174,cs),
(680,129,o),
(642,97,o),
(542,69,c),
(592,-69,l)
);
}
);
width = 1000;
}
);
unicode = 12353;
},
{
glyphname = "i-hira";
lastChange = "2025-03-15 06:09:55 +0000";
layers = (
{
layerId = "9527F797-22C1-480E-A1FE-2CDBEBE1FD4C";
shapes = (
{
closed = 1;
nodes = (
(424,-13,o),
(566,195,o),
(623,427,c),
(519,453,l),
(470,282,o),
(376,111,o),
(332,111,cs),
(283,111,o),
(225,303,o),
(225,463,cs),
(225,537,o),
(234,637,o),
(246,697,c),
(139,706,l),
(127,644,o),
(117,528,o),
(117,450,cs),
(117,211,o),
(217,-13,o),
(323,-13,cs)
);
},
{
closed = 1;
nodes = (
(962,131,l),
(931,357,o),
(851,565,o),
(738,713,c),
(644,668,l),
(753,522,o),
(830,321,o),
(860,104,c)
);
}
);
width = 1000;
},
{
layerId = "9E6B41AB-2970-4C41-8B35-4DBE0D296A43";
shapes = (
{
closed = 1;
nodes = (
(474,-40,o),
(631,181,o),
(662,424,c),
(477,470,l),
(442,305,o),
(391,200,o),
(346,200,cs),
(306,200,o),
(281,279,o),
(281,403,cs),
(281,488,o),
(293,618,o),
(309,706,c),
(115,720,l),
(99,637,o),
(85,488,o),
(85,401,cs),
(85,158,o),
(195,-40,o),
(331,-40,cs)
);
},
{
closed = 1;
nodes = (
(995,132,l),
(953,371,o),
(873,577,o),
(759,740,c),
(587,663,l),
(692,506,o),
(772,298,o),
(811,80,c)
);
}
);
width = 1000;
},
{
background = {
shapes = (
{
closed = 0;
nodes = (
(172,688,l),
(165,648,o),
(159,560,o),
(159,498,cs),
(159,275,o),
(243,20,o),
(314,20,cs),
(376,20,o),
(497,222,o),
(569,434,c)
);
},
{
closed = 0;
nodes = (
(919,128,l),
(899,341,o),
(821,545,o),
(709,678,c)
);
}
);
};
layerId = "D65C9A1E-0FCA-4B2D-8EDF-9F36CA9182A1";
name = Thin;
shapes = (
{
closed = 1;
nodes = (
(384,10,o),
(506,218,o),
(578,431,c),
(558,437,l),
(487,227,o),
(368,30,o),
(314,30,cs),
(254,30,o),
(169,277,o),
(169,498,cs),
(169,560,o),
(175,646,o),
(182,686,c),
(162,690,l),
(155,650,o),
(149,560,o),
(149,498,cs),
(149,272,o),
(233,10,o),
(314,10,cs)
);
},
{
closed = 1;
nodes = (
(929,129,l),
(909,343,o),
(829,551,o),
(717,684,c),
(701,672,l),
(813,539,o),
(889,339,o),
(909,127,c)
);
}
);
width = 1000;
}
);
unicode = 12356;
},
{
glyphname = "ismall-hira";
lastChange = "2026-05-09 09:03:21 +0000";
layers = (
{
background = {
shapes = (
{
alignment = -1;
pos = (100,-8);
ref = "i-hira";
scale = (0.8,0.8);
}
);
};
layerId = "D65C9A1E-0FCA-4B2D-8EDF-9F36CA9182A1";
shapes = (
{
closed = 1;
nodes = (
(409,-2,o),
(506,165,o),
(564,336,c),
(546,342,l),
(488,172,o),
(392,18,o),
(351,18,cs),
(305,18,o),
(237,214,o),
(237,390,cs),
(237,440,o),
(242,508,o),
(247,540,c),
(227,544,l),
(222,512,o),
(217,440,o),
(217,390,cs),
(217,209,o),
(284,-2,o),
(351,-2,cs)
);
},
{
closed = 1;
nodes = (
(845,95,l),
(829,267,o),
(765,434,o),
(675,540,c),
(659,528,l),
(749,422,o),
(809,263,o),
(825,93,c)
);
}
);
width = 1000;
},
{
background = {
shapes = (
{
alignment = -1;
pos = (100,-8);
ref = "i-hira";
scale = (0.8,0.8);
}
);
};
layerId = "9527F797-22C1-480E-A1FE-2CDBEBE1FD4C";
shapes = (
{
closed = 1;
nodes = (
(444,-21,o),
(555,150,o),
(597,334,c),
(498,359,l),
(455,209,o),
(389,101,o),
(364,101,cs),
(342,101,o),
(297,219,o),
(297,352,cs),
(297,411,o),
(304,495,o),
(313,546,c),
(210,556,l),
(201,507,o),
(193,411,o),
(193,352,cs),
(193,164,o),
(270,-21,o),
(358,-21,cs)
);
},
{
closed = 1;
nodes = (
(871,97,l),
(846,278,o),
(782,443,o),
(691,562,c),
(601,516,l),
(688,400,o),
(748,243,o),
(771,72,c)
);
}
);
width = 1000;
},
{
background = {
shapes = (
{
alignment = -1;
pos = (100,-8);
ref = "i-hira";
scale = (0.8,0.8);
}
);
};
layerId = "9E6B41AB-2970-4C41-8B35-4DBE0D296A43";
shapes = (
{
closed = 1;
nodes = (
(479,-40,o),
(605,137,o),
(630,331,c),
(462,372,l),
(435,244,o),
(395,172,o),
(377,172,cs),
(365,172,o),
(345,221,o),
(345,314,cs),
(345,381,o),
(354,483,o),
(367,553,c),
(192,568,l),
(179,502,o),
(168,382,o),
(168,313,cs),
(168,118,o),
(256,-40,o),
(365,-40,cs)
);
},
{
closed = 1;
nodes = (
(896,98,l),
(862,289,o),
(798,454,o),
(707,584,c),
(553,511,l),
(636,387,o),
(699,224,o),
(729,52,c)
);
}
);
width = 1000;
}
);
unicode = 12355;
},
{
glyphname = "u-hira";
lastChange = "2025-02-24 09:48:28 +0000";
layers = (
{
layerId = "9E6B41AB-2970-4C41-8B35-4DBE0D296A43";
shapes = (
{
closed = 1;
nodes = (
(783,740,l),
(619,756,o),
(417,786,o),
(270,816,c),
(230,636,l),
(420,600,o),
(614,572,o),
(753,560,c)
);
},
{
closed = 1;
nodes = (
(680,-52,o),
(890,75,o),
(890,289,cs),
(890,447,o),
(774,524,o),
(535,524,cs),
(422,524,o),
(326,506,o),
(110,444,c),
(157,269,l),
(336,321,o),
(458,344,o),
(556,344,cs),
(649,344,o),
(685,324,o),
(685,272,cs),
(685,174,o),
(572,130,o),
(245,99,c),
(290,-76,l)
);
}
);
width = 1000;
},
{
layerId = "9527F797-22C1-480E-A1FE-2CDBEBE1FD4C";
shapes = (
{
closed = 1;
nodes = (
(745,716,l),
(595,731,o),
(411,761,o),
(278,793,c),
(255,693,l),
(410,658,o),
(591,629,o),
(729,616,c)
);
},
{
closed = 1;
nodes = (
(646,-38,o),
(863,92,o),
(863,295,cs),
(863,441,o),
(751,516,o),
(532,516,cs),
(420,516,o),
(321,495,o),
(127,431,c),
(154,334,l),
(330,393,o),
(438,416,o),
(543,416,cs),
(682,416,o),
(750,373,o),
(750,287,cs),
(750,148,o),
(587,63,o),
(266,45,c),
(289,-53,l)
);
}
);
width = 1000;
},
{
background = {
shapes = (
{
closed = 0;
nodes = (
(708,681,l),
(570,695,o),
(404,726,o),
(285,760,c)
);
},
{
closed = 0;
nodes = (
(289,-20,l),
(610,-14,o),
(827,115,o),
(827,301,cs),
(827,429,o),
(724,497,o),
(531,497,cs),
(418,497,o),
(319,474,o),
(147,408,c)
);
}
);
};
layerId = "D65C9A1E-0FCA-4B2D-8EDF-9F36CA9182A1";
shapes = (
{
closed = 1;
nodes = (
(709,691,l),
(571,705,o),
(407,736,o),
(288,770,c),
(282,750,l),
(401,716,o),
(569,685,o),
(707,671,c)
);
},
{
closed = 1;
nodes = (
(614,-24,o),
(837,108,o),
(837,301,cs),
(837,436,o),
(729,507,o),
(531,507,cs),
(417,507,o),
(315,483,o),
(143,417,c),
(151,399,l),
(323,465,o),
(419,487,o),
(531,487,cs),
(719,487,o),
(817,422,o),
(817,301,cs),
(817,122,o),
(606,-4,o),
(289,-10,c),
(289,-30,l)
);
}
);
width = 1000;
}
);
unicode = 12358;
},
{
glyphname = "usmall-hira";
lastChange = "2026-05-09 09:03:21 +0000";
layers = (
{
background = {
shapes = (
{
alignment = -1;
pos = (100,-8);
ref = "u-hira";
scale = (0.8,0.8);
}
);
};
layerId = "D65C9A1E-0FCA-4B2D-8EDF-9F36CA9182A1";
shapes = (
{
closed = 1;
nodes = (
(668,547,l),
(557,558,o),
(427,583,o),
(331,610,c),
(325,590,l),
(421,563,o),
(555,538,o),
(666,527,c)
);
},
{
closed = 1;
nodes = (
(592,-29,o),
(772,77,o),
(772,233,cs),
(772,342,o),
(685,400,o),
(525,400,cs),
(434,400,o),
(352,380,o),
(214,327,c),
(222,309,l),
(360,362,o),
(436,380,o),
(525,380,cs),
(675,380,o),
(752,328,o),
(752,233,cs),
(752,91,o),
(584,-9,o),
(332,-14,c),
(332,-34,l)
);
}
);
width = 1000;
},
{
background = {
shapes = (
{
alignment = -1;
pos = (100,-8);
ref = "u-hira";
scale = (0.8,0.8);
}
);
};
layerId = "9E6B41AB-2970-4C41-8B35-4DBE0D296A43";
shapes = (
{
closed = 1;
nodes = (
(726,584,l),
(595,597,o),
(434,621,o),
(316,645,c),
(280,481,l),
(432,452,o),
(589,430,o),
(700,420,c)
);
},
{
closed = 1;
nodes = (
(644,-60,o),
(812,42,o),
(812,213,cs),
(812,340,o),
(719,401,o),
(528,401,cs),
(438,401,o),
(361,387,o),
(188,337,c),
(232,178,l),
(374,220,o),
(468,237,o),
(545,237,cs),
(610,237,o),
(628,219,o),
(628,190,cs),
(628,128,o),
(548,104,o),
(294,91,c),
(332,-69,l)
);
}
);
width = 1000;
},
{
background = {
shapes = (
{
alignment = -1;
pos = (100,-8);
ref = "u-hira";
scale = (0.8,0.8);
}
);
};
layerId = "9527F797-22C1-480E-A1FE-2CDBEBE1FD4C";
shapes = (
{
closed = 1;
nodes = (
(697,566,l),
(576,578,o),
(431,602,o),
(324,628,c),
(302,530,l),
(426,502,o),
(571,478,o),
(682,468,c)
);
},
{
closed = 1;
nodes = (
(618,-44,o),
(792,60,o),
(792,223,cs),
(792,341,o),
(702,401,o),
(527,401,cs),
(436,401,o),
(357,384,o),
(201,332,c),
(229,238,l),
(369,285,o),
(453,303,o),
(535,303,cs),
(640,303,o),
(684,270,o),
(684,212,cs),
(684,115,o),
(564,54,o),
(313,45,c),
(332,-51,l)
);
}
);
width = 1000;
}
);
unicode = 12357;
},
{
glyphname = "e-hira";
lastChange = "2025-04-09 09:43:45 +0000";
layers = (
{
layerId = "9527F797-22C1-480E-A1FE-2CDBEBE1FD4C";
shapes = (
{
closed = 1;
nodes = (
(737,720,l),
(592,733,o),
(426,762,o),
(275,801,c),
(252,707,l),
(410,667,o),
(578,639,o),
(723,627,c)
);
},
{
closed = 1;
nodes = (
(432,182,ls),
(477,218,o),
(492,225,o),
(513,225,cs),
(547,225,o),
(562,206,o),
(578,137,cs),
(605,16,o),
(657,-28,o),
(770,-28,cs),
(820,-28,o),
(891,-19,o),
(946,-5,c),
(936,87,l),
(898,78,o),
(819,68,o),
(784,68,cs),
(724,68,o),
(692,102,o),
(676,188,cs),
(658,277,o),
(631,301,o),
(551,301,cs),
(508,301,o),
(482,285,o),
(476,258,c),
(520,251,l),
(780,466,l),
(774,557,l),
(551,539,o),
(381,532,o),
(180,532,c),
(180,439,l),
(341,439,o),
(489,446,o),
(680,464,c),
(673,499,l),
(99,36,l),
(162,-41,l)
);
}
);
width = 1000;
},
{
background = {
shapes = (
{
closed = 0;
nodes = (
(717,687,l),
(581,699,o),
(427,727,o),
(270,769,c)
);
},
{
closed = 0;
nodes = (
(755,548,l),
(562,528,o),
(372,518,o),
(186,518,c)
);
},
{
closed = 0;
nodes = (
(750,546,l),
(127,-11,l)
);
},
{
closed = 0;
nodes = (
(418,249,l),
(460,285,o),
(485,297,o),
(522,297,cs),
(584,297,o),
(613,264,o),
(637,159,cs),
(663,38,o),
(701,-3,o),
(788,-3,cs),
(833,-3,o),
(911,7,o),
(947,18,c)
);
}
);
};
layerId = "D65C9A1E-0FCA-4B2D-8EDF-9F36CA9182A1";
shapes = (
{
closed = 1;
nodes = (
(718,697,l),
(582,709,o),
(430,737,o),
(273,779,c),
(268,760,l),
(425,718,o),
(580,689,o),
(716,677,c)
);
},
{
closed = 1;
nodes = (
(425,242,ls),
(465,277,o),
(488,288,o),
(522,288,cs),
(578,288,o),
(604,259,o),
(627,158,cs),
(654,32,o),
(695,-12,o),
(788,-12,cs),
(834,-12,o),
(914,-2,o),
(950,9,c),
(944,28,l),
(911,18,o),
(833,8,o),
(788,8,cs),
(706,8,o),
(672,45,o),
(647,162,cs),
(622,271,o),
(590,308,o),
(522,308,cs),
(508,308,o),
(493,305,o),
(480,300,c),
(474,286,l),
(756,538,l),
(754,558,l),
(561,538,o),
(372,528,o),
(186,528,c),
(186,508,l),
(373,508,o),
(563,518,o),
(756,538,c),
(743,553,l),
(120,-4,l),
(133,-19,l)
);
}
);
width = 1000;
},
{
layerId = "9E6B41AB-2970-4C41-8B35-4DBE0D296A43";
shapes = (
{
closed = 1;
nodes = (
(756,745,l),
(603,758,o),
(421,788,o),
(276,824,c),
(236,656,l),
(393,619,o),
(578,590,o),
(729,579,c)
);
},
{
closed = 1;
nodes = (
(439,121,ls),
(486,156,o),
(495,162,o),
(503,162,cs),
(515,162,o),
(520,153,o),
(529,116,cs),
(555,1,o),
(618,-44,o),
(751,-44,cs),
(806,-44,o),
(870,-36,o),
(942,-20,c),
(927,145,l),
(887,137,o),
(805,127,o),
(780,127,cs),
(740,127,o),
(712,157,o),
(704,214,cs),
(694,279,o),
(671,294,o),
(580,294,cs),
(507,294,o),
(471,266,o),
(471,215,c),
(565,215,l),
(804,393,l),
(793,555,l),
(545,540,o),
(390,535,o),
(173,535,c),
(173,370,l),
(309,370,o),
(416,375,o),
(603,390,c),
(603,444,l),
(78,76,l),
(191,-64,l)
);
}
);
width = 1000;
}
);
unicode = 12360;
},
{
glyphname = "esmall-hira";
lastChange = "2026-05-09 09:41:51 +0000";
layers = (
{
background = {
shapes = (
{
alignment = -1;
pos = (100,-8);
ref = "e-hira";
scale = (0.8,0.8);
},
{
closed = 0;
nodes = (
(571,363,l),
(151,69,l)
);
}
);
};
layerId = "9E6B41AB-2970-4C41-8B35-4DBE0D296A43";
shapes = (
{
closed = 1;
nodes = (
(705,588,l),
(582,598,o),
(437,622,o),
(321,651,c),
(284,498,l),
(409,468,o),
(561,444,o),
(682,435,c)
);
},
{
closed = 1;
nodes = (
(451,89,ls),
(489,117,o),
(496,122,o),
(502,122,cs),
(512,122,o),
(516,114,o),
(523,85,cs),
(544,-7,o),
(594,-43,o),
(701,-43,cs),
(745,-43,o),
(796,-37,o),
(854,-24,c),
(838,128,l),
(806,122,o),
(743,114,o),
(724,114,cs),
(703,114,o),
(689,129,o),
(683,166,cs),
(673,230,o),
(646,247,o),
(564,247,cs),
(496,247,o),
(457,218,o),
(457,164,c),
(552,164,l),
(743,306,l),
(734,426,l),
(536,414,o),
(412,410,o),
(238,410,c),
(238,258,l),
(347,258,o),
(433,262,o),
(582,274,c),
(581,370,l),
(161,76,l),
(253,-59,l)
);
}
);
width = 1000;
},
{
background = {
shapes = (
{
alignment = -1;
pos = (100,-8);
ref = "e-hira";
scale = (0.8,0.8);
}
);
};
layerId = "9527F797-22C1-480E-A1FE-2CDBEBE1FD4C";
shapes = (
{
closed = 1;
nodes = (
(690,570,l),
(574,580,o),
(441,603,o),
(320,635,c),
(298,542,l),
(423,510,o),
(563,487,o),
(678,478,c)
);
},
{
closed = 1;
nodes = (
(450,140,ls),
(483,167,o),
(495,171,o),
(510,171,cs),
(537,171,o),
(549,156,o),
(562,102,cs),
(583,5,o),
(625,-31,o),
(716,-31,cs),
(757,-31,o),
(814,-24,o),
(858,-13,c),
(846,79,l),
(815,71,o),
(755,63,o),
(728,63,cs),
(688,63,o),
(670,84,o),
(658,145,cs),
(642,225,o),
(613,250,o),
(541,250,cs),
(498,250,o),
(469,233,o),
(462,200,c),
(520,195,l),
(725,365,l),
(719,434,l),
(543,420,o),
(405,414,o),
(244,414,c),
(244,322,l),
(370,322,o),
(486,327,o),
(635,341,c),
(633,409,l),
(166,33,l),
(231,-41,l)
);
}
);
width = 1000;
},
{
background = {
shapes = (
{
alignment = -1;
pos = (100,-8);
ref = "e-hira";
scale = (0.8,0.8);
}
);
};
layerId = "D65C9A1E-0FCA-4B2D-8EDF-9F36CA9182A1";
shapes = (
{
closed = 1;
nodes = (
(675,552,l),
(566,562,o),
(445,584,o),
(319,618,c),
(313,598,l),
(439,564,o),
(564,542,o),
(673,532,c)
);
},
{
closed = 1;
nodes = (
(448,191,ls),
(478,218,o),
(493,220,o),
(518,220,cs),
(562,220,o),
(582,198,o),
(600,118,cs),
(622,16,o),
(655,-20,o),
(731,-20,cs),
(768,-20,o),
(832,-12,o),
(861,-3,c),
(855,17,l),
(826,8,o),
(766,0,o),
(731,0,cs),
(667,0,o),
(640,30,o),
(620,122,cs),
(600,210,o),
(574,240,o),
(518,240,cs),
(503,240,o),
(491,238,o),
(478,233,c),
(487,226,l),
(707,423,l),
(703,441,l),
(549,425,o),
(398,417,o),
(249,417,c),
(249,397,l),
(392,397,o),
(538,404,o),
(686,419,c),
(693,437,l),
(195,-9,l),
(209,-23,l)
);
}
);
width = 1000;
}
);
unicode = 12359;
},
{
glyphname = "o-hira";
lastChange = "2025-04-28 06:55:30 +0000";
layers = (
{
background = {
shapes = (
{
closed = 0;
nodes = (
(105,605,l),
(158,599,o),
(194,597,o),
(248,597,cs),
(407,597,o),
(608,614,o),
(720,637,c)
);
},
{
closed = 0;
nodes = (
(375,790,l),
(375,70,ls),
(375,19,o),
(356,0,o),
(305,0,cs),
(201,0,o),
(95,82,o),
(95,163,cs),
(95,281,o),
(326,400,o),
(555,400,cs),
(741,400,o),
(855,321,o),
(855,192,cs),
(855,89,o),
(782,10,o),
(688,10,cs),
(623,10,o),
(544,47,o),
(495,100,cs)
);
},
{
closed = 0;
nodes = (
(769,700,l),
(831,649,o),
(889,584,o),
(939,510,c)
);
}
);
};
layerId = "D65C9A1E-0FCA-4B2D-8EDF-9F36CA9182A1";
shapes = (
{
closed = 1;
nodes = (
(238,576,o),
(549,592,o),
(722,627,c),
(718,647,l),
(546,612,o),
(240,596,o),
(106,615,c),
(103,595,l)
);
},
{
closed = 1;
nodes = (
(362,-10,o),
(385,13,o),
(385,70,cs),
(385,790,l),
(365,790,l),
(365,70,ls),
(365,24,o),
(350,10,o),
(305,10,cs),
(206,10,o),
(105,89,o),
(105,163,cs),
(105,273,o),
(330,390,o),
(555,390,cs),
(736,390,o),
(845,314,o),
(845,192,cs),
(845,94,o),
(776,20,o),
(688,20,cs),
(626,20,o),
(550,55,o),
(502,107,c),
(488,93,l),
(538,39,o),
(620,0,o),
(688,0,cs),
(788,0,o),
(865,84,o),
(865,192,cs),
(865,328,o),
(746,410,o),
(555,410,cs),
(322,410,o),
(85,289,o),
(85,163,cs),
(85,75,o),
(196,-10,o),
(305,-10,cs)
);
},
{
closed = 1;
nodes = (
(947,516,l),
(897,590,o),
(837,657,o),
(775,708,c),
(763,692,l),
(825,641,o),
(881,578,o),
(931,504,c)
);
}
);
width = 1000;
},
{
layerId = "9527F797-22C1-480E-A1FE-2CDBEBE1FD4C";
shapes = (
{
closed = 1;
nodes = (
(371,548,o),
(570,567,o),
(711,599,c),
(704,686,l),
(536,648,o),
(325,636,o),
(93,655,c),
(90,568,l)
);
},
{
closed = 1;
nodes = (
(393,-25,o),
(435,19,o),
(435,110,cs),
(435,805,l),
(335,805,l),
(335,114,ls),
(335,84,o),
(324,73,o),
(294,73,cs),
(230,73,o),
(165,125,o),
(165,176,cs),
(165,266,o),
(351,355,o),
(539,355,cs),
(690,355,o),
(775,303,o),
(775,210,cs),
(775,137,o),
(730,81,o),
(671,81,cs),
(637,81,o),
(590,102,o),
(543,138,c),
(487,59,l),
(538,14,o),
(615,-17,o),
(676,-17,cs),
(788,-17,o),
(880,86,o),
(880,212,cs),
(880,359,o),
(755,445,o),
(540,445,cs),
(285,445,o),
(60,318,o),
(60,173,cs),
(60,69,o),
(176,-25,o),
(305,-25,cs)
);
},
{
closed = 1;
nodes = (
(971,532,l),
(931,617,o),
(882,692,o),
(824,757,c),
(746,705,l),
(804,640,o),
(852,567,o),
(890,487,c)
);
}
);
width = 1000;
},
{
layerId = "9E6B41AB-2970-4C41-8B35-4DBE0D296A43";
shapes = (
{
closed = 1;
nodes = (
(274,525,o),
(479,524,o),
(700,571,c),
(690,726,l),
(475,680,o),
(275,680,o),
(80,696,c),
(75,541,l)
);
},
{
closed = 1;
nodes = (
(424,-39,o),
(485,25,o),
(485,151,cs),
(485,819,l),
(305,819,l),
(305,163,ls),
(305,144,o),
(298,136,o),
(283,136,cs),
(248,136,o),
(215,162,o),
(215,189,cs),
(215,258,o),
(365,321,o),
(530,321,cs),
(649,321,o),
(705,289,o),
(705,222,cs),
(705,177,o),
(683,143,o),
(654,143,cs),
(635,143,o),
(613,153,o),
(577,178,c),
(491,34,l),
(545,-8,o),
(614,-34,o),
(672,-34,cs),
(794,-34,o),
(895,84,o),
(895,227,cs),
(895,390,o),
(762,481,o),
(525,481,cs),
(252,481,o),
(35,349,o),
(35,184,cs),
(35,62,o),
(157,-39,o),
(304,-39,cs)
);
},
{
closed = 1;
nodes = (
(995,548,l),
(962,650,o),
(924,730,o),
(872,806,c),
(715,733,l),
(764,660,o),
(805,575,o),
(834,485,c)
);
}
);
width = 1000;
}
);
unicode = 12362;
},
{
glyphname = "osmall-hira";
lastChange = "2026-05-09 09:37:56 +0000";
layers = (
{
background = {
shapes = (
{
alignment = -1;
pos = (100,-8);
ref = "o-hira";
scale = (0.8,0.8);
}
);
};
layerId = "D65C9A1E-0FCA-4B2D-8EDF-9F36CA9182A1";
shapes = (
{
closed = 1;
nodes = (
(304,452,o),
(549,465,o),
(678,492,c),
(674,512,l),
(546,485,o),
(305,472,o),
(185,486,c),
(183,466,l)
);
},
{
closed = 1;
nodes = (
(391,-18,o),
(410,1,o),
(410,48,cs),
(410,624,l),
(390,624,l),
(390,48,ls),
(390,13,o),
(379,2,o),
(344,2,cs),
(266,2,o),
(186,64,o),
(186,122,cs),
(186,209,o),
(365,302,o),
(544,302,cs),
(688,302,o),
(774,242,o),
(774,146,cs),
(774,68,o),
(720,10,o),
(651,10,cs),
(602,10,o),
(542,38,o),
(503,79,c),
(489,65,l),
(530,22,o),
(596,-10,o),
(651,-10,cs),
(732,-10,o),
(794,58,o),
(794,146,cs),
(794,256,o),
(698,322,o),
(544,322,cs),
(357,322,o),
(166,225,o),
(166,122,cs),
(166,52,o),
(256,-18,o),
(344,-18,cs)
);
},
{
closed = 1;
nodes = (
(860,406,l),
(820,465,o),
(771,519,o),
(722,560,c),
(710,544,l),
(759,503,o),
(804,453,o),
(844,394,c)
);
}
);
width = 1000;
},
{
background = {
shapes = (
{
alignment = -1;
pos = (100,-8);
ref = "o-hira";
scale = (0.8,0.8);
}
);
};
layerId = "9527F797-22C1-480E-A1FE-2CDBEBE1FD4C";
shapes = (
{
closed = 1;
nodes = (
(311,421,o),
(516,427,o),
(670,460,c),
(657,547,l),
(509,516,o),
(312,509,o),
(176,523,c),
(171,435,l)
);
},
{
closed = 1;
nodes = (
(422,-28,o),
(459,7,o),
(459,81,cs),
(459,636,l),
(361,636,l),
(361,87,ls),
(361,64,o),
(357,58,o),
(335,58,cs),
(291,58,o),
(245,92,o),
(245,128,cs),
(245,195,o),
(379,260,o),
(534,260,cs),
(641,260,o),
(703,228,o),
(703,158,cs),
(703,111,o),
(675,74,o),
(634,74,cs),
(607,74,o),
(573,88,o),
(543,113,c),
(496,39,l),
(537,3,o),
(595,-22,o),
(645,-22,cs),
(734,-22,o),
(805,59,o),
(805,160,cs),
(805,280,o),
(704,350,o),
(532,350,cs),
(330,350,o),
(147,248,o),
(147,131,cs),
(147,47,o),
(241,-28,o),
(344,-28,cs)
);
},
{
closed = 1;
nodes = (
(880,414,l),
(847,485,o),
(808,545,o),
(763,596,c),
(686,542,l),
(728,492,o),
(765,436,o),
(796,369,c)
);
}
);
width = 1000;
},
{
background = {
shapes = (
{
alignment = -1;
pos = (100,-8);
ref = "o-hira";
scale = (0.8,0.8);
}
);
};
layerId = "9E6B41AB-2970-4C41-8B35-4DBE0D296A43";
shapes = (
{
closed = 1;
nodes = (
(319,402,o),
(482,401,o),
(659,439,c),
(639,581,l),
(471,546,o),
(319,546,o),
(166,559,c),
(160,415,l)
);
},
{
closed = 1;
nodes = (
(452,-39,o),
(508,12,o),
(508,113,cs),
(508,647,l),
(344,647,l),
(344,126,ls),
(344,111,o),
(342,101,o),
(326,101,cs),
(310,101,o),
(292,111,o),
(292,133,cs),
(292,191,o),
(388,229,o),
(524,229,cs),
(597,229,o),
(644,224,o),
(644,170,cs),
(644,148,o),
(637,126,o),
(617,126,cs),
(608,126,o),
(591,131,o),
(564,145,c),
(507,9,l),
(548,-18,o),
(596,-35,o),
(638,-35,cs),
(735,-35,o),
(816,59,o),
(816,174,cs),
(816,304,o),
(710,377,o),
(520,377,cs),
(302,377,o),
(128,271,o),
(128,139,cs),
(128,42,o),
(226,-39,o),
(343,-39,cs)
);
},
{
closed = 1;
nodes = (
(896,430,l),
(870,512,o),
(839,576,o),
(798,637,c),
(655,567,l),
(694,509,o),
(725,445,o),
(748,374,c)
);
}
);
width = 1000;
}
);
unicode = 12361;
},
{
glyphname = "ka-hira";
lastChange = "2025-03-15 07:48:15 +0000";
layers = (
{
layerId = "9E6B41AB-2970-4C41-8B35-4DBE0D296A43";
shapes = (
{
closed = 1;
nodes = (
(338,230,o),
(407,476,o),
(457,819,c),
(275,837,l),
(217,476,o),
(164,289,o),
(41,9,c),
(211,-57,l)
);
},
{
closed = 1;
nodes = (
(672,-38,o),
(715,67,o),
(706,412,cs),
(700,648,o),
(688,672,o),
(505,672,cs),
(386,672,o),
(234,659,o),
(36,632,c),
(51,467,l),
(204,489,o),
(386,507,o),
(455,507,cs),
(511,507,o),
(516,495,o),
(516,357,cs),
(516,169,o),
(509,142,o),
(461,142,cs),
(438,142,o),
(384,154,o),
(349,167,c),
(315,2,l),
(364,-20,o),
(457,-38,o),
(520,-38,cs)
);
},
{
closed = 1;
nodes = (
(1012,214,l),
(984,378,o),
(923,574,o),
(854,722,c),
(682,672,l),
(747,536,o),
(813,327,o),
(840,172,c)
);
}
);
width = 1000;
},
{
layerId = "9527F797-22C1-480E-A1FE-2CDBEBE1FD4C";
shapes = (
{
closed = 1;
nodes = (
(305,230,o),
(376,461,o),
(429,809,c),
(328,820,l),
(271,462,o),
(209,265,o),
(71,-2,c),
(165,-40,l)
);
},
{
closed = 1;
nodes = (
(641,-23,o),
(693,112,o),
(688,428,cs),
(685,626,o),
(667,649,o),
(514,649,cs),
(398,649,o),
(250,636,o),
(57,609,c),
(67,517,l),
(236,542,o),
(391,557,o),
(480,557,cs),
(572,557,o),
(583,541,o),
(583,400,cs),
(583,176,o),
(553,77,o),
(485,77,cs),
(456,77,o),
(386,96,o),
(333,118,c),
(304,29,l),
(364,1,o),
(461,-23,o),
(514,-23,cs)
);
},
{
closed = 1;
nodes = (
(991,194,l),
(956,361,o),
(876,571,o),
(791,720,c),
(700,679,l),
(783,536,o),
(863,324,o),
(898,161,c)
);
}
);
width = 1000;
},
{
background = {
shapes = (
{
closed = 0;
nodes = (
(390,801,l),
(335,450,o),
(262,234,o),
(110,-18,c)
);
},
{
closed = 0;
nodes = (
(297,65,l),
(369,32,o),
(469,2,o),
(508,2,cs),
(601,2,o),
(660,167,o),
(660,443,cs),
(660,594,o),
(637,616,o),
(483,616,cs),
(380,616,o),
(259,604,o),
(80,576,c)
);
},
{
closed = 0;
nodes = (
(960,172,l),
(918,341,o),
(820,563,o),
(720,712,c)
);
}
);
};
layerId = "D65C9A1E-0FCA-4B2D-8EDF-9F36CA9182A1";
shapes = (
{
closed = 1;
nodes = (
(271,229,o),
(345,448,o),
(400,799,c),
(380,803,l),
(325,452,o),
(253,239,o),
(101,-13,c),
(119,-23,l)
);
},
{
closed = 1;
nodes = (
(610,-8,o),
(670,163,o),
(670,443,cs),
(670,600,o),
(643,626,o),
(483,626,cs),
(380,626,o),
(257,614,o),
(78,586,c),
(82,566,l),
(261,594,o),
(380,606,o),
(483,606,cs),
(631,606,o),
(650,588,o),
(650,443,cs),
(650,171,o),
(592,12,o),
(508,12,cs),
(470,12,o),
(373,41,o),
(301,74,c),
(293,56,l),
(365,23,o),
(468,-8,o),
(508,-8,cs)
);
},
{
closed = 1;
nodes = (
(970,174,l),
(928,343,o),
(828,569,o),
(728,718,c),
(712,706,l),
(812,557,o),
(908,339,o),
(950,170,c)
);
}
);
width = 1000;
}
);
unicode = 12363;
},
{
glyphname = "ga-hira";
lastChange = "2025-05-06 06:53:41 +0000";
layers = (
{
background = {
shapes = (
{
alignment = -1;
pos = (-10,-10);
ref = "ka-hira";
}
);
};
layerId = "D65C9A1E-0FCA-4B2D-8EDF-9F36CA9182A1";
shapes = (
{
closed = 1;
nodes = (
(261,219,o),
(335,438,o),
(390,789,c),
(370,793,l),
(315,442,o),
(243,229,o),
(91,-23,c),
(109,-33,l)
);
},
{
closed = 1;
nodes = (
(600,-18,o),
(660,153,o),
(660,433,cs),
(660,590,o),
(633,616,o),
(473,616,cs),
(370,616,o),
(247,604,o),
(68,576,c),
(72,556,l),
(251,584,o),
(370,596,o),
(473,596,cs),
(621,596,o),
(640,578,o),
(640,433,cs),
(640,161,o),
(582,2,o),
(498,2,cs),
(460,2,o),
(363,31,o),
(291,64,c),
(283,46,l),
(355,13,o),
(458,-18,o),
(498,-18,cs)
);
},
{
closed = 1;
nodes = (
(960,114,l),
(918,285,o),
(816,514,o),
(715,662,c),
(805,538,l),
(763,516,l),
(699,651,l),
(800,501,o),
(898,281,o),
(940,110,c)
);
},
{
alignment = -1;
angle = 6;
pos = (-30,-118);
ref = "_voicedcomb-kana_ORG";
}
);
width = 1000;
},
{
background = {
shapes = (
{
alignment = -1;
pos = (-10,-10);
ref = "ka-hira";
}
);
};
layerId = "9E6B41AB-2970-4C41-8B35-4DBE0D296A43";
shapes = (
{
closed = 1;
nodes = (
(328,220,o),
(397,466,o),
(447,809,c),
(265,827,l),
(207,466,o),
(154,279,o),
(31,-1,c),
(201,-67,l)
);
},
{
closed = 1;
nodes = (
(652,-48,o),
(695,57,o),
(686,402,cs),
(680,638,o),
(668,662,o),
(485,662,cs),
(366,662,o),
(214,649,o),
(26,622,c),
(41,457,l),
(184,479,o),
(366,497,o),
(435,497,cs),
(491,497,o),
(496,485,o),
(496,347,cs),
(496,159,o),
(489,132,o),
(441,132,cs),
(418,132,o),
(364,144,o),
(339,157,c),
(305,-8,l),
(344,-30,o),
(437,-48,o),
(500,-48,cs)
);
},
{
closed = 1;
nodes = (
(1002,154,l),
(977,337,o),
(913,562,o),
(839,716,c),
(1004,563,l),
(657,475,l),
(667,668,l),
(734,533,o),
(805,292,o),
(829,118,c)
);
},
{
alignment = -1;
angle = -4;
pos = (-50,22);
ref = "_voicedcomb-kana_ORG";
}
);
width = 1000;
},
{
background = {
shapes = (
{
alignment = -1;
pos = (-10,-10);
ref = "ka-hira";
}
);
};
layerId = "9527F797-22C1-480E-A1FE-2CDBEBE1FD4C";
shapes = (
{
closed = 1;
nodes = (
(295,220,o),
(366,451,o),
(419,799,c),
(318,810,l),
(261,452,o),
(199,255,o),
(61,-12,c),
(155,-50,l)
);
},
{
closed = 1;
nodes = (
(631,-33,o),
(683,102,o),
(678,418,cs),
(675,616,o),
(657,639,o),
(504,639,cs),
(388,639,o),
(240,626,o),
(47,599,c),
(57,507,l),
(226,532,o),
(381,547,o),
(470,547,cs),
(562,547,o),
(573,531,o),
(573,390,cs),
(573,166,o),
(543,67,o),
(475,67,cs),
(446,67,o),
(376,86,o),
(323,108,c),
(294,19,l),
(354,-9,o),
(451,-33,o),
(504,-33,cs)
);
},
{
closed = 1;
nodes = (
(981,134,l),
(944,311,o),
(856,536,o),
(766,685,c),
(886,554,l),
(705,479,l),
(675,644,l),
(763,501,o),
(851,274,o),
(888,101,c)
);
},
{
alignment = -1;
angle = 1;
pos = (-33,-48);
ref = "_voicedcomb-kana_ORG";
}
);
width = 1000;
}
);
unicode = 12364;
},
